<svg width="78" height="76" viewBox="0 0 78 76" fill="none" xmlns="http://www.w3.org/2000/svg">
<path d="M9.86509 50.8402L11.7651 56.4602C11.7651 56.4602 10.8151 60.0502 5.53509 57.7902C5.53509 57.7902 1.67509 56.4402 4.26509 53.4402C5.47509 52.0602 8.02508 51.1202 9.86509 50.8402Z" fill="#F2E33C"/>
<path d="M6.74509 59.6502C6.19509 59.5102 5.62509 59.3102 5.03509 59.0602C4.62509 58.9102 2.60509 58.0702 2.10509 56.2102C1.88509 55.3802 1.90509 54.0802 3.22509 52.5402C4.69509 50.8702 7.51509 49.8102 9.65509 49.4802C10.3151 49.3802 10.9451 49.7702 11.1551 50.4002L13.0551 56.0202C13.1451 56.2702 13.1551 56.5502 13.0851 56.8102C13.0351 56.9902 12.5751 58.5802 10.8451 59.4202C9.70509 59.9802 8.32509 60.0502 6.73509 59.6502H6.74509ZM8.95509 52.4302C7.55509 52.8102 6.03509 53.5002 5.29509 54.3402C4.88509 54.8102 4.68509 55.2402 4.75509 55.5002C4.87509 55.9402 5.67509 56.3802 5.98509 56.4902C6.01509 56.5002 6.04509 56.5102 6.07509 56.5202C7.62509 57.1802 8.86509 57.3302 9.65509 56.9502C9.97509 56.7902 10.1751 56.5602 10.2951 56.3802L8.95509 52.4302Z" fill="#422B08"/>
<path d="M68.8051 65.8501L64.4551 69.8701C64.4551 69.8701 63.5751 73.4801 69.2851 74.0201C69.2851 74.0201 73.3251 74.6801 72.4851 70.8101C72.0751 69.0201 70.2951 66.9701 68.8051 65.8501Z" fill="#F2E33C"/>
<path d="M67.3251 75.0801C65.7351 74.6801 64.5651 73.9501 63.8251 72.9101C62.7151 71.3501 63.065 69.7201 63.115 69.5401C63.175 69.2801 63.315 69.0401 63.515 68.8601L67.8651 64.8401C68.3551 64.3901 69.095 64.3501 69.625 64.7501C71.355 66.0601 73.315 68.3501 73.805 70.5001C74.245 72.4901 73.625 73.6501 73.035 74.2701C71.705 75.6701 69.535 75.4401 69.095 75.3701C68.455 75.3101 67.855 75.2101 67.305 75.0701L67.3251 75.0801ZM65.775 70.5201C65.795 70.7401 65.865 71.0601 66.085 71.3601C66.605 72.0501 67.7551 72.5001 69.4051 72.6601C69.4351 72.6601 69.465 72.6601 69.495 72.6701C69.965 72.7401 70.775 72.6801 71.055 72.3901C71.235 72.1901 71.265 71.7301 71.135 71.1101C70.885 70.0301 69.885 68.6901 68.835 67.6901L65.775 70.5201Z" fill="#422B08"/>
<path d="M74.4051 51.5401C71.9651 50.1801 65.2551 46.5801 61.5551 45.8801C61.2251 45.7901 60.8851 45.6901 60.5351 45.6001C57.1851 44.7501 53.9251 44.6901 51.2251 45.1501C49.6251 45.0301 46.4851 44.4301 42.9051 43.5101C39.5151 42.6501 36.6051 41.7301 35.0651 41.0701C32.9051 39.3501 29.9751 37.8101 26.5851 36.9401C26.1251 36.8201 25.6551 36.7201 25.1951 36.6301H25.2351C21.6551 35.4601 14.0351 35.4101 11.2451 35.4401C9.85511 35.0901 8.43511 35.9301 8.08511 37.3201C7.73511 38.7101 8.57511 40.1301 9.96511 40.4801L10.4951 40.6201C10.2251 41.7601 8.01511 51.3301 9.99511 54.3501C11.5551 57.3301 15.2051 60.0101 19.8851 61.2001C25.1051 62.5301 30.1051 61.6301 32.7551 59.2201C35.6651 57.1301 37.9051 51.0601 38.6851 48.7101C39.7551 47.7901 40.8551 47.3701 41.8551 47.6301C42.9351 47.9101 43.7451 48.9201 44.2351 50.4201C43.7851 53.0401 42.9651 59.1001 44.4651 62.2101C45.6451 65.6001 49.6051 68.7801 54.8251 70.1101C59.5051 71.3001 63.9951 70.7001 66.7851 68.8301C69.9651 67.1301 72.6051 57.6701 72.9151 56.5401L73.1251 56.5901C74.5151 56.9401 75.9351 56.1001 76.2851 54.7101C76.6351 53.3201 75.7951 51.9001 74.4051 51.5501V51.5401Z" fill="#FFF23F"/>
<path d="M54.4851 71.4401C49.0151 70.0501 44.5951 66.6301 43.1951 62.7301C41.6751 59.4801 42.2751 53.8501 42.8251 50.5401C42.4851 49.6501 42.0151 49.0801 41.5151 48.9501C40.9551 48.8101 40.3051 49.1801 39.8551 49.5201C38.7451 52.7801 36.5651 58.1101 33.6151 60.2801C30.5251 63.0401 25.0151 63.9201 19.5351 62.5201C14.6351 61.2701 10.6251 58.4701 8.79507 55.0301C6.93507 52.0701 8.12507 45.0001 8.86507 41.5401C7.19507 40.7401 6.26507 38.8401 6.73507 36.9801C7.27507 34.9301 9.32507 33.6601 11.3851 34.0801C14.5751 34.0601 21.9851 34.1401 25.6551 35.3301C25.6751 35.3301 25.7051 35.3501 25.7251 35.3601C26.1351 35.4401 26.5351 35.5301 26.9151 35.6301C30.1651 36.4601 33.2951 37.9701 35.7551 39.8901C37.3251 40.5401 40.1651 41.4101 43.2351 42.1901C46.4751 43.0101 49.5451 43.6301 51.1651 43.7701C53.3651 43.4201 56.7951 43.2301 60.8751 44.2701C61.1951 44.3501 61.5151 44.4401 61.8251 44.5401C65.6251 45.2701 72.1451 48.7201 74.9251 50.2701C76.9351 50.8901 78.1351 52.9901 77.6051 55.0501C77.1651 56.7901 75.6151 57.9701 73.9051 58.0401C72.9151 61.4101 70.5651 68.2801 67.4851 70.0101C64.2351 72.1601 59.3751 72.7001 54.4751 71.4501L54.4851 71.4401ZM42.1951 46.3001C43.2551 46.5701 44.6951 47.4301 45.5451 49.9901C45.6151 50.2001 45.6351 50.4301 45.5951 50.6501C44.7351 55.5901 44.7851 59.6901 45.7051 61.6101C45.7251 61.6601 45.7451 61.7101 45.7651 61.7601C46.8151 64.8001 50.5951 67.6201 55.1651 68.7801C59.2851 69.8301 63.4551 69.4101 66.0251 67.6901C66.0651 67.6601 66.1051 67.6401 66.1451 67.6201C67.9551 66.6501 70.2551 61.1301 71.5951 56.1801C71.7951 55.4601 72.5351 55.0201 73.2551 55.2101L73.4651 55.2601C74.1251 55.4301 74.7951 55.0301 74.9551 54.3701C75.1151 53.7101 74.7251 53.0401 74.0651 52.8801C73.9551 52.8501 73.8351 52.8101 73.7351 52.7501C71.7351 51.6401 64.9951 47.9901 61.4151 47.2601C61.3251 47.2601 61.2451 47.2301 61.1551 47.2101C60.8351 47.1101 60.5251 47.0201 60.1951 46.9401C57.2951 46.2001 54.1851 46.0501 51.4551 46.5101C51.3451 46.5301 51.2351 46.5301 51.1251 46.5301C49.3851 46.4001 46.1051 45.7601 42.5651 44.8601C39.2051 44.0001 36.1951 43.0701 34.5251 42.3601C34.4151 42.3101 34.3051 42.2501 34.2051 42.1701C32.0151 40.4201 29.1851 39.0501 26.2451 38.3001C25.8251 38.1901 25.3851 38.1001 24.9351 38.0101C24.7951 37.9801 24.6751 37.9401 24.5551 37.8801C20.9851 36.8401 13.5051 36.8301 11.2551 36.8501C11.1351 36.8501 11.0151 36.8401 10.9051 36.8101C10.2451 36.6401 9.57507 37.0401 9.41507 37.7001C9.25507 38.3601 9.64507 39.0301 10.3051 39.1901L10.8351 39.3301C11.5651 39.5201 12.0051 40.2501 11.8351 40.9801C10.6451 45.9701 10.0251 51.9201 11.1451 53.6401C11.1651 53.6801 11.1951 53.7201 11.2151 53.7601C12.6551 56.5101 16.1051 58.8701 20.2251 59.9201C24.7951 61.0801 29.4651 60.4101 31.8351 58.2501C31.8751 58.2101 31.9151 58.1801 31.9551 58.1501C34.5951 56.2601 36.7751 50.1501 37.3851 48.3201C37.4651 48.0801 37.6051 47.8701 37.7951 47.7101C39.6451 46.1201 41.2151 46.0801 42.2051 46.3401L42.1951 46.3001Z" fill="#422B08"/>
<path d="M35.565 48.0702C36.195 45.5802 32.025 41.2002 25.905 39.6402C19.785 38.0802 14.025 39.9302 13.385 42.4202C13.385 42.4202 11.335 50.7102 12.975 53.2102C14.185 55.5402 17.035 57.6202 20.685 58.5502C24.755 59.5902 28.645 58.8902 30.715 57.0002C33.545 54.9702 35.565 48.1002 35.575 48.0702H35.565Z" fill="#422B08"/>
<path d="M14.3251 55.0401C15.2551 56.0101 16.4851 56.8701 17.9251 57.5501L30.9451 41.7601C29.7451 41.0201 28.3451 40.3701 26.8151 39.9001L14.3351 55.0301L14.3251 55.0401Z" fill="#5A3E19"/>
<path d="M19.8051 58.2801C20.0951 58.3701 20.3751 58.4701 20.6751 58.5401C21.1751 58.6701 21.6851 58.7701 22.1751 58.8501L34.1051 44.3801C33.6551 43.8701 33.1351 43.3601 32.5151 42.8701L19.8051 58.2801Z" fill="#5A3E19"/>
<path d="M47.335 51.0701C47.965 48.5801 53.725 46.7301 59.855 48.2901C65.985 49.8501 70.155 54.2301 69.515 56.7201C69.515 56.7201 67.355 64.9801 64.715 66.3901C62.535 67.8501 59.035 68.3201 55.395 67.3901C51.325 66.3501 48.245 63.8801 47.325 61.2301C45.815 58.1001 47.325 51.1001 47.325 51.0701H47.335Z" fill="#422B08"/>
<path d="M49.2351 64.09C50.2051 65.03 51.4551 65.86 52.9051 66.51L65.7251 50.96C64.5951 50.17 63.2551 49.45 61.7551 48.89L49.2251 64.08L49.2351 64.09Z" fill="#5A3E19"/>
<path d="M54.8151 67.21C55.0151 67.27 55.1951 67.34 55.3951 67.39C56.0151 67.55 56.6151 67.65 57.2251 67.73L68.6851 53.83C68.3051 53.28 67.8151 52.71 67.2251 52.16L54.8151 67.21Z" fill="#5A3E19"/>
<path d="M9.8657 50.8402L11.7657 56.4602C11.7657 56.4602 10.8157 60.0502 5.5357 57.7902C5.5357 57.7902 1.6757 56.4402 4.2657 53.4402C5.4757 52.0602 8.0257 51.1202 9.8657 50.8402Z" fill="#F2E33C"/>
<path d="M6.91573 58.9902C6.39573 58.8602 5.85573 58.6702 5.28573 58.4302C5.03573 58.3402 3.18573 57.6102 2.76573 56.0402C2.50573 55.0702 2.83573 54.0502 3.74573 53.0002C5.08573 51.4802 7.80573 50.4702 9.76573 50.1702C10.0957 50.1202 10.4157 50.3102 10.5157 50.6302L12.4157 56.2502C12.4557 56.3802 12.4657 56.5102 12.4257 56.6502C12.4057 56.7102 12.0257 58.1002 10.5557 58.8202C9.56573 59.3002 8.34573 59.3602 6.91573 59.0002V58.9902ZM9.40573 51.6202C7.72573 51.9702 5.73573 52.8102 4.77573 53.8902C4.18573 54.5702 3.95573 55.1702 4.08573 55.6802C4.29573 56.4702 5.38573 57.0102 5.75573 57.1402C5.76573 57.1402 5.78573 57.1502 5.79573 57.1602C7.53573 57.9102 8.97573 58.0502 9.94573 57.5802C10.6057 57.2602 10.9157 56.7302 11.0357 56.4602L9.40573 51.6302V51.6202Z" fill="#422B08"/>
<path d="M68.8057 65.8502L64.4557 69.8702C64.4557 69.8702 63.5757 73.4802 69.2857 74.0202C69.2857 74.0202 73.3257 74.6802 72.4857 70.8102C72.0757 69.0202 70.2957 66.9702 68.8057 65.8502Z" fill="#F2E33C"/>
<path d="M67.4957 74.4203C66.0757 74.0603 65.0257 73.4203 64.3857 72.5203C63.4357 71.1803 63.7657 69.7703 63.7757 69.7203C63.8057 69.5903 63.8757 69.4703 63.9757 69.3803L68.3257 65.3603C68.5657 65.1303 68.9357 65.1203 69.2057 65.3203C70.7857 66.5203 72.6857 68.7003 73.1357 70.6803C73.4357 72.0403 73.2357 73.1003 72.5457 73.8303C71.4257 75.0103 69.4557 74.7603 69.1957 74.7303C68.5757 74.6703 68.0057 74.5703 67.4957 74.4403V74.4203ZM65.0857 70.2203C65.0657 70.5203 65.0857 71.1403 65.5157 71.7503C66.1457 72.6203 67.4657 73.1703 69.3457 73.3503C69.3657 73.3503 69.3757 73.3503 69.3957 73.3503C69.8057 73.4103 71.0057 73.4603 71.5657 72.8603C71.9257 72.4803 72.0057 71.8403 71.8157 70.9603C71.4957 69.5603 70.1457 67.8703 68.8457 66.7603L65.1057 70.2203H65.0857Z" fill="#422B08"/>
<path d="M74.4057 51.5402C71.9657 50.1802 65.2557 46.5802 61.5557 45.8802C61.2257 45.7902 60.8857 45.6902 60.5357 45.6002C57.1857 44.7502 53.9257 44.6902 51.2257 45.1502C49.6257 45.0302 46.4857 44.4302 42.9057 43.5102C39.5157 42.6502 36.6057 41.7302 35.0657 41.0702C32.9057 39.3502 29.9757 37.8102 26.5857 36.9402C26.1257 36.8202 25.6557 36.7202 25.1957 36.6302H25.2357C21.6557 35.4602 14.0357 35.4102 11.2457 35.4402C9.85572 35.0902 8.43572 35.9302 8.08572 37.3202C7.73572 38.7102 8.57572 40.1302 9.96572 40.4802L10.4957 40.6202C10.2257 41.7602 8.01572 51.3302 9.99572 54.3502C11.5557 57.3302 15.2057 60.0102 19.8857 61.2002C25.1057 62.5302 30.1057 61.6302 32.7557 59.2202C35.6657 57.1302 37.9057 51.0602 38.6857 48.7102C39.7557 47.7902 40.8557 47.3702 41.8557 47.6302C42.9357 47.9102 43.7457 48.9202 44.2357 50.4202C43.7857 53.0402 42.9657 59.1002 44.4657 62.2102C45.6457 65.6002 49.6057 68.7802 54.8257 70.1102C59.5057 71.3002 63.9957 70.7002 66.7857 68.8302C69.9657 67.1302 72.6057 57.6702 72.9157 56.5402L73.1257 56.5902C74.5157 56.9402 75.9357 56.1002 76.2857 54.7102C76.6357 53.3202 75.7957 51.9002 74.4057 51.5502V51.5402Z" fill="#FFF23F"/>
<path d="M54.6558 70.7702C49.3858 69.4302 45.1358 66.1702 43.8358 62.4702C42.3458 59.3302 42.9958 53.6902 43.5358 50.4802C43.2158 49.5902 42.6558 48.5402 41.6958 48.3002C40.8258 48.0802 39.9258 48.6002 39.2858 49.1202C38.4058 51.7502 36.1658 57.6102 33.1958 59.7602C30.2758 62.3902 24.9958 63.2202 19.7158 61.8702C15.0558 60.6802 11.1058 57.9402 9.40576 54.7002C7.52576 51.7702 9.06576 43.8802 9.68576 41.1202C7.99576 40.6302 6.98576 38.8702 7.42576 37.1602C7.86576 35.4302 9.60576 34.3802 11.3258 34.7602C14.4358 34.7302 21.8458 34.8102 25.4558 35.9702C25.4858 35.9702 25.5058 35.9902 25.5358 36.0002C25.9558 36.0802 26.3658 36.1802 26.7658 36.2802C29.9558 37.0902 33.0258 38.5802 35.4258 40.4702C37.0058 41.1302 39.9258 42.0302 43.0858 42.8402C46.4658 43.7002 49.5658 44.3102 51.2058 44.4502C53.3358 44.1002 56.6958 43.9002 60.7158 44.9302C61.0458 45.0102 61.3558 45.1002 61.6758 45.2002C65.4058 45.9102 71.9458 49.3802 74.6658 50.8902C76.3658 51.3702 77.3858 53.1402 76.9458 54.8602C76.5358 56.4702 75.0058 57.4902 73.3958 57.3202C72.6258 60.0102 70.1958 67.7202 67.1358 69.4002C64.0858 71.4302 59.3058 71.9502 54.6458 70.7602L54.6558 70.7702ZM42.0258 46.9602C43.3058 47.2902 44.2958 48.4102 44.8858 50.2002C44.9258 50.3102 44.9258 50.4202 44.9058 50.5302C44.4858 52.9702 43.6558 58.9602 45.0758 61.9002C45.0858 61.9202 45.0958 61.9502 45.1058 61.9702C46.2458 65.2602 50.1258 68.1902 54.9858 69.4302C59.2958 70.5302 63.6658 70.0702 66.3958 68.2402C66.4158 68.2302 66.4358 68.2202 66.4558 68.2102C68.8358 66.9402 71.2158 60.1502 72.2458 56.3402C72.3458 55.9802 72.7158 55.7602 73.0758 55.8502L73.2858 55.9002C74.3058 56.1602 75.3558 55.5402 75.6158 54.5202C75.8758 53.5002 75.2558 52.4502 74.2358 52.1902C74.1758 52.1802 74.1258 52.1502 74.0758 52.1202C72.0458 50.9902 65.1958 47.2802 61.5158 46.5502C61.4658 46.5502 61.4158 46.5402 61.3658 46.5202C61.0358 46.4202 60.7158 46.3302 60.3758 46.2402C57.3758 45.4802 54.1758 45.3202 51.3458 45.8002C51.2958 45.8002 51.2358 45.8102 51.1758 45.8002C49.4758 45.6702 46.2358 45.0402 42.7358 44.1402C39.2358 43.2402 36.4358 42.3702 34.7958 41.6702C34.7358 41.6502 34.6858 41.6102 34.6358 41.5802C32.3758 39.7802 29.4558 38.3602 26.4158 37.5802C25.9858 37.4702 25.5358 37.3702 25.0658 37.2802C24.9758 37.2602 24.8958 37.2302 24.8258 37.1902C21.2058 36.1102 13.5358 36.0802 11.2458 36.1102C11.1858 36.1102 11.1258 36.1102 11.0658 36.0902C10.0458 35.8302 8.99576 36.4502 8.73576 37.4702C8.47576 38.4902 9.09576 39.5402 10.1158 39.8002L10.6458 39.9402C11.0058 40.0302 11.2258 40.4002 11.1458 40.7602C10.2258 44.6002 9.06576 51.7002 10.5458 53.9502C10.5558 53.9702 10.5658 53.9902 10.5758 54.0102C12.0958 56.9202 15.7158 59.4202 20.0258 60.5102C24.8858 61.7502 29.6858 61.0302 32.2658 58.6802C32.2858 58.6602 32.3058 58.6502 32.3258 58.6302C35.1258 56.6202 37.3858 50.3402 38.0058 48.4602C38.0458 48.3402 38.1158 48.2402 38.2058 48.1602C39.4958 47.0502 40.8058 46.6302 41.9958 46.9302L42.0258 46.9602Z" fill="#422B08"/>
<path d="M35.5658 48.0702C36.1958 45.5802 32.0258 41.2002 25.9058 39.6402C19.7858 38.0802 14.0258 39.9302 13.3858 42.4202C13.3858 42.4202 11.3358 50.7102 12.9758 53.2102C14.1858 55.5402 17.0358 57.6202 20.6858 58.5502C24.7558 59.5902 28.6458 58.8902 30.7158 57.0002C33.5458 54.9702 35.5658 48.1002 35.5758 48.0702H35.5658Z" fill="#422B08"/>
<path d="M14.3258 55.0401C15.2558 56.0101 16.4858 56.8701 17.9258 57.5501L30.9458 41.7601C29.7458 41.0201 28.3458 40.3701 26.8158 39.9001L14.3358 55.0301L14.3258 55.0401Z" fill="#5A3E19"/>
<path d="M19.8058 58.2801C20.0958 58.3701 20.3758 58.4701 20.6758 58.5401C21.1758 58.6701 21.6858 58.7701 22.1758 58.8501L34.1058 44.3801C33.6558 43.8701 33.1358 43.3601 32.5158 42.8701L19.8058 58.2801Z" fill="#5A3E19"/>
<path d="M47.3358 51.0702C47.9658 48.5802 53.7258 46.7302 59.8558 48.2902C65.9858 49.8502 70.1558 54.2302 69.5158 56.7202C69.5158 56.7202 67.3558 64.9802 64.7158 66.3902C62.5358 67.8502 59.0358 68.3202 55.3958 67.3902C51.3258 66.3502 48.2458 63.8802 47.3258 61.2302C45.8158 58.1002 47.3258 51.1002 47.3258 51.0702H47.3358Z" fill="#422B08"/>
<path d="M49.2358 64.0901C50.2058 65.0301 51.4558 65.8601 52.9058 66.5101L65.7258 50.9601C64.5958 50.1701 63.2558 49.4501 61.7558 48.8901L49.2258 64.0801L49.2358 64.0901Z" fill="#5A3E19"/>
<path d="M54.8158 67.2102C55.0158 67.2702 55.1958 67.3402 55.3958 67.3902C56.0158 67.5502 56.6158 67.6502 57.2258 67.7302L68.6858 53.8302C68.3058 53.2802 67.8158 52.7102 67.2258 52.1602L54.8158 67.2102Z" fill="#5A3E19"/>
</svg>
