<svg width="79" height="76" viewBox="0 0 79 76" fill="none" xmlns="http://www.w3.org/2000/svg">
<path opacity="0.15" d="M57.5909 67.8466C57.7345 65.3101 47.6682 62.6775 35.1073 61.9665C22.5464 61.2554 12.2473 62.7352 12.1037 65.2716C11.9601 67.8081 22.0264 70.4407 34.5873 71.1518C47.1483 71.8628 57.4473 70.383 57.5909 67.8466Z" fill="#422B08"/>
<path d="M57.096 44.4976L73.016 40.1976C73.376 40.0976 73.766 40.1576 74.086 40.3476L77.156 42.1876C77.876 42.6176 78.046 43.5776 77.526 44.2376L70.066 53.6076C69.636 54.1476 68.866 54.2876 68.276 53.9276L56.746 47.0176C55.696 46.3876 55.916 44.8176 57.096 44.4976Z" stroke="#422B08" stroke-width="0.43"/>
<path d="M67.036 53.1876L68.276 53.9276C68.866 54.2876 69.636 54.1476 70.066 53.6076L77.526 44.2376C78.046 43.5876 77.876 42.6176 77.156 42.1876L76.576 41.8376L67.036 53.1876Z" stroke="#422B08" stroke-width="0.43"/>
<path d="M68.076 54.5176C68.076 54.5176 67.996 54.4776 67.966 54.4576L56.436 47.5476C55.736 47.1276 55.376 46.3676 55.486 45.5576C55.596 44.7476 56.156 44.1176 56.946 43.9076L72.866 39.6076C73.386 39.4676 73.946 39.5476 74.406 39.8176L77.476 41.6576C77.966 41.9576 78.3159 42.4476 78.4159 43.0176C78.5159 43.5876 78.376 44.1676 78.016 44.6176L70.5559 53.9876C69.9659 54.7276 68.916 54.9476 68.086 54.5176H68.076ZM73.726 40.8476C73.556 40.7576 73.356 40.7376 73.176 40.7876L57.256 45.0876C56.796 45.2076 56.706 45.6076 56.696 45.7276C56.676 45.8476 56.656 46.2476 57.066 46.4976L68.5959 53.4076C68.9359 53.6076 69.3559 53.5276 69.5959 53.2276L77.0559 43.8576C77.1959 43.6776 77.256 43.4576 77.216 43.2376C77.176 43.0176 77.046 42.8276 76.856 42.7176L73.786 40.8776C73.786 40.8776 73.756 40.8576 73.746 40.8576L73.726 40.8476Z" stroke="#422B08" stroke-width="0.43"/>
<path d="M36.896 31.9676L54.606 27.7276C54.996 27.6376 55.416 27.7076 55.756 27.9276L57.576 29.1076C58.326 29.5976 58.476 30.6276 57.906 31.3076L50.106 40.5876C49.656 41.1276 48.896 41.2676 48.276 40.9476L36.546 34.7276C35.336 34.0876 35.566 32.2876 36.896 31.9676Z" stroke="#422B08" stroke-width="0.43"/>
<path d="M48.0059 41.4876C48.0059 41.4876 47.9859 41.4876 47.9859 41.4776L36.2559 35.2576C35.4759 34.8476 35.0459 34.0176 35.1559 33.1376C35.2659 32.2676 35.8959 31.5676 36.7459 31.3676L54.4559 27.1276C55.0059 26.9976 55.6059 27.0976 56.0859 27.4076L57.9059 28.5876C58.4059 28.9176 58.7559 29.4476 58.8359 30.0376C58.9259 30.6276 58.7559 31.2376 58.3659 31.6976L50.5659 40.9776C49.9359 41.7176 48.8659 41.9376 48.0059 41.4976V41.4876ZM55.3559 28.3976C55.1759 28.3076 54.9559 28.2776 54.7559 28.3276L37.0459 32.5676C36.5059 32.6976 36.4059 33.1676 36.3859 33.3076C36.3659 33.4476 36.3459 33.9276 36.8459 34.1876L48.5759 40.4076C48.5759 40.4076 48.5759 40.4076 48.5859 40.4076C48.9459 40.5876 49.3959 40.5076 49.6559 40.1976L57.4559 30.9176C57.6159 30.7276 57.6859 30.4776 57.6559 30.2276C57.6159 29.9776 57.4759 29.7576 57.2659 29.6276L55.4459 28.4476C55.4459 28.4476 55.3959 28.4176 55.3759 28.4076L55.3559 28.3976Z" stroke="#422B08" stroke-width="0.43"/>
<path d="M63.226 60.2077C68.016 59.8477 75.676 57.1977 70.626 53.4777L37.376 31.3277C34.796 25.6177 25.256 17.8277 14.206 24.4477C4.47602 20.6977 -6.06398 31.7077 10.806 43.4077C21.316 50.1577 45.816 62.9877 63.226 60.2077Z" stroke="#422B08" stroke-width="0.43"/>
<path d="M70.646 53.4875C59.226 61.2375 27.876 47.7476 15.656 38.7275C8.59603 34.1275 6.38603 28.5975 7.05603 24.2375C0.876031 26.3775 -1.75397 34.6975 10.806 43.4075C21.316 50.1575 45.816 62.9875 63.226 60.2075C68.016 59.8475 75.666 57.2075 70.636 53.4875H70.646Z" stroke="#422B08" stroke-width="0.43"/>
<path d="M63.226 60.2076C67.126 59.9176 72.936 58.0976 72.226 55.4276C59.636 63.1076 42.766 57.0376 29.226 51.1576C13.696 45.0876 3.426 35.8076 3.786 31.9776L1.896 31.0576C1.896 34.5476 4.336 38.9276 10.806 43.4076C21.316 50.1576 45.816 62.9876 63.226 60.2076Z" stroke="#422B08" stroke-width="0.43"/>
<path d="M21.5359 50.2376C16.0759 47.4376 12.0459 44.9276 10.4759 43.9176C10.4759 43.9176 10.4659 43.9176 10.4559 43.9076C-1.06407 35.9176 1.17593 29.3576 2.14593 27.5376C3.14593 25.6476 4.93593 24.2276 7.19593 23.5376C9.39593 22.8676 11.8559 22.9476 14.1559 23.7676C18.4759 21.2576 23.0459 20.6476 27.3959 22.0076C32.4959 23.6076 36.3059 27.5976 37.8659 30.9076L70.9759 52.9676C70.9759 52.9676 70.9959 52.9776 70.9959 52.9876C72.5459 54.1276 73.1559 55.3076 72.8059 56.5076C72.0359 59.1776 66.5759 60.5676 63.2959 60.8176C55.5559 62.0476 45.7759 60.4076 34.2059 55.9576C29.5359 54.1576 25.2159 52.1376 21.5359 50.2476V50.2376ZM11.1459 42.8976C14.3859 44.9776 42.9359 62.8276 63.1359 59.5976C63.1559 59.5976 63.1659 59.5976 63.1859 59.5976C66.7959 59.3276 71.1559 57.8476 71.6359 56.1676C71.8259 55.5176 71.3659 54.7776 70.2859 53.9776L37.0359 31.8376C36.9359 31.7776 36.8659 31.6876 36.8159 31.5776C35.4159 28.4876 31.8459 24.6876 27.0259 23.1776C22.9359 21.8976 18.6159 22.5176 14.5259 24.9676C14.3659 25.0676 14.1659 25.0776 13.9959 25.0176C9.74593 23.3776 5.01593 24.7376 3.22593 28.1176C2.24593 29.9776 2.27593 32.1876 3.31593 34.5176C4.57593 37.3476 7.21593 40.1676 11.1459 42.8976Z" stroke="#422B08" stroke-width="0.43"/>
<path d="M9.07597 30.9476C11.026 28.4776 11.296 25.4376 9.67597 24.1676C9.45597 23.9976 9.21597 23.8676 8.96597 23.7776C4.57597 24.3576 1.20597 27.7676 2.02597 32.4376C2.18597 32.7076 2.38597 32.9376 2.62597 33.1276C4.23597 34.3976 7.12597 33.4176 9.06597 30.9476H9.07597Z" stroke="#422B08" stroke-width="0.43"/>
<path d="M2.75598 33.9376C2.57598 33.8476 2.40598 33.7376 2.24598 33.6176C1.94598 33.3876 1.69598 33.0976 1.49598 32.7576C1.45598 32.6976 1.43598 32.6276 1.41598 32.5476C1.02598 30.3576 1.47598 28.3076 2.71598 26.6176C4.07598 24.7676 6.32598 23.5076 8.87598 23.1776C8.97598 23.1676 9.06598 23.1776 9.15598 23.2076C9.47598 23.3276 9.77598 23.4876 10.036 23.6876C11.946 25.1876 11.726 28.5476 9.53598 31.3276C8.52598 32.6176 7.23598 33.5676 5.90598 34.0176C4.72598 34.4176 3.62598 34.3776 2.73598 33.9276L2.75598 33.9376ZM2.60598 32.2176C2.71598 32.3876 2.85598 32.5276 3.00598 32.6476C3.61598 33.1276 4.51598 33.2076 5.52598 32.8676C6.63598 32.4976 7.71598 31.6776 8.58598 30.5776C10.286 28.4076 10.616 25.6976 9.29598 24.6576C9.17598 24.5576 9.03598 24.4776 8.88598 24.4176C6.72598 24.7376 4.84598 25.7976 3.70598 27.3476C2.69598 28.7276 2.31598 30.4076 2.60598 32.2176Z" stroke="#422B08" stroke-width="0.43"/>
<path d="M31.6961 57.0877C31.0261 59.1777 21.8761 58.1077 20.3761 57.6177C18.8761 57.1377 18.2061 55.0577 18.8761 52.9677C19.5461 50.8777 21.3061 49.5777 22.8061 50.0577C24.3061 50.5377 32.3661 54.9977 31.6961 57.0777V57.0877Z" stroke="#422B08" stroke-width="0.43"/>
<path d="M19.786 58.0377C18.246 57.2477 17.576 55.0077 18.286 52.7877C18.646 51.6577 19.316 50.6877 20.156 50.0677C21.066 49.3977 22.066 49.1877 22.986 49.4877C23.786 49.7477 26.236 51.0077 28.406 52.4777C31.396 54.5077 32.666 56.0777 32.276 57.2877C31.366 60.1377 21.336 58.5877 20.186 58.2177C20.046 58.1777 19.916 58.1177 19.786 58.0477V58.0377ZM24.026 51.2977C23.366 50.9577 22.856 50.7277 22.606 50.6477C22.076 50.4777 21.456 50.6177 20.876 51.0477C20.236 51.5177 19.726 52.2677 19.446 53.1577C18.886 54.8877 19.396 56.6677 20.556 57.0377C21.166 57.2377 23.696 57.6377 26.356 57.7077C29.876 57.7977 31.006 57.2177 31.106 56.8977C31.206 56.5777 30.636 55.4577 27.716 53.4777C26.386 52.5777 25.036 51.8077 24.026 51.2877V51.2977Z" stroke="#422B08" stroke-width="0.43"/>
<path d="M24.3054 54.7208C24.9757 52.6332 24.3041 50.5508 22.8055 50.0696C21.3068 49.5885 19.5485 50.8907 18.8783 52.9783C18.208 55.066 18.8796 57.1484 20.3782 57.6295C21.8769 58.1107 23.6352 56.8084 24.3054 54.7208Z" stroke="#422B08" stroke-width="0.43"/>
<path d="M19.786 58.0377C18.246 57.2477 17.576 55.0077 18.286 52.7877C18.646 51.6577 19.316 50.6877 20.156 50.0677C21.066 49.3977 22.066 49.1877 22.986 49.4877C23.906 49.7877 24.606 50.5377 24.946 51.6077C25.266 52.6077 25.246 53.7777 24.886 54.9077C24.526 56.0377 23.856 57.0077 23.016 57.6277C22.116 58.2977 21.106 58.5077 20.186 58.2077C20.046 58.1677 19.916 58.1077 19.786 58.0377ZM22.836 50.7377C22.766 50.6977 22.686 50.6677 22.616 50.6477C22.086 50.4777 21.466 50.6177 20.886 51.0477C20.246 51.5177 19.736 52.2677 19.456 53.1577C18.896 54.8877 19.406 56.6677 20.566 57.0377C21.096 57.2077 21.716 57.0677 22.296 56.6377C22.936 56.1677 23.446 55.4177 23.726 54.5277C24.016 53.6377 24.036 52.7377 23.786 51.9777C23.596 51.3877 23.266 50.9577 22.836 50.7377Z" stroke="#422B08" stroke-width="0.43"/>
<path d="M22.946 54.2777C22.546 55.5177 21.536 56.3077 20.696 56.0377C19.856 55.7677 19.496 54.5377 19.886 53.2977C20.286 52.0577 21.296 51.2677 22.136 51.5377C22.976 51.8077 23.336 53.0377 22.946 54.2777Z" stroke="#422B08" stroke-width="0.43"/>
<path d="M20.246 56.5076C19.246 55.9976 18.836 54.5676 19.306 53.1076C19.536 52.3876 19.946 51.7676 20.466 51.3676C21.046 50.9176 21.726 50.7676 22.326 50.9576C22.926 51.1476 23.386 51.6676 23.596 52.3776C23.786 53.0076 23.756 53.7576 23.526 54.4676C23.016 56.0576 21.686 57.0076 20.506 56.6276C20.416 56.5976 20.326 56.5576 20.246 56.5176V56.5076ZM22.026 52.1576C22.026 52.1576 21.976 52.1376 21.946 52.1276C21.666 52.0376 21.366 52.2176 21.216 52.3376C20.896 52.5876 20.616 53.0076 20.466 53.4876C20.146 54.4676 20.436 55.3176 20.876 55.4576C21.326 55.5976 22.046 55.0776 22.356 54.0976C22.506 53.6176 22.526 53.1176 22.416 52.7176C22.366 52.5476 22.256 52.2676 22.026 52.1576Z" stroke="#422B08" stroke-width="0.43"/>
<path d="M21.7559 21.9476C19.4159 22.1176 16.9159 22.8476 14.3359 24.3776C14.8459 27.9576 17.1759 31.4776 20.7459 34.4376L27.0259 30.2676C24.3759 27.7876 22.2359 24.5876 21.7559 21.9476Z" stroke="#422B08" stroke-width="0.43"/>
<path d="M20.4559 34.9876C20.4559 34.9876 20.3759 34.9476 20.3459 34.9176C16.5859 31.7976 14.2359 28.0876 13.7259 24.4676C13.6959 24.2176 13.8059 23.9776 14.0159 23.8576C16.5259 22.3776 19.1159 21.5276 21.7059 21.3476C22.0159 21.3276 22.2959 21.5376 22.3559 21.8476C22.7859 24.2376 24.7359 27.2876 27.4359 29.8276C27.5759 29.9576 27.6459 30.1376 27.6259 30.3276C27.6059 30.5176 27.5059 30.6876 27.3559 30.7876L21.0759 34.9576C20.8859 35.0776 20.6559 35.0876 20.4559 34.9876ZM15.0059 24.6976C15.5659 27.7776 17.6059 30.9376 20.7859 33.6776L26.0459 30.1776C23.6359 27.7676 21.8659 24.9676 21.2659 22.6076C19.1659 22.8376 17.0659 23.5376 15.0059 24.6976Z" stroke="#422B08" stroke-width="0.43"/>
<path d="M30.2058 37.4536L28.703 40.3803C28.3801 41.0091 28.6281 41.7807 29.2569 42.1036L31.6143 43.3141C32.2432 43.637 33.0148 43.389 33.3377 42.7601L34.8405 39.8334C35.1634 39.2046 34.9154 38.433 34.2865 38.1101L31.9292 36.8996C31.3003 36.5767 30.5287 36.8247 30.2058 37.4536Z" stroke="#422B08" stroke-width="0.43"/>
<path d="M31.856 44.1275L28.456 42.3775C27.816 42.0475 27.566 41.2575 27.896 40.6175L29.936 36.6475C30.266 36.0075 31.056 35.7575 31.696 36.0875L35.096 37.8375C35.736 38.1675 35.986 38.9575 35.666 39.5975L33.626 43.5675C33.296 44.2075 32.506 44.4575 31.866 44.1275H31.856ZM31.126 37.1675C31.126 37.1675 31.036 37.1675 31.016 37.2075L28.976 41.1775C28.976 41.1775 28.976 41.2675 29.016 41.2875L32.416 43.0375C32.416 43.0375 32.506 43.0375 32.526 42.9975L34.566 39.0275C34.566 39.0275 34.566 38.9375 34.526 38.9175L31.126 37.1675Z" stroke="#422B08" stroke-width="0.43"/>
<path d="M36.5417 40.7128L35.0389 43.6395C34.716 44.2684 34.964 45.04 35.5929 45.3629L37.9503 46.5734C38.5791 46.8963 39.3507 46.6483 39.6736 46.0194L41.1764 43.0927C41.4993 42.4638 41.2513 41.6923 40.6225 41.3694L38.2651 40.1589C37.6362 39.836 36.8647 40.084 36.5417 40.7128Z" stroke="#422B08" stroke-width="0.43"/>
<path d="M38.2059 47.3876L34.8059 45.6376C34.1659 45.3076 33.9159 44.5176 34.2359 43.8776L36.2759 39.9076C36.6059 39.2676 37.3959 39.0176 38.0359 39.3476L41.4359 41.0976C42.0759 41.4276 42.3259 42.2176 41.9959 42.8576L39.9559 46.8276C39.6259 47.4676 38.8359 47.7176 38.1959 47.3876H38.2059ZM37.4759 40.4276C37.4759 40.4276 37.3859 40.4276 37.3659 40.4676L35.3259 44.4376C35.3259 44.4376 35.3259 44.5276 35.3659 44.5476L38.7659 46.2976C38.7659 46.2976 38.8559 46.2976 38.8759 46.2576L40.9159 42.2876C40.9159 42.2876 40.9159 42.1976 40.8759 42.1776L37.4759 40.4276Z" stroke="#422B08" stroke-width="0.43"/>
<path d="M42.8925 43.9732L41.3896 46.8999C41.0667 47.5288 41.3147 48.3003 41.9436 48.6233L44.301 49.8337C44.9298 50.1567 45.7014 49.9086 46.0243 49.2798L47.5271 46.3531C47.8501 45.7242 47.602 44.9526 46.9732 44.6297L44.6158 43.4192C43.9869 43.0963 43.2154 43.3443 42.8925 43.9732Z" stroke="#422B08" stroke-width="0.43"/>
<path d="M44.546 50.6476L41.146 48.8976C40.506 48.5676 40.256 47.7776 40.586 47.1376L42.626 43.1676C42.956 42.5276 43.746 42.2776 44.386 42.6076L47.786 44.3576C48.426 44.6876 48.676 45.4776 48.356 46.1176L46.316 50.0876C45.986 50.7276 45.196 50.9776 44.556 50.6476H44.546ZM43.816 43.6876C43.816 43.6876 43.726 43.6876 43.706 43.7276L41.666 47.6976C41.666 47.6976 41.666 47.7876 41.706 47.8076L45.106 49.5576C45.106 49.5576 45.196 49.5576 45.216 49.5176L47.256 45.5476C47.256 45.5476 47.256 45.4576 47.216 45.4376L43.816 43.6876Z" stroke="#422B08" stroke-width="0.43"/>
<path d="M49.243 47.2235L47.7402 50.1502C47.4173 50.779 47.6653 51.5506 48.2942 51.8735L50.6516 53.084C51.2804 53.4069 52.052 53.1589 52.3749 52.53L53.8777 49.6033C54.2006 48.9745 53.9526 48.2029 53.3238 47.88L50.9664 46.6695C50.3375 46.3466 49.566 46.5946 49.243 47.2235Z" stroke="#422B08" stroke-width="0.43"/>
<path d="M50.896 53.9076L47.496 52.1576C46.856 51.8276 46.606 51.0376 46.926 50.3976L48.966 46.4276C49.296 45.7876 50.086 45.5376 50.726 45.8676L54.126 47.6176C54.766 47.9476 55.016 48.7376 54.686 49.3776L52.646 53.3476C52.316 53.9876 51.526 54.2376 50.886 53.9076H50.896ZM50.166 46.9476C50.166 46.9476 50.076 46.9476 50.056 46.9876L48.016 50.9576C48.016 50.9576 48.016 51.0476 48.056 51.0676L51.456 52.8176C51.456 52.8176 51.546 52.8176 51.566 52.7776L53.606 48.8076C53.606 48.8076 53.606 48.7176 53.566 48.6976L50.166 46.9476Z" stroke="#422B08" stroke-width="0.43"/>
<path d="M55.5891 50.4927L54.0863 53.4194C53.7634 54.0483 54.0114 54.8199 54.6402 55.1428L56.9976 56.3533C57.6265 56.6762 58.3981 56.4282 58.721 55.7993L60.2238 52.8726C60.5467 52.2437 60.2987 51.4722 59.6698 51.1493L57.3125 49.9388C56.6836 49.6159 55.912 49.8639 55.5891 50.4927Z" stroke="#422B08" stroke-width="0.43"/>
<path d="M57.236 57.1676L53.836 55.4176C53.196 55.0876 52.946 54.2976 53.276 53.6576L55.316 49.6876C55.646 49.0476 56.436 48.7976 57.076 49.1276L60.476 50.8776C61.116 51.2076 61.366 51.9976 61.046 52.6376L59.006 56.6076C58.676 57.2476 57.886 57.4976 57.246 57.1676H57.236ZM56.516 50.2076C56.516 50.2076 56.426 50.2076 56.406 50.2476L54.366 54.2176C54.366 54.2176 54.366 54.3076 54.406 54.3276L57.806 56.0776C57.806 56.0776 57.896 56.0776 57.916 56.0376L59.956 52.0676C59.956 52.0676 59.956 51.9776 59.916 51.9576L56.516 50.2076Z" stroke="#422B08" stroke-width="0.43"/>
<path d="M21.386 48.6576L33.896 72.3576C34.006 72.5676 34.196 72.7276 34.416 72.8076L40.296 74.7976C40.916 75.0076 41.556 74.5276 41.526 73.8676L40.586 55.0776C40.566 54.7176 40.336 54.3976 39.996 54.2576L22.546 47.3476C21.746 47.0276 20.976 47.8776 21.386 48.6476V48.6576Z" stroke="#422B08" stroke-width="0.43"/>
<path d="M34.006 73.2976C33.726 73.1576 33.496 72.9276 33.346 72.6476L20.836 48.9476C20.536 48.3676 20.616 47.6876 21.056 47.1976C21.496 46.7076 22.166 46.5576 22.766 46.7976L40.216 53.7076C40.776 53.9276 41.156 54.4576 41.186 55.0676L42.126 73.8576C42.156 74.3676 41.926 74.8576 41.516 75.1676C41.106 75.4776 40.576 75.5576 40.096 75.3976L34.216 73.4076C34.146 73.3876 34.076 73.3576 34.006 73.3176V73.2976ZM39.806 54.8476C39.806 54.8476 39.786 54.8476 39.776 54.8376L22.326 47.9276C22.136 47.8576 22.016 47.9576 21.976 48.0076C21.936 48.0576 21.836 48.1876 21.936 48.3676L34.446 72.0676C34.486 72.1376 34.546 72.1976 34.626 72.2176L40.506 74.2076C40.646 74.2576 40.746 74.2076 40.796 74.1576C40.846 74.1176 40.926 74.0376 40.926 73.8876L39.986 55.0976C39.986 54.9876 39.916 54.8876 39.816 54.8276L39.806 54.8476Z" stroke="#422B08" stroke-width="0.43"/>
<path d="M55.286 58.7176L65.066 65.8476C65.506 66.1676 66.086 65.7176 65.886 65.2076L63.526 59.2676C63.456 59.0876 63.296 58.9676 63.106 58.9376L55.686 57.7376C55.126 57.6476 54.826 58.3676 55.286 58.7076V58.7176Z" stroke="#422B08" stroke-width="0.43"/>
<path d="M64.856 66.4376C64.806 66.4076 64.746 66.3776 64.696 66.3376L54.916 59.2076C54.476 58.8876 54.326 58.3376 54.536 57.8376C54.746 57.3376 55.246 57.0576 55.786 57.1476L63.2059 58.3476C63.6059 58.4076 63.946 58.6876 64.096 59.0576L66.4559 64.9876C66.6459 65.4676 66.5059 66.0076 66.0959 66.3276C65.7359 66.6076 65.266 66.6476 64.866 66.4476L64.856 66.4376ZM55.8859 58.3976L65.226 65.2076L62.966 59.5476L55.8859 58.4076V58.3976Z" stroke="#422B08" stroke-width="0.43"/>
<path d="M57.096 44.4976L73.016 40.1976C73.376 40.0976 73.766 40.1576 74.086 40.3476L77.156 42.1876C77.876 42.6176 78.046 43.5776 77.526 44.2376L70.066 53.6076C69.636 54.1476 68.866 54.2876 68.276 53.9276L56.746 47.0176C55.696 46.3876 55.916 44.8176 57.096 44.4976Z" stroke="#422B08" stroke-width="0.43"/>
<path d="M67.036 53.1875L68.276 53.9275C68.866 54.2875 69.636 54.1475 70.066 53.6075L77.526 44.2375C78.046 43.5875 77.876 42.6175 77.156 42.1875L76.576 41.8375L67.036 53.1875Z" stroke="#422B08" stroke-width="0.43"/>
<path d="M68.216 54.2476C68.216 54.2476 68.156 54.2176 68.116 54.1976L56.586 47.2876C55.996 46.9376 55.686 46.2876 55.786 45.6076C55.886 44.9276 56.356 44.3876 57.016 44.2076L72.936 39.9076C73.376 39.7876 73.846 39.8576 74.246 40.0876L77.316 41.9276C77.736 42.1776 78.026 42.5976 78.106 43.0776C78.196 43.5576 78.066 44.0476 77.766 44.4276L70.306 53.7976C69.806 54.4276 68.926 54.6076 68.216 54.2476ZM73.866 40.5776C73.626 40.4576 73.346 40.4276 73.096 40.4976L57.176 44.7976C56.666 44.9376 56.436 45.3476 56.386 45.6876C56.336 46.0276 56.446 46.4876 56.896 46.7576L68.426 53.6676C68.886 53.9476 69.486 53.8376 69.826 53.4176L77.286 44.0476C77.476 43.8076 77.556 43.4876 77.506 43.1876C77.446 42.8776 77.266 42.6176 76.996 42.4576L73.926 40.6176C73.926 40.6176 73.886 40.5976 73.866 40.5876V40.5776Z" stroke="#422B08" stroke-width="0.43"/>
<path d="M36.896 31.9675L54.606 27.7275C54.996 27.6375 55.416 27.7075 55.756 27.9275L57.576 29.1075C58.326 29.5975 58.476 30.6275 57.906 31.3075L50.106 40.5875C49.656 41.1275 48.896 41.2675 48.276 40.9475L36.546 34.7275C35.336 34.0875 35.566 32.2875 36.896 31.9675Z" stroke="#422B08" stroke-width="0.43"/>
<path d="M48.146 41.2175C48.146 41.2175 48.136 41.2175 48.126 41.2075L36.396 34.9875C35.736 34.6375 35.366 33.9275 35.456 33.1775C35.546 32.4275 36.086 31.8375 36.816 31.6575L54.526 27.4175C54.996 27.3075 55.506 27.3875 55.916 27.6575L57.736 28.8375C58.166 29.1175 58.456 29.5675 58.536 30.0775C58.616 30.5875 58.466 31.0975 58.136 31.4975L50.336 40.7775C49.806 41.4175 48.886 41.5975 48.146 41.2175ZM55.496 28.1275C55.246 27.9975 54.956 27.9675 54.686 28.0275L36.976 32.2675C36.396 32.4075 36.126 32.8775 36.086 33.2675C36.036 33.6575 36.176 34.1775 36.706 34.4575L48.436 40.6775C48.436 40.6775 48.436 40.6775 48.446 40.6775C48.936 40.9275 49.536 40.8075 49.886 40.3875L57.686 31.1075C57.906 30.8475 57.996 30.5075 57.946 30.1775C57.896 29.8475 57.706 29.5475 57.416 29.3675L55.596 28.1875C55.596 28.1875 55.526 28.1475 55.496 28.1275Z" stroke="#422B08" stroke-width="0.43"/>
<path d="M63.226 60.2075C68.016 59.8475 75.676 57.1975 70.626 53.4775L37.376 31.3275C34.796 25.6175 25.256 17.8275 14.206 24.4475C4.47602 20.6975 -6.06398 31.7075 10.806 43.4075C21.316 50.1575 45.816 62.9875 63.226 60.2075Z" stroke="#422B08" stroke-width="0.43"/>
<path d="M70.646 53.4875C59.226 61.2375 27.876 47.7476 15.656 38.7275C8.59603 34.1275 6.38603 28.5975 7.05603 24.2375C0.876031 26.3775 -1.75397 34.6975 10.806 43.4075C21.316 50.1575 45.816 62.9875 63.226 60.2075C68.016 59.8475 75.666 57.2075 70.636 53.4875H70.646Z" stroke="#422B08" stroke-width="0.43"/>
<path d="M63.226 60.2075C67.126 59.9175 72.936 58.0975 72.226 55.4275C59.636 63.1075 42.766 57.0375 29.226 51.1575C13.696 45.0875 3.426 35.8075 3.786 31.9775L1.896 31.0575C1.896 34.5475 4.336 38.9275 10.806 43.4075C21.316 50.1575 45.816 62.9875 63.226 60.2075Z" stroke="#422B08" stroke-width="0.43"/>
<path d="M29.626 23.9175C28.836 23.5075 27.996 23.1575 27.116 22.8875C22.946 21.5775 18.536 22.2075 14.366 24.7075C14.286 24.7575 14.186 24.7675 14.096 24.7275C9.70598 23.0375 4.80598 24.4575 2.94598 27.9675C0.615975 32.3775 3.61597 38.0475 10.976 43.1575C14.166 45.2075 42.856 63.1475 63.176 59.9075C63.176 59.9075 63.196 59.9075 63.206 59.9075C66.496 59.6575 71.356 58.2575 71.926 56.2575C72.156 55.4675 71.656 54.6175 70.446 53.7275L37.206 31.5775C37.206 31.5775 37.116 31.4975 37.096 31.4475C35.926 28.8575 33.256 25.7775 29.626 23.9075V23.9175ZM52.346 61.1475C41.176 59.7375 29.356 54.5875 21.416 50.5075C15.596 47.5175 11.446 44.9075 10.316 44.1875H10.296C-1.44402 36.0275 0.875975 29.2775 1.87598 27.3975C3.57598 24.1675 7.55597 22.3575 11.766 22.8875C12.566 22.9875 13.356 23.1675 14.126 23.4375C17.546 21.4775 21.216 20.6775 24.736 21.1175C25.656 21.2375 26.586 21.4375 27.486 21.7175C32.626 23.3275 36.496 27.3575 38.106 30.7075L71.156 52.7275H71.166C72.836 53.9675 73.486 55.2675 73.106 56.5975C72.736 57.8775 71.406 58.9775 69.136 59.8475C67.436 60.4975 65.266 60.9775 63.336 61.1275C60.046 61.6475 56.346 61.6575 52.346 61.1575V61.1475Z" stroke="#422B08" stroke-width="0.43"/>
<path d="M9.07597 30.9476C11.026 28.4776 11.296 25.4376 9.67597 24.1676C9.45597 23.9976 9.21597 23.8676 8.96597 23.7776C4.57597 24.3576 1.20597 27.7676 2.02597 32.4376C2.18597 32.7076 2.38597 32.9376 2.62597 33.1276C4.23597 34.3976 7.12597 33.4176 9.06597 30.9476H9.07597Z" stroke="#422B08" stroke-width="0.43"/>
<path d="M2.89601 33.6575C2.73601 33.5775 2.58601 33.4775 2.44601 33.3675C2.17601 33.1575 1.94601 32.8975 1.76601 32.5875C1.74601 32.5575 1.73601 32.5175 1.72601 32.4875C1.35601 30.3775 1.78601 28.4075 2.97601 26.7975C4.28601 25.0075 6.45601 23.7975 8.92601 23.4775C8.97601 23.4775 9.02601 23.4775 9.06601 23.4975C9.35601 23.5975 9.62601 23.7475 9.86601 23.9375C11.606 25.3075 11.366 28.5375 9.31601 31.1475C8.33601 32.3875 7.09601 33.3075 5.82601 33.7375C4.72601 34.1075 3.70601 34.0775 2.89601 33.6675V33.6575ZM2.31601 32.3275C2.45601 32.5475 2.62601 32.7375 2.81601 32.8875C3.51601 33.4375 4.50601 33.5275 5.62601 33.1475C6.78601 32.7575 7.92601 31.9075 8.82601 30.7575C10.666 28.4175 10.956 25.5775 9.47601 24.4075C9.30601 24.2775 9.12601 24.1675 8.91601 24.0875C6.64601 24.3975 4.65601 25.5175 3.45601 27.1475C2.37601 28.6075 1.98601 30.3975 2.30601 32.3175L2.31601 32.3275Z" stroke="#422B08" stroke-width="0.43"/>
<path d="M31.6959 57.0875C31.0259 59.1775 21.8759 58.1075 20.3759 57.6175C18.8759 57.1375 18.2059 55.0575 18.8759 52.9675C19.5459 50.8775 21.3059 49.5775 22.8059 50.0575C24.3059 50.5375 32.3659 54.9975 31.6959 57.0775V57.0875Z" stroke="#422B08" stroke-width="0.43"/>
<path d="M19.926 57.7676C18.516 57.0476 17.916 54.9576 18.586 52.8776C18.926 51.8076 19.556 50.8976 20.346 50.3076C21.166 49.6976 22.076 49.5076 22.896 49.7676C23.676 50.0176 26.086 51.2576 28.236 52.7176C31.066 54.6276 32.326 56.1276 31.986 57.1776C31.196 59.6576 21.626 58.3376 20.286 57.9076C20.166 57.8676 20.046 57.8176 19.926 57.7576V57.7676ZM24.136 51.0076C23.496 50.6776 22.976 50.4476 22.706 50.3576C22.076 50.1576 21.366 50.3176 20.706 50.7976C20.016 51.3076 19.466 52.1076 19.166 53.0576C18.546 54.9776 19.136 56.8976 20.476 57.3276C22.136 57.8576 30.866 58.6876 31.406 56.9876C31.636 56.2776 30.326 54.8676 27.896 53.2176C26.606 52.3476 25.206 51.5376 24.146 50.9976L24.136 51.0076Z" stroke="#422B08" stroke-width="0.43"/>
<path d="M24.3054 54.7207C24.9757 52.6331 24.3041 50.5507 22.8055 50.0695C21.3068 49.5883 19.5485 50.8906 18.8783 52.9782C18.208 55.0658 18.8796 57.1482 20.3782 57.6294C21.8769 58.1106 23.6352 56.8083 24.3054 54.7207Z" stroke="#422B08" stroke-width="0.43"/>
<path d="M19.926 57.7675C18.516 57.0475 17.916 54.9575 18.586 52.8775C18.926 51.8075 19.556 50.8975 20.346 50.3075C21.166 49.6975 22.076 49.5075 22.896 49.7675C23.716 50.0275 24.346 50.7175 24.656 51.6875C24.956 52.6275 24.936 53.7375 24.596 54.7975C24.256 55.8675 23.626 56.7775 22.836 57.3675C22.016 57.9775 21.106 58.1675 20.286 57.9075C20.166 57.8675 20.046 57.8175 19.926 57.7575V57.7675ZM22.976 50.4675C22.886 50.4275 22.796 50.3875 22.706 50.3575C22.076 50.1575 21.366 50.3175 20.706 50.7975C20.016 51.3075 19.466 52.1075 19.166 53.0575C18.546 54.9775 19.126 56.8975 20.476 57.3275C21.106 57.5275 21.816 57.3675 22.476 56.8875C23.166 56.3775 23.716 55.5775 24.016 54.6275C24.316 53.6775 24.346 52.7075 24.076 51.8875C23.856 51.2175 23.476 50.7275 22.976 50.4775V50.4675Z" stroke="#422B08" stroke-width="0.43"/>
<path d="M22.946 54.2775C22.546 55.5175 21.536 56.3075 20.696 56.0375C19.856 55.7675 19.496 54.5375 19.886 53.2975C20.286 52.0575 21.296 51.2675 22.136 51.5375C22.976 51.8075 23.336 53.0375 22.946 54.2775Z" stroke="#422B08" stroke-width="0.43"/>
<path d="M20.386 56.2375C19.526 55.7975 19.176 54.5175 19.606 53.2075C19.816 52.5475 20.196 51.9775 20.666 51.6175C21.176 51.2175 21.736 51.0875 22.236 51.2575C22.746 51.4175 23.126 51.8475 23.306 52.4675C23.476 53.0475 23.456 53.7275 23.236 54.3775C22.776 55.7975 21.616 56.6575 20.596 56.3375C20.516 56.3175 20.446 56.2875 20.376 56.2475L20.386 56.2375ZM22.166 51.8775C22.166 51.8775 22.086 51.8375 22.046 51.8275C21.736 51.7275 21.376 51.8275 21.036 52.0875C20.656 52.3775 20.356 52.8475 20.176 53.3875C19.836 54.4475 20.116 55.5275 20.786 55.7475C21.456 55.9675 22.306 55.2475 22.656 54.1875C22.826 53.6475 22.856 53.0875 22.716 52.6375C22.606 52.2775 22.416 52.0175 22.166 51.8875V51.8775Z" stroke="#422B08" stroke-width="0.43"/>
<path d="M21.7561 21.9476C19.4161 22.1176 16.9161 22.8476 14.3361 24.3776C14.8461 27.9576 17.1761 31.4776 20.7461 34.4376L27.0261 30.2676C24.3761 27.7876 22.2361 24.5876 21.7561 21.9476Z" stroke="#422B08" stroke-width="0.43"/>
<path d="M20.596 34.7176C20.596 34.7176 20.556 34.6976 20.536 34.6776C16.836 31.6076 14.526 27.9676 14.026 24.4176C14.006 24.2976 14.066 24.1776 14.176 24.1076C16.646 22.6476 19.186 21.8176 21.726 21.6376C21.886 21.6276 22.026 21.7376 22.046 21.8876C22.486 24.3376 24.466 27.4576 27.216 30.0376C27.286 30.0976 27.316 30.1976 27.316 30.2876C27.316 30.3776 27.256 30.4676 27.176 30.5176L20.896 34.6876C20.806 34.7476 20.686 34.7576 20.586 34.7076L20.596 34.7176ZM14.666 24.5376C15.196 27.8076 17.346 31.1776 20.756 34.0576L26.526 30.2276C23.926 27.7076 22.036 24.7176 21.506 22.2776C19.216 22.4776 16.916 23.2376 14.666 24.5376Z" stroke="#422B08" stroke-width="0.43"/>
<path d="M30.2058 37.4536L28.703 40.3803C28.3801 41.0091 28.6281 41.7807 29.2569 42.1036L31.6143 43.3141C32.2432 43.637 33.0148 43.389 33.3377 42.7601L34.8405 39.8334C35.1634 39.2046 34.9154 38.433 34.2865 38.1101L31.9292 36.8996C31.3003 36.5767 30.5287 36.8247 30.2058 37.4536Z" stroke="#422B08" stroke-width="0.43"/>
<path d="M31.996 43.8575L28.596 42.1075C28.106 41.8575 27.916 41.2475 28.166 40.7575L30.206 36.7875C30.456 36.2975 31.066 36.1075 31.556 36.3575L34.956 38.1075C35.446 38.3575 35.636 38.9675 35.386 39.4575L33.346 43.4275C33.096 43.9175 32.486 44.1075 31.996 43.8575ZM31.266 36.8975C31.076 36.7975 30.846 36.8775 30.746 37.0675L28.706 41.0375C28.606 41.2275 28.686 41.4575 28.876 41.5575L32.276 43.3075C32.466 43.4075 32.696 43.3275 32.796 43.1375L34.836 39.1675C34.936 38.9775 34.856 38.7475 34.666 38.6475L31.266 36.8975Z" stroke="#422B08" stroke-width="0.43"/>
<path d="M36.5419 40.7128L35.039 43.6395C34.7161 44.2684 34.9641 45.04 35.593 45.3629L37.9504 46.5734C38.5792 46.8963 39.3508 46.6483 39.6737 46.0194L41.1766 43.0927C41.4995 42.4638 41.2514 41.6923 40.6226 41.3694L38.2652 40.1589C37.6363 39.836 36.8648 40.084 36.5419 40.7128Z" stroke="#422B08" stroke-width="0.43"/>
<path d="M38.346 47.1176L34.946 45.3676C34.456 45.1176 34.266 44.5076 34.516 44.0176L36.556 40.0476C36.806 39.5576 37.416 39.3676 37.906 39.6176L41.306 41.3676C41.796 41.6176 41.986 42.2276 41.736 42.7176L39.696 46.6876C39.446 47.1776 38.836 47.3676 38.346 47.1176ZM37.616 40.1576C37.426 40.0576 37.196 40.1376 37.096 40.3276L35.056 44.2976C34.956 44.4876 35.036 44.7176 35.226 44.8176L38.626 46.5676C38.816 46.6676 39.046 46.5876 39.146 46.3976L41.186 42.4276C41.286 42.2376 41.206 42.0076 41.016 41.9076L37.616 40.1576Z" stroke="#422B08" stroke-width="0.43"/>
<path d="M42.8925 43.9732L41.3896 46.8999C41.0667 47.5288 41.3147 48.3003 41.9436 48.6233L44.301 49.8337C44.9298 50.1567 45.7014 49.9086 46.0243 49.2798L47.5271 46.3531C47.8501 45.7242 47.602 44.9526 46.9732 44.6297L44.6158 43.4192C43.9869 43.0963 43.2154 43.3443 42.8925 43.9732Z" stroke="#422B08" stroke-width="0.43"/>
<path d="M44.686 50.3776L41.286 48.6276C40.796 48.3776 40.606 47.7676 40.856 47.2776L42.896 43.3076C43.146 42.8176 43.756 42.6276 44.246 42.8776L47.646 44.6276C48.136 44.8776 48.326 45.4876 48.076 45.9776L46.036 49.9476C45.786 50.4376 45.176 50.6276 44.686 50.3776ZM43.956 43.4176C43.766 43.3176 43.536 43.3976 43.436 43.5876L41.396 47.5576C41.296 47.7476 41.376 47.9776 41.566 48.0776L44.966 49.8276C45.156 49.9276 45.386 49.8476 45.486 49.6576L47.526 45.6876C47.626 45.4976 47.546 45.2676 47.356 45.1676L43.956 43.4176Z" stroke="#422B08" stroke-width="0.43"/>
<path d="M49.243 47.2235L47.7402 50.1502C47.4173 50.779 47.6653 51.5506 48.2942 51.8735L50.6516 53.084C51.2804 53.4069 52.052 53.1589 52.3749 52.53L53.8777 49.6033C54.2006 48.9745 53.9526 48.2029 53.3238 47.88L50.9664 46.6695C50.3375 46.3466 49.566 46.5946 49.243 47.2235Z" stroke="#422B08" stroke-width="0.43"/>
<path d="M51.0359 53.6276L47.6359 51.8776C47.1459 51.6276 46.9559 51.0176 47.2059 50.5276L49.2459 46.5576C49.4959 46.0676 50.1059 45.8776 50.5959 46.1276L53.9959 47.8776C54.4859 48.1276 54.6759 48.7376 54.4259 49.2276L52.3859 53.1976C52.1359 53.6876 51.5259 53.8776 51.0359 53.6276ZM50.3059 46.6776C50.1159 46.5776 49.8859 46.6576 49.7859 46.8476L47.7459 50.8176C47.6459 51.0076 47.7259 51.2376 47.9159 51.3376L51.3159 53.0876C51.5059 53.1876 51.7359 53.1076 51.8359 52.9176L53.8759 48.9476C53.9759 48.7576 53.8959 48.5276 53.7059 48.4276L50.3059 46.6776Z" stroke="#422B08" stroke-width="0.43"/>
<path d="M55.5891 50.4927L54.0863 53.4194C53.7634 54.0483 54.0114 54.8199 54.6402 55.1428L56.9976 56.3533C57.6265 56.6762 58.3981 56.4282 58.721 55.7993L60.2238 52.8726C60.5467 52.2437 60.2987 51.4722 59.6698 51.1493L57.3125 49.9388C56.6836 49.6159 55.912 49.8639 55.5891 50.4927Z" stroke="#422B08" stroke-width="0.43"/>
<path d="M57.376 56.8876L53.976 55.1376C53.486 54.8876 53.296 54.2776 53.546 53.7876L55.586 49.8176C55.836 49.3276 56.446 49.1376 56.936 49.3876L60.336 51.1376C60.826 51.3876 61.016 51.9976 60.766 52.4876L58.726 56.4576C58.476 56.9476 57.866 57.1376 57.376 56.8876ZM56.646 49.9376C56.456 49.8376 56.226 49.9176 56.126 50.1076L54.086 54.0776C53.986 54.2676 54.066 54.4976 54.256 54.5976L57.656 56.3476C57.846 56.4476 58.076 56.3676 58.176 56.1776L60.216 52.2076C60.316 52.0176 60.236 51.7876 60.046 51.6876L56.646 49.9376Z" stroke="#422B08" stroke-width="0.43"/>
<path d="M34.156 73.0276C33.936 72.9076 33.746 72.7276 33.626 72.5076L21.116 48.8076C20.876 48.3476 20.936 47.7976 21.286 47.4076C21.636 47.0176 22.176 46.8876 22.656 47.0876L40.106 53.9976C40.556 54.1776 40.856 54.5976 40.886 55.0876L41.826 73.8776C41.846 74.2876 41.666 74.6776 41.336 74.9276C41.006 75.1776 40.586 75.2476 40.196 75.1076L34.316 73.1176C34.256 73.0976 34.196 73.0776 34.146 73.0476L34.156 73.0276Z" stroke="#422B08" stroke-width="0.43"/>
<path d="M40.5759 74.1376C40.5759 74.1376 40.5459 74.1376 40.5259 74.1276L34.6459 72.1376C34.5959 72.1176 34.5559 72.0876 34.5259 72.0376L22.0159 48.3376C21.9559 48.2176 22.0159 48.1376 22.0459 48.0976C22.0659 48.0776 22.1259 48.0176 22.2259 48.0276C22.2459 48.0276 22.2659 48.0276 22.2859 48.0476L39.7359 54.9576H39.7559C39.8259 54.9976 39.8659 55.0676 39.8759 55.1476L40.8159 73.9376C40.8159 74.0076 40.7859 74.0776 40.7359 74.1176C40.6859 74.1576 40.6359 74.1676 40.5859 74.1576L40.5759 74.1376Z" stroke="#422B08" stroke-width="0.43"/>
<path d="M55.286 58.7176L65.066 65.8476C65.506 66.1676 66.086 65.7176 65.886 65.2076L63.526 59.2676C63.456 59.0876 63.296 58.9676 63.106 58.9376L55.686 57.7376C55.126 57.6476 54.826 58.3676 55.286 58.7076V58.7176Z" stroke="#422B08" stroke-width="0.43"/>
<path d="M64.9959 66.1675C64.9959 66.1675 64.9159 66.1275 64.8859 66.0975L55.1059 58.9675C54.7859 58.7275 54.6659 58.3275 54.8259 57.9575C54.9759 57.5875 55.3459 57.3875 55.7459 57.4475L63.1659 58.6475C63.4559 58.6975 63.7059 58.8975 63.8159 59.1675L66.1759 65.1075C66.3159 65.4575 66.2059 65.8575 65.9059 66.0875C65.6459 66.2975 65.2959 66.3175 65.0059 66.1775L64.9959 66.1675ZM63.1259 59.2675C63.1259 59.2675 63.0859 59.2475 63.0559 59.2475L55.6359 58.0475C55.4659 58.0175 55.3959 58.1475 55.3859 58.1875C55.3659 58.2275 55.3259 58.3675 55.4659 58.4675L65.2459 65.5975C65.3759 65.6975 65.4959 65.6175 65.5259 65.5975C65.5559 65.5675 65.6559 65.4775 65.5959 65.3275L63.2359 59.3875C63.2159 59.3375 63.1759 59.2875 63.1259 59.2675Z" stroke="#422B08" stroke-width="0.43"/>
<path d="M57.096 44.4976L73.016 40.1976C73.376 40.0976 73.766 40.1576 74.086 40.3476L77.156 42.1876C77.876 42.6176 78.046 43.5776 77.526 44.2376L70.066 53.6076C69.636 54.1476 68.866 54.2876 68.276 53.9276L56.746 47.0176C55.696 46.3876 55.916 44.8176 57.096 44.4976Z" fill="#0075C1"/>
<path d="M67.036 53.1876L68.276 53.9276C68.866 54.2876 69.636 54.1476 70.066 53.6076L77.526 44.2376C78.046 43.5876 77.876 42.6176 77.156 42.1876L76.576 41.8376L67.036 53.1876Z" fill="#005BAB"/>
<path d="M68.076 54.5176C68.076 54.5176 67.996 54.4776 67.966 54.4576L56.436 47.5476C55.736 47.1276 55.376 46.3676 55.486 45.5576C55.596 44.7476 56.156 44.1176 56.946 43.9076L72.866 39.6076C73.386 39.4676 73.946 39.5476 74.406 39.8176L77.476 41.6576C77.966 41.9576 78.3159 42.4476 78.4159 43.0176C78.5159 43.5876 78.376 44.1676 78.016 44.6176L70.5559 53.9876C69.9659 54.7276 68.916 54.9476 68.086 54.5176H68.076ZM73.726 40.8476C73.556 40.7576 73.356 40.7376 73.176 40.7876L57.256 45.0876C56.796 45.2076 56.706 45.6076 56.696 45.7276C56.676 45.8476 56.656 46.2476 57.066 46.4976L68.5959 53.4076C68.9359 53.6076 69.3559 53.5276 69.5959 53.2276L77.0559 43.8576C77.1959 43.6776 77.256 43.4576 77.216 43.2376C77.176 43.0176 77.046 42.8276 76.856 42.7176L73.786 40.8776C73.786 40.8776 73.756 40.8576 73.746 40.8576L73.726 40.8476Z" fill="#422B08"/>
<path d="M36.896 31.9676L54.606 27.7276C54.996 27.6376 55.416 27.7076 55.756 27.9276L57.576 29.1076C58.326 29.5976 58.476 30.6276 57.906 31.3076L50.106 40.5876C49.656 41.1276 48.896 41.2676 48.276 40.9476L36.546 34.7276C35.336 34.0876 35.566 32.2876 36.896 31.9676Z" fill="white"/>
<path d="M48.0059 41.4876C48.0059 41.4876 47.9859 41.4876 47.9859 41.4776L36.2559 35.2576C35.4759 34.8476 35.0459 34.0176 35.1559 33.1376C35.2659 32.2676 35.8959 31.5676 36.7459 31.3676L54.4559 27.1276C55.0059 26.9976 55.6059 27.0976 56.0859 27.4076L57.9059 28.5876C58.4059 28.9176 58.7559 29.4476 58.8359 30.0376C58.9259 30.6276 58.7559 31.2376 58.3659 31.6976L50.5659 40.9776C49.9359 41.7176 48.8659 41.9376 48.0059 41.4976V41.4876ZM55.3559 28.3976C55.1759 28.3076 54.9559 28.2776 54.7559 28.3276L37.0459 32.5676C36.5059 32.6976 36.4059 33.1676 36.3859 33.3076C36.3659 33.4476 36.3459 33.9276 36.8459 34.1876L48.5759 40.4076C48.5759 40.4076 48.5759 40.4076 48.5859 40.4076C48.9459 40.5876 49.3959 40.5076 49.6559 40.1976L57.4559 30.9176C57.6159 30.7276 57.6859 30.4776 57.6559 30.2276C57.6159 29.9776 57.4759 29.7576 57.2659 29.6276L55.4459 28.4476C55.4459 28.4476 55.3959 28.4176 55.3759 28.4076L55.3559 28.3976Z" fill="#422B08"/>
<path d="M63.226 60.2077C68.016 59.8477 75.676 57.1977 70.626 53.4777L37.376 31.3277C34.796 25.6177 25.256 17.8277 14.206 24.4477C4.47602 20.6977 -6.06398 31.7077 10.806 43.4077C21.316 50.1577 45.816 62.9877 63.226 60.2077Z" fill="white"/>
<path d="M70.646 53.4875C59.226 61.2375 27.876 47.7476 15.656 38.7275C8.59603 34.1276 6.38603 28.5975 7.05603 24.2375C0.876031 26.3775 -1.75397 34.6975 10.806 43.4075C21.316 50.1575 45.816 62.9875 63.226 60.2075C68.016 59.8475 75.666 57.2076 70.636 53.4875H70.646Z" fill="#54C2F0"/>
<path d="M63.226 60.2076C67.126 59.9176 72.936 58.0976 72.226 55.4276C59.636 63.1076 42.766 57.0376 29.226 51.1576C13.696 45.0876 3.426 35.8076 3.786 31.9776L1.896 31.0576C1.896 34.5476 4.336 38.9276 10.806 43.4076C21.316 50.1576 45.816 62.9876 63.226 60.2076Z" fill="#49A9D1"/>
<path d="M21.5359 50.2376C16.0759 47.4376 12.0459 44.9276 10.4759 43.9176C10.4759 43.9176 10.4659 43.9176 10.4559 43.9076C-1.06407 35.9176 1.17593 29.3576 2.14593 27.5376C3.14593 25.6476 4.93593 24.2276 7.19593 23.5376C9.39593 22.8676 11.8559 22.9476 14.1559 23.7676C18.4759 21.2576 23.0459 20.6476 27.3959 22.0076C32.4959 23.6076 36.3059 27.5976 37.8659 30.9076L70.9759 52.9676C70.9759 52.9676 70.9959 52.9776 70.9959 52.9876C72.5459 54.1276 73.1559 55.3076 72.8059 56.5076C72.0359 59.1776 66.5759 60.5676 63.2959 60.8176C55.5559 62.0476 45.7759 60.4076 34.2059 55.9576C29.5359 54.1576 25.2159 52.1376 21.5359 50.2476V50.2376ZM11.1459 42.8976C14.3859 44.9776 42.9359 62.8276 63.1359 59.5976C63.1559 59.5976 63.1659 59.5976 63.1859 59.5976C66.7959 59.3276 71.1559 57.8476 71.6359 56.1676C71.8259 55.5176 71.3659 54.7776 70.2859 53.9776L37.0359 31.8376C36.9359 31.7776 36.8659 31.6876 36.8159 31.5776C35.4159 28.4876 31.8459 24.6876 27.0259 23.1776C22.9359 21.8976 18.6159 22.5176 14.5259 24.9676C14.3659 25.0676 14.1659 25.0776 13.9959 25.0176C9.74593 23.3776 5.01593 24.7376 3.22593 28.1176C2.24593 29.9776 2.27593 32.1876 3.31593 34.5176C4.57593 37.3476 7.21593 40.1676 11.1459 42.8976Z" fill="#422B08"/>
<path d="M9.07597 30.9476C11.026 28.4776 11.296 25.4376 9.67597 24.1676C9.45597 23.9976 9.21597 23.8676 8.96597 23.7776C4.57597 24.3576 1.20597 27.7676 2.02597 32.4376C2.18597 32.7076 2.38597 32.9376 2.62597 33.1276C4.23597 34.3976 7.12597 33.4176 9.06597 30.9476H9.07597Z" fill="white"/>
<path d="M2.75598 33.9376C2.57598 33.8476 2.40598 33.7376 2.24598 33.6176C1.94598 33.3876 1.69598 33.0976 1.49598 32.7576C1.45598 32.6976 1.43598 32.6276 1.41598 32.5476C1.02598 30.3576 1.47598 28.3076 2.71598 26.6176C4.07598 24.7676 6.32598 23.5076 8.87598 23.1776C8.97598 23.1676 9.06598 23.1776 9.15598 23.2076C9.47598 23.3276 9.77598 23.4876 10.036 23.6876C11.946 25.1876 11.726 28.5476 9.53598 31.3276C8.52598 32.6176 7.23598 33.5676 5.90598 34.0176C4.72598 34.4176 3.62598 34.3776 2.73598 33.9276L2.75598 33.9376ZM2.60598 32.2176C2.71598 32.3876 2.85598 32.5276 3.00598 32.6476C3.61598 33.1276 4.51598 33.2076 5.52598 32.8676C6.63598 32.4976 7.71598 31.6776 8.58598 30.5776C10.286 28.4076 10.616 25.6976 9.29598 24.6576C9.17598 24.5576 9.03598 24.4776 8.88598 24.4176C6.72598 24.7376 4.84598 25.7976 3.70598 27.3476C2.69598 28.7276 2.31598 30.4076 2.60598 32.2176Z" fill="#422B08"/>
<path d="M31.6961 57.0877C31.0261 59.1777 21.8761 58.1077 20.3761 57.6177C18.8761 57.1377 18.2061 55.0577 18.8761 52.9677C19.5461 50.8777 21.3061 49.5777 22.8061 50.0577C24.3061 50.5377 32.3661 54.9977 31.6961 57.0777V57.0877Z" fill="white"/>
<path d="M19.786 58.0377C18.246 57.2477 17.576 55.0077 18.286 52.7877C18.646 51.6577 19.316 50.6877 20.156 50.0677C21.066 49.3977 22.066 49.1877 22.986 49.4877C23.786 49.7477 26.236 51.0077 28.406 52.4777C31.396 54.5077 32.666 56.0777 32.276 57.2877C31.366 60.1377 21.336 58.5877 20.186 58.2177C20.046 58.1777 19.916 58.1177 19.786 58.0477V58.0377ZM24.026 51.2977C23.366 50.9577 22.856 50.7277 22.606 50.6477C22.076 50.4777 21.456 50.6177 20.876 51.0477C20.236 51.5177 19.726 52.2677 19.446 53.1577C18.886 54.8877 19.396 56.6677 20.556 57.0377C21.166 57.2377 23.696 57.6377 26.356 57.7077C29.876 57.7977 31.006 57.2177 31.106 56.8977C31.206 56.5777 30.636 55.4577 27.716 53.4777C26.386 52.5777 25.036 51.8077 24.026 51.2877V51.2977Z" fill="#422B08"/>
<path d="M24.3054 54.7208C24.9757 52.6332 24.3041 50.5508 22.8055 50.0696C21.3068 49.5885 19.5485 50.8907 18.8783 52.9783C18.208 55.066 18.8796 57.1484 20.3782 57.6295C21.8769 58.1107 23.6352 56.8084 24.3054 54.7208Z" fill="white"/>
<path d="M19.786 58.0377C18.246 57.2477 17.576 55.0077 18.286 52.7877C18.646 51.6577 19.316 50.6877 20.156 50.0677C21.066 49.3977 22.066 49.1877 22.986 49.4877C23.906 49.7877 24.606 50.5377 24.946 51.6077C25.266 52.6077 25.246 53.7777 24.886 54.9077C24.526 56.0377 23.856 57.0077 23.016 57.6277C22.116 58.2977 21.106 58.5077 20.186 58.2077C20.046 58.1677 19.916 58.1077 19.786 58.0377ZM22.836 50.7377C22.766 50.6977 22.686 50.6677 22.616 50.6477C22.086 50.4777 21.466 50.6177 20.886 51.0477C20.246 51.5177 19.736 52.2677 19.456 53.1577C18.896 54.8877 19.406 56.6677 20.566 57.0377C21.096 57.2077 21.716 57.0677 22.296 56.6377C22.936 56.1677 23.446 55.4177 23.726 54.5277C24.016 53.6377 24.036 52.7377 23.786 51.9777C23.596 51.3877 23.266 50.9577 22.836 50.7377Z" fill="#422B08"/>
<path d="M22.946 54.2777C22.546 55.5177 21.536 56.3077 20.696 56.0377C19.856 55.7677 19.496 54.5377 19.886 53.2977C20.286 52.0577 21.296 51.2677 22.136 51.5377C22.976 51.8077 23.336 53.0377 22.946 54.2777Z" fill="#9E9E9F"/>
<path d="M20.246 56.5076C19.246 55.9976 18.836 54.5676 19.306 53.1076C19.536 52.3876 19.946 51.7676 20.466 51.3676C21.046 50.9176 21.726 50.7676 22.326 50.9576C22.926 51.1476 23.386 51.6676 23.596 52.3776C23.786 53.0076 23.756 53.7576 23.526 54.4676C23.016 56.0576 21.686 57.0076 20.506 56.6276C20.416 56.5976 20.326 56.5576 20.246 56.5176V56.5076ZM22.026 52.1576C22.026 52.1576 21.976 52.1376 21.946 52.1276C21.666 52.0376 21.366 52.2176 21.216 52.3376C20.896 52.5876 20.616 53.0076 20.466 53.4876C20.146 54.4676 20.436 55.3176 20.876 55.4576C21.326 55.5976 22.046 55.0776 22.356 54.0976C22.506 53.6176 22.526 53.1176 22.416 52.7176C22.366 52.5476 22.256 52.2676 22.026 52.1576Z" fill="#422B08"/>
<path d="M21.7559 21.9476C19.4159 22.1176 16.9159 22.8476 14.3359 24.3776C14.8459 27.9576 17.1759 31.4776 20.7459 34.4376L27.0259 30.2676C24.3759 27.7876 22.2359 24.5876 21.7559 21.9476Z" fill="#D2ECFA"/>
<path d="M20.4559 34.9876C20.4559 34.9876 20.3759 34.9476 20.3459 34.9176C16.5859 31.7976 14.2359 28.0876 13.7259 24.4676C13.6959 24.2176 13.8059 23.9776 14.0159 23.8576C16.5259 22.3776 19.1159 21.5276 21.7059 21.3476C22.0159 21.3276 22.2959 21.5376 22.3559 21.8476C22.7859 24.2376 24.7359 27.2876 27.4359 29.8276C27.5759 29.9576 27.6459 30.1376 27.6259 30.3276C27.6059 30.5176 27.5059 30.6876 27.3559 30.7876L21.0759 34.9576C20.8859 35.0776 20.6559 35.0876 20.4559 34.9876ZM15.0059 24.6976C15.5659 27.7776 17.6059 30.9376 20.7859 33.6776L26.0459 30.1776C23.6359 27.7676 21.8659 24.9676 21.2659 22.6076C19.1659 22.8376 17.0659 23.5376 15.0059 24.6976Z" fill="#422B08"/>
<path d="M30.2058 37.4536L28.703 40.3803C28.3801 41.0091 28.6281 41.7807 29.2569 42.1036L31.6143 43.3141C32.2432 43.637 33.0148 43.389 33.3377 42.7601L34.8405 39.8334C35.1634 39.2046 34.9154 38.433 34.2865 38.1101L31.9292 36.8996C31.3003 36.5767 30.5287 36.8247 30.2058 37.4536Z" fill="#EAF5FC"/>
<path d="M31.856 44.1275L28.456 42.3775C27.816 42.0475 27.566 41.2575 27.896 40.6175L29.936 36.6475C30.266 36.0075 31.056 35.7575 31.696 36.0875L35.096 37.8375C35.736 38.1675 35.986 38.9575 35.666 39.5975L33.626 43.5675C33.296 44.2075 32.506 44.4575 31.866 44.1275H31.856ZM31.126 37.1675C31.126 37.1675 31.036 37.1675 31.016 37.2075L28.976 41.1775C28.976 41.1775 28.976 41.2675 29.016 41.2875L32.416 43.0375C32.416 43.0375 32.506 43.0375 32.526 42.9975L34.566 39.0275C34.566 39.0275 34.566 38.9375 34.526 38.9175L31.126 37.1675Z" fill="#422B08"/>
<path d="M36.5417 40.7128L35.0389 43.6395C34.716 44.2684 34.964 45.04 35.5929 45.3629L37.9503 46.5734C38.5791 46.8963 39.3507 46.6483 39.6736 46.0194L41.1764 43.0927C41.4993 42.4638 41.2513 41.6923 40.6225 41.3694L38.2651 40.1589C37.6362 39.836 36.8647 40.084 36.5417 40.7128Z" fill="#EAF5FC"/>
<path d="M38.2059 47.3876L34.8059 45.6376C34.1659 45.3076 33.9159 44.5176 34.2359 43.8776L36.2759 39.9076C36.6059 39.2676 37.3959 39.0176 38.0359 39.3476L41.4359 41.0976C42.0759 41.4276 42.3259 42.2176 41.9959 42.8576L39.9559 46.8276C39.6259 47.4676 38.8359 47.7176 38.1959 47.3876H38.2059ZM37.4759 40.4276C37.4759 40.4276 37.3859 40.4276 37.3659 40.4676L35.3259 44.4376C35.3259 44.4376 35.3259 44.5276 35.3659 44.5476L38.7659 46.2976C38.7659 46.2976 38.8559 46.2976 38.8759 46.2576L40.9159 42.2876C40.9159 42.2876 40.9159 42.1976 40.8759 42.1776L37.4759 40.4276Z" fill="#422B08"/>
<path d="M42.8925 43.9732L41.3896 46.8999C41.0667 47.5288 41.3147 48.3003 41.9436 48.6233L44.301 49.8337C44.9298 50.1567 45.7014 49.9086 46.0243 49.2798L47.5271 46.3531C47.8501 45.7242 47.602 44.9526 46.9732 44.6297L44.6158 43.4192C43.9869 43.0963 43.2154 43.3443 42.8925 43.9732Z" fill="#EAF5FC"/>
<path d="M44.546 50.6476L41.146 48.8976C40.506 48.5676 40.256 47.7776 40.586 47.1376L42.626 43.1676C42.956 42.5276 43.746 42.2776 44.386 42.6076L47.786 44.3576C48.426 44.6876 48.676 45.4776 48.356 46.1176L46.316 50.0876C45.986 50.7276 45.196 50.9776 44.556 50.6476H44.546ZM43.816 43.6876C43.816 43.6876 43.726 43.6876 43.706 43.7276L41.666 47.6976C41.666 47.6976 41.666 47.7876 41.706 47.8076L45.106 49.5576C45.106 49.5576 45.196 49.5576 45.216 49.5176L47.256 45.5476C47.256 45.5476 47.256 45.4576 47.216 45.4376L43.816 43.6876Z" fill="#422B08"/>
<path d="M49.243 47.2235L47.7402 50.1502C47.4173 50.779 47.6653 51.5506 48.2942 51.8735L50.6516 53.084C51.2804 53.4069 52.052 53.1589 52.3749 52.53L53.8777 49.6033C54.2006 48.9745 53.9526 48.2029 53.3238 47.88L50.9664 46.6695C50.3375 46.3466 49.566 46.5946 49.243 47.2235Z" fill="#EAF5FC"/>
<path d="M50.896 53.9076L47.496 52.1576C46.856 51.8276 46.606 51.0376 46.926 50.3976L48.966 46.4276C49.296 45.7876 50.086 45.5376 50.726 45.8676L54.126 47.6176C54.766 47.9476 55.016 48.7376 54.686 49.3776L52.646 53.3476C52.316 53.9876 51.526 54.2376 50.886 53.9076H50.896ZM50.166 46.9476C50.166 46.9476 50.076 46.9476 50.056 46.9876L48.016 50.9576C48.016 50.9576 48.016 51.0476 48.056 51.0676L51.456 52.8176C51.456 52.8176 51.546 52.8176 51.566 52.7776L53.606 48.8076C53.606 48.8076 53.606 48.7176 53.566 48.6976L50.166 46.9476Z" fill="#422B08"/>
<path d="M55.5891 50.4927L54.0863 53.4194C53.7634 54.0483 54.0114 54.8199 54.6402 55.1428L56.9976 56.3533C57.6265 56.6762 58.3981 56.4282 58.721 55.7993L60.2238 52.8726C60.5467 52.2437 60.2987 51.4722 59.6698 51.1493L57.3125 49.9388C56.6836 49.6159 55.912 49.8639 55.5891 50.4927Z" fill="#EAF5FC"/>
<path d="M57.236 57.1676L53.836 55.4176C53.196 55.0876 52.946 54.2976 53.276 53.6576L55.316 49.6876C55.646 49.0476 56.436 48.7976 57.076 49.1276L60.476 50.8776C61.116 51.2076 61.366 51.9976 61.046 52.6376L59.006 56.6076C58.676 57.2476 57.886 57.4976 57.246 57.1676H57.236ZM56.516 50.2076C56.516 50.2076 56.426 50.2076 56.406 50.2476L54.366 54.2176C54.366 54.2176 54.366 54.3076 54.406 54.3276L57.806 56.0776C57.806 56.0776 57.896 56.0776 57.916 56.0376L59.956 52.0676C59.956 52.0676 59.956 51.9776 59.916 51.9576L56.516 50.2076Z" fill="#422B08"/>
<path d="M21.386 48.6576L33.896 72.3576C34.006 72.5676 34.196 72.7276 34.416 72.8076L40.296 74.7976C40.916 75.0076 41.556 74.5276 41.526 73.8676L40.586 55.0776C40.566 54.7176 40.336 54.3976 39.996 54.2576L22.546 47.3476C21.746 47.0276 20.976 47.8776 21.386 48.6476V48.6576Z" fill="white"/>
<path d="M34.006 73.2976C33.726 73.1576 33.496 72.9276 33.346 72.6476L20.836 48.9476C20.536 48.3676 20.616 47.6876 21.056 47.1976C21.496 46.7076 22.166 46.5576 22.766 46.7976L40.216 53.7076C40.776 53.9276 41.156 54.4576 41.186 55.0676L42.126 73.8576C42.156 74.3676 41.926 74.8576 41.516 75.1676C41.106 75.4776 40.576 75.5576 40.096 75.3976L34.216 73.4076C34.146 73.3876 34.076 73.3576 34.006 73.3176V73.2976ZM39.806 54.8476C39.806 54.8476 39.786 54.8476 39.776 54.8376L22.326 47.9276C22.136 47.8576 22.016 47.9576 21.976 48.0076C21.936 48.0576 21.836 48.1876 21.936 48.3676L34.446 72.0676C34.486 72.1376 34.546 72.1976 34.626 72.2176L40.506 74.2076C40.646 74.2576 40.746 74.2076 40.796 74.1576C40.846 74.1176 40.926 74.0376 40.926 73.8876L39.986 55.0976C39.986 54.9876 39.916 54.8876 39.816 54.8276L39.806 54.8476Z" fill="#422B08"/>
<path d="M55.286 58.7176L65.066 65.8476C65.506 66.1676 66.086 65.7176 65.886 65.2076L63.526 59.2676C63.456 59.0876 63.296 58.9676 63.106 58.9376L55.686 57.7376C55.126 57.6476 54.826 58.3676 55.286 58.7076V58.7176Z" fill="#0075C1"/>
<path d="M64.856 66.4376C64.806 66.4076 64.746 66.3776 64.696 66.3376L54.916 59.2076C54.476 58.8876 54.326 58.3376 54.536 57.8376C54.746 57.3376 55.246 57.0576 55.786 57.1476L63.2059 58.3476C63.6059 58.4076 63.946 58.6876 64.096 59.0576L66.4559 64.9876C66.6459 65.4676 66.5059 66.0076 66.0959 66.3276C65.7359 66.6076 65.266 66.6476 64.866 66.4476L64.856 66.4376ZM55.8859 58.3976L65.226 65.2076L62.966 59.5476L55.8859 58.4076V58.3976Z" fill="#422B08"/>
<path d="M57.096 44.4976L73.016 40.1976C73.376 40.0976 73.766 40.1576 74.086 40.3476L77.156 42.1876C77.876 42.6176 78.046 43.5776 77.526 44.2376L70.066 53.6076C69.636 54.1476 68.866 54.2876 68.276 53.9276L56.746 47.0176C55.696 46.3876 55.916 44.8176 57.096 44.4976Z" fill="#0075C1"/>
<path d="M67.036 53.1875L68.276 53.9275C68.866 54.2875 69.636 54.1475 70.066 53.6075L77.526 44.2375C78.046 43.5875 77.876 42.6175 77.156 42.1875L76.576 41.8375L67.036 53.1875Z" fill="#005BAB"/>
<path d="M68.216 54.2476C68.216 54.2476 68.156 54.2176 68.116 54.1976L56.586 47.2876C55.996 46.9376 55.686 46.2876 55.786 45.6076C55.886 44.9276 56.356 44.3876 57.016 44.2076L72.936 39.9076C73.376 39.7876 73.846 39.8576 74.246 40.0876L77.316 41.9276C77.736 42.1776 78.026 42.5976 78.106 43.0776C78.196 43.5576 78.066 44.0476 77.766 44.4276L70.306 53.7976C69.806 54.4276 68.926 54.6076 68.216 54.2476ZM73.866 40.5776C73.626 40.4576 73.346 40.4276 73.096 40.4976L57.176 44.7976C56.666 44.9376 56.436 45.3476 56.386 45.6876C56.336 46.0276 56.446 46.4876 56.896 46.7576L68.426 53.6676C68.886 53.9476 69.486 53.8376 69.826 53.4176L77.286 44.0476C77.476 43.8076 77.556 43.4876 77.506 43.1876C77.446 42.8776 77.266 42.6176 76.996 42.4576L73.926 40.6176C73.926 40.6176 73.886 40.5976 73.866 40.5876V40.5776Z" fill="#422B08"/>
<path d="M36.896 31.9675L54.606 27.7275C54.996 27.6375 55.416 27.7075 55.756 27.9275L57.576 29.1075C58.326 29.5975 58.476 30.6275 57.906 31.3075L50.106 40.5875C49.656 41.1275 48.896 41.2675 48.276 40.9475L36.546 34.7275C35.336 34.0875 35.566 32.2875 36.896 31.9675Z" fill="white"/>
<path d="M48.146 41.2175C48.146 41.2175 48.136 41.2175 48.126 41.2075L36.396 34.9875C35.736 34.6375 35.366 33.9275 35.456 33.1775C35.546 32.4275 36.086 31.8375 36.816 31.6575L54.526 27.4175C54.996 27.3075 55.506 27.3875 55.916 27.6575L57.736 28.8375C58.166 29.1175 58.456 29.5675 58.536 30.0775C58.616 30.5875 58.466 31.0975 58.136 31.4975L50.336 40.7775C49.806 41.4175 48.886 41.5975 48.146 41.2175ZM55.496 28.1275C55.246 27.9975 54.956 27.9675 54.686 28.0275L36.976 32.2675C36.396 32.4075 36.126 32.8775 36.086 33.2675C36.036 33.6575 36.176 34.1775 36.706 34.4575L48.436 40.6775C48.436 40.6775 48.436 40.6775 48.446 40.6775C48.936 40.9275 49.536 40.8075 49.886 40.3875L57.686 31.1075C57.906 30.8475 57.996 30.5075 57.946 30.1775C57.896 29.8475 57.706 29.5475 57.416 29.3675L55.596 28.1875C55.596 28.1875 55.526 28.1475 55.496 28.1275Z" fill="#422B08"/>
<path d="M63.226 60.2075C68.016 59.8475 75.676 57.1975 70.626 53.4775L37.376 31.3275C34.796 25.6175 25.256 17.8275 14.206 24.4475C4.47602 20.6975 -6.06398 31.7075 10.806 43.4075C21.316 50.1575 45.816 62.9875 63.226 60.2075Z" fill="white"/>
<path d="M70.646 53.4875C59.226 61.2375 27.876 47.7476 15.656 38.7275C8.59603 34.1276 6.38603 28.5975 7.05603 24.2375C0.876031 26.3775 -1.75397 34.6975 10.806 43.4075C21.316 50.1575 45.816 62.9875 63.226 60.2075C68.016 59.8475 75.666 57.2076 70.636 53.4875H70.646Z" fill="#54C2F0"/>
<path d="M63.226 60.2075C67.126 59.9175 72.936 58.0975 72.226 55.4275C59.636 63.1075 42.766 57.0375 29.226 51.1575C13.696 45.0875 3.426 35.8075 3.786 31.9775L1.896 31.0575C1.896 34.5475 4.336 38.9275 10.806 43.4075C21.316 50.1575 45.816 62.9875 63.226 60.2075Z" fill="#49A9D1"/>
<path d="M29.626 23.9175C28.836 23.5075 27.996 23.1575 27.116 22.8875C22.946 21.5775 18.536 22.2075 14.366 24.7075C14.286 24.7575 14.186 24.7675 14.096 24.7275C9.70598 23.0375 4.80598 24.4575 2.94598 27.9675C0.615975 32.3775 3.61597 38.0475 10.976 43.1575C14.166 45.2075 42.856 63.1475 63.176 59.9075C63.176 59.9075 63.196 59.9075 63.206 59.9075C66.496 59.6575 71.356 58.2575 71.926 56.2575C72.156 55.4675 71.656 54.6175 70.446 53.7275L37.206 31.5775C37.206 31.5775 37.116 31.4975 37.096 31.4475C35.926 28.8575 33.256 25.7775 29.626 23.9075V23.9175ZM52.346 61.1475C41.176 59.7375 29.356 54.5875 21.416 50.5075C15.596 47.5175 11.446 44.9075 10.316 44.1875H10.296C-1.44402 36.0275 0.875975 29.2775 1.87598 27.3975C3.57598 24.1675 7.55597 22.3575 11.766 22.8875C12.566 22.9875 13.356 23.1675 14.126 23.4375C17.546 21.4775 21.216 20.6775 24.736 21.1175C25.656 21.2375 26.586 21.4375 27.486 21.7175C32.626 23.3275 36.496 27.3575 38.106 30.7075L71.156 52.7275H71.166C72.836 53.9675 73.486 55.2675 73.106 56.5975C72.736 57.8775 71.406 58.9776 69.136 59.8475C67.436 60.4976 65.266 60.9775 63.336 61.1275C60.046 61.6475 56.346 61.6575 52.346 61.1575V61.1475Z" fill="#422B08"/>
<path d="M9.07597 30.9476C11.026 28.4776 11.296 25.4376 9.67597 24.1676C9.45597 23.9976 9.21597 23.8676 8.96597 23.7776C4.57597 24.3576 1.20597 27.7676 2.02597 32.4376C2.18597 32.7076 2.38597 32.9376 2.62597 33.1276C4.23597 34.3976 7.12597 33.4176 9.06597 30.9476H9.07597Z" fill="white"/>
<path d="M2.89601 33.6575C2.73601 33.5775 2.58601 33.4775 2.44601 33.3675C2.17601 33.1575 1.94601 32.8975 1.76601 32.5875C1.74601 32.5575 1.73601 32.5175 1.72601 32.4875C1.35601 30.3775 1.78601 28.4075 2.97601 26.7975C4.28601 25.0075 6.45601 23.7975 8.92601 23.4775C8.97601 23.4775 9.02601 23.4775 9.06601 23.4975C9.35601 23.5975 9.62601 23.7475 9.86601 23.9375C11.606 25.3075 11.366 28.5375 9.31601 31.1475C8.33601 32.3875 7.09601 33.3075 5.82601 33.7375C4.72601 34.1075 3.70601 34.0775 2.89601 33.6675V33.6575ZM2.31601 32.3275C2.45601 32.5475 2.62601 32.7375 2.81601 32.8875C3.51601 33.4375 4.50601 33.5275 5.62601 33.1475C6.78601 32.7575 7.92601 31.9075 8.82601 30.7575C10.666 28.4175 10.956 25.5775 9.47601 24.4075C9.30601 24.2775 9.12601 24.1675 8.91601 24.0875C6.64601 24.3975 4.65601 25.5175 3.45601 27.1475C2.37601 28.6075 1.98601 30.3975 2.30601 32.3175L2.31601 32.3275Z" fill="#422B08"/>
<path d="M31.6959 57.0875C31.0259 59.1775 21.8759 58.1075 20.3759 57.6175C18.8759 57.1375 18.2059 55.0575 18.8759 52.9675C19.5459 50.8775 21.3059 49.5775 22.8059 50.0575C24.3059 50.5375 32.3659 54.9975 31.6959 57.0775V57.0875Z" fill="white"/>
<path d="M19.926 57.7676C18.516 57.0476 17.916 54.9576 18.586 52.8776C18.926 51.8076 19.556 50.8976 20.346 50.3076C21.166 49.6976 22.076 49.5076 22.896 49.7676C23.676 50.0176 26.086 51.2576 28.236 52.7176C31.066 54.6276 32.326 56.1276 31.986 57.1776C31.196 59.6576 21.626 58.3376 20.286 57.9076C20.166 57.8676 20.046 57.8176 19.926 57.7576V57.7676ZM24.136 51.0076C23.496 50.6776 22.976 50.4476 22.706 50.3576C22.076 50.1576 21.366 50.3176 20.706 50.7976C20.016 51.3076 19.466 52.1076 19.166 53.0576C18.546 54.9776 19.136 56.8976 20.476 57.3276C22.136 57.8576 30.866 58.6876 31.406 56.9876C31.636 56.2776 30.326 54.8676 27.896 53.2176C26.606 52.3476 25.206 51.5376 24.146 50.9976L24.136 51.0076Z" fill="#422B08"/>
<path d="M24.3054 54.7207C24.9757 52.6331 24.3041 50.5507 22.8055 50.0695C21.3068 49.5883 19.5485 50.8906 18.8783 52.9782C18.208 55.0658 18.8796 57.1482 20.3782 57.6294C21.8769 58.1106 23.6352 56.8083 24.3054 54.7207Z" fill="white"/>
<path d="M19.926 57.7675C18.516 57.0475 17.916 54.9575 18.586 52.8775C18.926 51.8075 19.556 50.8975 20.346 50.3075C21.166 49.6975 22.076 49.5075 22.896 49.7675C23.716 50.0275 24.346 50.7175 24.656 51.6875C24.956 52.6275 24.936 53.7375 24.596 54.7975C24.256 55.8675 23.626 56.7775 22.836 57.3675C22.016 57.9775 21.106 58.1675 20.286 57.9075C20.166 57.8675 20.046 57.8175 19.926 57.7575V57.7675ZM22.976 50.4675C22.886 50.4275 22.796 50.3875 22.706 50.3575C22.076 50.1575 21.366 50.3175 20.706 50.7975C20.016 51.3075 19.466 52.1075 19.166 53.0575C18.546 54.9775 19.126 56.8975 20.476 57.3275C21.106 57.5275 21.816 57.3675 22.476 56.8875C23.166 56.3775 23.716 55.5775 24.016 54.6275C24.316 53.6775 24.346 52.7075 24.076 51.8875C23.856 51.2175 23.476 50.7275 22.976 50.4775V50.4675Z" fill="#422B08"/>
<path d="M22.946 54.2775C22.546 55.5175 21.536 56.3075 20.696 56.0375C19.856 55.7675 19.496 54.5375 19.886 53.2975C20.286 52.0575 21.296 51.2675 22.136 51.5375C22.976 51.8075 23.336 53.0375 22.946 54.2775Z" fill="#9E9E9F"/>
<path d="M20.386 56.2375C19.526 55.7975 19.176 54.5175 19.606 53.2075C19.816 52.5475 20.196 51.9775 20.666 51.6175C21.176 51.2175 21.736 51.0875 22.236 51.2575C22.746 51.4175 23.126 51.8475 23.306 52.4675C23.476 53.0475 23.456 53.7275 23.236 54.3775C22.776 55.7975 21.616 56.6575 20.596 56.3375C20.516 56.3175 20.446 56.2875 20.376 56.2475L20.386 56.2375ZM22.166 51.8775C22.166 51.8775 22.086 51.8375 22.046 51.8275C21.736 51.7275 21.376 51.8275 21.036 52.0875C20.656 52.3775 20.356 52.8475 20.176 53.3875C19.836 54.4475 20.116 55.5275 20.786 55.7475C21.456 55.9675 22.306 55.2475 22.656 54.1875C22.826 53.6475 22.856 53.0875 22.716 52.6375C22.606 52.2775 22.416 52.0175 22.166 51.8875V51.8775Z" fill="#422B08"/>
<path d="M21.7561 21.9476C19.4161 22.1176 16.9161 22.8476 14.3361 24.3776C14.8461 27.9576 17.1761 31.4776 20.7461 34.4376L27.0261 30.2676C24.3761 27.7876 22.2361 24.5876 21.7561 21.9476Z" fill="#D2ECFA"/>
<path d="M20.596 34.7176C20.596 34.7176 20.556 34.6976 20.536 34.6776C16.836 31.6076 14.526 27.9676 14.026 24.4176C14.006 24.2976 14.066 24.1776 14.176 24.1076C16.646 22.6476 19.186 21.8176 21.726 21.6376C21.886 21.6276 22.026 21.7376 22.046 21.8876C22.486 24.3376 24.466 27.4576 27.216 30.0376C27.286 30.0976 27.316 30.1976 27.316 30.2876C27.316 30.3776 27.256 30.4676 27.176 30.5176L20.896 34.6876C20.806 34.7476 20.686 34.7576 20.586 34.7076L20.596 34.7176ZM14.666 24.5376C15.196 27.8076 17.346 31.1776 20.756 34.0576L26.526 30.2276C23.926 27.7076 22.036 24.7176 21.506 22.2776C19.216 22.4776 16.916 23.2376 14.666 24.5376Z" fill="#422B08"/>
<path d="M30.2058 37.4536L28.703 40.3803C28.3801 41.0091 28.6281 41.7807 29.2569 42.1036L31.6143 43.3141C32.2432 43.637 33.0148 43.389 33.3377 42.7601L34.8405 39.8334C35.1634 39.2046 34.9154 38.433 34.2865 38.1101L31.9292 36.8996C31.3003 36.5767 30.5287 36.8247 30.2058 37.4536Z" fill="#EAF5FC"/>
<path d="M31.996 43.8575L28.596 42.1075C28.106 41.8575 27.916 41.2475 28.166 40.7575L30.206 36.7875C30.456 36.2975 31.066 36.1075 31.556 36.3575L34.956 38.1075C35.446 38.3575 35.636 38.9675 35.386 39.4575L33.346 43.4275C33.096 43.9175 32.486 44.1075 31.996 43.8575ZM31.266 36.8975C31.076 36.7975 30.846 36.8775 30.746 37.0675L28.706 41.0375C28.606 41.2275 28.686 41.4575 28.876 41.5575L32.276 43.3075C32.466 43.4075 32.696 43.3275 32.796 43.1375L34.836 39.1675C34.936 38.9775 34.856 38.7475 34.666 38.6475L31.266 36.8975Z" fill="#422B08"/>
<path d="M36.5419 40.7128L35.039 43.6395C34.7161 44.2684 34.9641 45.04 35.593 45.3629L37.9504 46.5734C38.5792 46.8963 39.3508 46.6483 39.6737 46.0194L41.1766 43.0927C41.4995 42.4638 41.2514 41.6923 40.6226 41.3694L38.2652 40.1589C37.6363 39.836 36.8648 40.084 36.5419 40.7128Z" fill="#EAF5FC"/>
<path d="M38.346 47.1176L34.946 45.3676C34.456 45.1176 34.266 44.5076 34.516 44.0176L36.556 40.0476C36.806 39.5576 37.416 39.3676 37.906 39.6176L41.306 41.3676C41.796 41.6176 41.986 42.2276 41.736 42.7176L39.696 46.6876C39.446 47.1776 38.836 47.3676 38.346 47.1176ZM37.616 40.1576C37.426 40.0576 37.196 40.1376 37.096 40.3276L35.056 44.2976C34.956 44.4876 35.036 44.7176 35.226 44.8176L38.626 46.5676C38.816 46.6676 39.046 46.5876 39.146 46.3976L41.186 42.4276C41.286 42.2376 41.206 42.0076 41.016 41.9076L37.616 40.1576Z" fill="#422B08"/>
<path d="M42.8925 43.9732L41.3896 46.8999C41.0667 47.5288 41.3147 48.3003 41.9436 48.6233L44.301 49.8337C44.9298 50.1567 45.7014 49.9086 46.0243 49.2798L47.5271 46.3531C47.8501 45.7242 47.602 44.9526 46.9732 44.6297L44.6158 43.4192C43.9869 43.0963 43.2154 43.3443 42.8925 43.9732Z" fill="#EAF5FC"/>
<path d="M44.686 50.3776L41.286 48.6276C40.796 48.3776 40.606 47.7676 40.856 47.2776L42.896 43.3076C43.146 42.8176 43.756 42.6276 44.246 42.8776L47.646 44.6276C48.136 44.8776 48.326 45.4876 48.076 45.9776L46.036 49.9476C45.786 50.4376 45.176 50.6276 44.686 50.3776ZM43.956 43.4176C43.766 43.3176 43.536 43.3976 43.436 43.5876L41.396 47.5576C41.296 47.7476 41.376 47.9776 41.566 48.0776L44.966 49.8276C45.156 49.9276 45.386 49.8476 45.486 49.6576L47.526 45.6876C47.626 45.4976 47.546 45.2676 47.356 45.1676L43.956 43.4176Z" fill="#422B08"/>
<path d="M49.243 47.2235L47.7402 50.1502C47.4173 50.779 47.6653 51.5506 48.2942 51.8735L50.6516 53.084C51.2804 53.4069 52.052 53.1589 52.3749 52.53L53.8777 49.6033C54.2006 48.9745 53.9526 48.2029 53.3238 47.88L50.9664 46.6695C50.3375 46.3466 49.566 46.5946 49.243 47.2235Z" fill="#EAF5FC"/>
<path d="M51.0359 53.6276L47.6359 51.8776C47.1459 51.6276 46.9559 51.0176 47.2059 50.5276L49.2459 46.5576C49.4959 46.0676 50.1059 45.8776 50.5959 46.1276L53.9959 47.8776C54.4859 48.1276 54.6759 48.7376 54.4259 49.2276L52.3859 53.1976C52.1359 53.6876 51.5259 53.8776 51.0359 53.6276ZM50.3059 46.6776C50.1159 46.5776 49.8859 46.6576 49.7859 46.8476L47.7459 50.8176C47.6459 51.0076 47.7259 51.2376 47.9159 51.3376L51.3159 53.0876C51.5059 53.1876 51.7359 53.1076 51.8359 52.9176L53.8759 48.9476C53.9759 48.7576 53.8959 48.5276 53.7059 48.4276L50.3059 46.6776Z" fill="#422B08"/>
<path d="M55.5891 50.4927L54.0863 53.4194C53.7634 54.0483 54.0114 54.8199 54.6402 55.1428L56.9976 56.3533C57.6265 56.6762 58.3981 56.4282 58.721 55.7993L60.2238 52.8726C60.5467 52.2437 60.2987 51.4722 59.6698 51.1493L57.3125 49.9388C56.6836 49.6159 55.912 49.8639 55.5891 50.4927Z" fill="#EAF5FC"/>
<path d="M57.376 56.8876L53.976 55.1376C53.486 54.8876 53.296 54.2776 53.546 53.7876L55.586 49.8176C55.836 49.3276 56.446 49.1376 56.936 49.3876L60.336 51.1376C60.826 51.3876 61.016 51.9976 60.766 52.4876L58.726 56.4576C58.476 56.9476 57.866 57.1376 57.376 56.8876ZM56.646 49.9376C56.456 49.8376 56.226 49.9176 56.126 50.1076L54.086 54.0776C53.986 54.2676 54.066 54.4976 54.256 54.5976L57.656 56.3476C57.846 56.4476 58.076 56.3676 58.176 56.1776L60.216 52.2076C60.316 52.0176 60.236 51.7876 60.046 51.6876L56.646 49.9376Z" fill="#422B08"/>
<path d="M34.156 73.0276C33.936 72.9076 33.746 72.7276 33.626 72.5076L21.116 48.8076C20.876 48.3476 20.936 47.7976 21.286 47.4076C21.636 47.0176 22.176 46.8876 22.656 47.0876L40.106 53.9976C40.556 54.1776 40.856 54.5976 40.886 55.0876L41.826 73.8776C41.846 74.2876 41.666 74.6776 41.336 74.9276C41.006 75.1776 40.586 75.2476 40.196 75.1076L34.316 73.1176C34.256 73.0976 34.196 73.0776 34.146 73.0476L34.156 73.0276Z" fill="#422B08"/>
<path d="M40.5759 74.1376C40.5759 74.1376 40.5459 74.1376 40.5259 74.1276L34.6459 72.1376C34.5959 72.1176 34.5559 72.0876 34.5259 72.0376L22.0159 48.3376C21.9559 48.2176 22.0159 48.1376 22.0459 48.0976C22.0659 48.0776 22.1259 48.0176 22.2259 48.0276C22.2459 48.0276 22.2659 48.0276 22.2859 48.0476L39.7359 54.9576H39.7559C39.8259 54.9976 39.8659 55.0676 39.8759 55.1476L40.8159 73.9376C40.8159 74.0076 40.7859 74.0776 40.7359 74.1176C40.6859 74.1576 40.6359 74.1676 40.5859 74.1576L40.5759 74.1376Z" fill="white"/>
<path d="M55.286 58.7176L65.066 65.8476C65.506 66.1676 66.086 65.7176 65.886 65.2076L63.526 59.2676C63.456 59.0876 63.296 58.9676 63.106 58.9376L55.686 57.7376C55.126 57.6476 54.826 58.3676 55.286 58.7076V58.7176Z" fill="#0075C1"/>
<path d="M64.9959 66.1675C64.9959 66.1675 64.9159 66.1275 64.8859 66.0975L55.1059 58.9675C54.7859 58.7275 54.6659 58.3275 54.8259 57.9575C54.9759 57.5875 55.3459 57.3875 55.7459 57.4475L63.1659 58.6475C63.4559 58.6975 63.7059 58.8975 63.8159 59.1675L66.1759 65.1075C66.3159 65.4575 66.2059 65.8575 65.9059 66.0875C65.6459 66.2975 65.2959 66.3175 65.0059 66.1775L64.9959 66.1675ZM63.1259 59.2675C63.1259 59.2675 63.0859 59.2475 63.0559 59.2475L55.6359 58.0475C55.4659 58.0175 55.3959 58.1475 55.3859 58.1875C55.3659 58.2275 55.3259 58.3675 55.4659 58.4675L65.2459 65.5975C65.3759 65.6975 65.4959 65.6175 65.5259 65.5975C65.5559 65.5675 65.6559 65.4775 65.5959 65.3275L63.2359 59.3875C63.2159 59.3375 63.1759 59.2875 63.1259 59.2675Z" fill="#422B08"/>
</svg>
