<svg width="79" height="75" viewBox="0 0 79 75" fill="none" xmlns="http://www.w3.org/2000/svg">
<path d="M76.9193 69.0722C75.4493 74.4922 60.0093 75.0222 42.4393 70.2522C24.8593 65.4922 11.8093 57.2322 13.2693 51.8222C14.7393 46.4022 30.1793 45.8722 47.7493 50.6422C65.3193 55.4022 78.3793 63.6622 76.9093 69.0722H76.9193Z" fill="#FDDE8E"/>
<path d="M28.4493 66.6022C18.3093 62.1822 10.7993 56.5222 12.1593 51.5222C13.0293 48.3222 17.2693 46.5022 24.4393 46.2622C31.0593 46.0322 39.4493 47.1922 48.0593 49.5322C56.6693 51.8622 64.4993 55.1022 70.0993 58.6422C76.1593 62.4722 78.9093 66.1922 78.0393 69.3822C77.1693 72.5822 72.9293 74.3922 65.7593 74.6422C59.1293 74.8722 50.7393 73.7122 42.1393 71.3722C37.4193 70.0922 32.6993 68.4522 28.4493 66.6022ZM60.7793 56.3822C56.7693 54.6322 52.2393 53.0522 47.4593 51.7622C39.0693 49.4822 30.9193 48.3522 24.5193 48.5722C18.7293 48.7722 14.9393 50.1022 14.3893 52.1322C13.2793 56.2422 24.6493 64.2422 42.7393 69.1522C51.1293 71.4222 59.2793 72.5622 65.6793 72.3422C71.4693 72.1422 75.2593 70.8122 75.8093 68.7822C76.3593 66.7522 73.7593 63.6922 68.8693 60.6022C66.5393 59.1322 63.8093 57.7122 60.7793 56.3922V56.3822Z" fill="#422B08"/>
<path d="M45.3293 69.0822C44.4193 68.8322 43.5193 68.5822 42.6293 68.3122C42.0793 68.1422 41.7693 67.5622 41.9293 67.0122C42.0993 66.4622 42.6693 66.1322 43.2293 66.3122C44.0993 66.5722 44.9793 66.8222 45.8793 67.0622C46.4393 67.2122 46.7593 67.7822 46.6093 68.3422C46.4593 68.9022 45.8893 69.2222 45.3293 69.0722V69.0822ZM39.9993 67.4922C39.9993 67.4922 39.9593 67.4922 39.9493 67.4722C39.0493 67.1722 38.1593 66.8722 37.2893 66.5622C36.7493 66.3722 36.4693 65.7722 36.6593 65.2322C36.8493 64.6922 37.4593 64.4122 37.9893 64.6022C38.8393 64.9122 39.7093 65.2022 40.5893 65.4922C41.1393 65.6722 41.4393 66.2622 41.2593 66.8122C41.0893 67.3422 40.5293 67.6422 39.9993 67.4922ZM34.7693 65.6122C34.7693 65.6122 34.6993 65.5922 34.6593 65.5722C33.7693 65.2222 32.8993 64.8622 32.0593 64.5022C31.5293 64.2722 31.2893 63.6622 31.5193 63.1322C31.7493 62.6022 32.3593 62.3622 32.8893 62.5922C33.7093 62.9422 34.5593 63.2922 35.4293 63.6422C35.9693 63.8522 36.2293 64.4622 36.0193 64.9922C35.8193 65.4922 35.2793 65.7522 34.7793 65.6222L34.7693 65.6122ZM29.6693 63.4122C29.6093 63.3922 29.5493 63.3722 29.4893 63.3422C28.6193 62.9322 27.7693 62.5022 26.9593 62.0822C26.4493 61.8122 26.2493 61.1822 26.5193 60.6722C26.7893 60.1622 27.4193 59.9722 27.9293 60.2322C28.7093 60.6422 29.5393 61.0522 30.3793 61.4522C30.8993 61.7022 31.1193 62.3222 30.8793 62.8422C30.6593 63.3022 30.1393 63.5322 29.6693 63.4022V63.4122ZM24.7493 60.8122C24.6593 60.7922 24.5693 60.7522 24.4893 60.7022C23.6393 60.2022 22.8293 59.6822 22.0893 59.1722C21.6093 58.8522 21.4893 58.2022 21.8193 57.7222C22.1393 57.2422 22.7893 57.1222 23.2693 57.4522C23.9793 57.9422 24.7493 58.4222 25.5593 58.9022C26.0493 59.1922 26.2193 59.8322 25.9293 60.3322C25.6893 60.7422 25.1993 60.9222 24.7593 60.8122H24.7493ZM20.1693 57.6622C20.0293 57.6222 19.8993 57.5622 19.7793 57.4622C18.9593 56.7922 18.2493 56.1122 17.6493 55.4522C17.2593 55.0222 17.2893 54.3622 17.7193 53.9822C18.1493 53.5922 18.8093 53.6322 19.1893 54.0522C19.7193 54.6422 20.3693 55.2422 21.0993 55.8522C21.5393 56.2222 21.6093 56.8722 21.2393 57.3222C20.9693 57.6522 20.5393 57.7722 20.1593 57.6622H20.1693ZM16.5593 53.4922C16.2793 53.4122 16.0293 53.2222 15.8893 52.9422C15.6793 52.5122 15.5193 52.0722 15.4193 51.6522C15.2893 51.0922 15.6293 50.5322 16.1893 50.3922C16.7493 50.2622 17.3093 50.6022 17.4493 51.1622C17.5193 51.4322 17.6193 51.7222 17.7693 52.0222C18.0193 52.5422 17.8093 53.1622 17.2893 53.4122C17.0493 53.5222 16.7993 53.5422 16.5593 53.4822V53.4922Z" fill="#FBD480"/>
<path d="M48.2793 66.6722C47.3693 66.4222 46.4693 66.1722 45.5793 65.9022C45.0293 65.7422 44.7193 65.1522 44.8793 64.6022C45.0393 64.0522 45.6493 63.7322 46.1793 63.9022C47.0493 64.1622 47.9293 64.4122 48.8293 64.6522C49.3893 64.8022 49.7093 65.3722 49.5593 65.9322C49.4093 66.4922 48.8393 66.8122 48.2793 66.6622V66.6722ZM42.9593 65.0822C42.9593 65.0822 42.9193 65.0822 42.9093 65.0622C42.0093 64.7622 41.1193 64.4622 40.2493 64.1522C39.7093 63.9622 39.4293 63.3622 39.6193 62.8222C39.8093 62.2822 40.4093 61.9922 40.9493 62.1922C41.7993 62.5022 42.6693 62.7922 43.5493 63.0822C44.0993 63.2622 44.3893 63.8522 44.2193 64.4022C44.0493 64.9322 43.4893 65.2322 42.9593 65.0822ZM37.7293 63.1922C37.7293 63.1922 37.6593 63.1722 37.6193 63.1522C36.7293 62.8022 35.8593 62.4422 35.0193 62.0822C34.4893 61.8522 34.2493 61.2422 34.4793 60.7122C34.7093 60.1822 35.3193 59.9422 35.8493 60.1722C36.6693 60.5222 37.5193 60.8722 38.3893 61.2222C38.9293 61.4322 39.1893 62.0422 38.9793 62.5722C38.7793 63.0722 38.2393 63.3322 37.7393 63.2022L37.7293 63.1922ZM32.6193 60.9922C32.5593 60.9722 32.4993 60.9522 32.4393 60.9222C31.5693 60.5122 30.7193 60.0822 29.9093 59.6622C29.3993 59.3922 29.2093 58.7622 29.4693 58.2522C29.7393 57.7422 30.3693 57.5422 30.8793 57.8122C31.6593 58.2222 32.4793 58.6322 33.3293 59.0322C33.8493 59.2822 34.0693 59.9022 33.8293 60.4222C33.6093 60.8822 33.0893 61.1122 32.6193 60.9822V60.9922ZM27.6993 58.3922C27.6093 58.3722 27.5193 58.3322 27.4393 58.2822C26.5893 57.7822 25.7793 57.2622 25.0393 56.7522C24.5593 56.4322 24.4393 55.7822 24.7693 55.3022C25.0893 54.8222 25.7393 54.7022 26.2193 55.0322C26.9293 55.5222 27.6993 56.0022 28.5093 56.4822C28.9993 56.7722 29.1693 57.4122 28.8793 57.9122C28.6393 58.3222 28.1493 58.5022 27.7093 58.3922H27.6993ZM23.1293 55.2422C22.9893 55.2022 22.8593 55.1422 22.7393 55.0422C21.9293 54.3722 21.2093 53.6922 20.6093 53.0322C20.2193 52.6022 20.2493 51.9422 20.6793 51.5622C21.1093 51.1722 21.7693 51.2022 22.1493 51.6322C22.6793 52.2222 23.3293 52.8222 24.0593 53.4322C24.4993 53.8022 24.5693 54.4522 24.1993 54.9022C23.9293 55.2322 23.4993 55.3522 23.1193 55.2422H23.1293Z" fill="#FBD480"/>
<path d="M65.6594 62.1422C65.0194 64.5122 55.7294 64.0622 44.9094 61.1222C34.0894 58.1922 25.8494 53.8922 26.4894 51.5222C27.1294 49.1522 33.4494 32.1422 51.4494 37.0222C69.4394 41.9022 66.3094 59.7722 65.6594 62.1422Z" fill="#FDDE8E"/>
<path d="M33.7294 58.5022C32.7094 58.0522 31.7494 57.6022 30.8694 57.1422C26.6794 54.9622 24.8894 53.0222 25.3794 51.2222C25.3994 51.1622 26.9894 45.4322 31.6494 40.7422C35.3194 37.0422 41.7894 33.2022 51.7594 35.9122C61.7294 38.6122 65.3694 45.1922 66.6694 50.2422C68.3194 56.6422 66.7994 62.3922 66.7794 62.4522C66.2894 64.2522 63.7594 65.0122 59.0494 64.7822C55.0494 64.5822 49.9294 63.6822 44.6194 62.2422C40.6194 61.1622 36.8594 59.8622 33.7394 58.5022H33.7294ZM54.5394 39.3222C53.4894 38.8622 52.3594 38.4722 51.1494 38.1422C44.0094 36.2022 37.9994 37.6322 33.2894 42.3722C29.7794 45.9122 27.9994 50.4022 27.6094 51.8322C27.6994 53.0222 33.8194 56.9222 45.2194 60.0122C56.5694 63.0922 63.8194 62.8222 64.5594 61.8222C64.9494 60.3622 65.6694 55.6222 64.4294 50.8122C63.0394 45.4322 59.7194 41.5822 54.5394 39.3222Z" fill="#422B08"/>
<path d="M47.0994 53.0622C46.1794 52.8122 45.2794 52.5522 44.3994 52.2822C43.8494 52.1122 43.5394 51.5322 43.7094 50.9822C43.8794 50.4322 44.4694 50.1322 45.0094 50.2922C45.8694 50.5522 46.7494 50.8122 47.6494 51.0522C48.2094 51.2022 48.5294 51.7722 48.3794 52.3322C48.2294 52.8922 47.6594 53.2122 47.0994 53.0622ZM41.7794 51.4422C41.7794 51.4422 41.7394 51.4322 41.7194 51.4222C40.8094 51.1122 39.9194 50.7922 39.0694 50.4722C38.5294 50.2722 38.2594 49.6622 38.4694 49.1322C38.6694 48.5922 39.2794 48.3222 39.8194 48.5322C40.6494 48.8522 41.5194 49.1622 42.3994 49.4622C42.9494 49.6422 43.2394 50.2422 43.0494 50.7822C42.8694 51.3022 42.3194 51.5922 41.7894 51.4522L41.7794 51.4422ZM36.5894 49.4622C36.5894 49.4622 36.4994 49.4322 36.4494 49.4122C35.5294 49.0122 34.6694 48.6122 33.8694 48.2122C33.3594 47.9522 33.1494 47.3222 33.4094 46.8122C33.6694 46.3022 34.2994 46.0922 34.8094 46.3522C35.5694 46.7322 36.3994 47.1222 37.2794 47.4922C37.8094 47.7222 38.0494 48.3322 37.8194 48.8622C37.6094 49.3422 37.0794 49.5922 36.5894 49.4522V49.4622ZM31.6394 46.9322C31.5394 46.9022 31.4494 46.8622 31.3494 46.8022L31.2294 46.7322C30.7494 46.4222 30.5994 45.7822 30.9094 45.2922C31.2194 44.8122 31.8594 44.6622 32.3494 44.9722L32.4594 45.0422C32.9494 45.3522 33.0894 45.9922 32.7794 46.4822C32.5294 46.8822 32.0594 47.0522 31.6294 46.9322H31.6394Z" fill="#FBD480"/>
<path d="M49.1893 49.7222C49.1893 49.7222 49.1893 49.7222 49.1793 49.7222C48.2593 49.4622 47.3593 49.1922 46.4893 48.9122C45.9393 48.7422 45.6393 48.1522 45.8093 47.6022C45.9793 47.0522 46.5493 46.7422 47.1193 46.9222C47.9693 47.1922 48.8493 47.4622 49.7493 47.7122C50.2993 47.8722 50.6193 48.4422 50.4693 49.0022C50.3093 49.5522 49.7393 49.8722 49.1893 49.7222ZM43.8993 48.0422C43.8993 48.0422 43.8493 48.0222 43.8193 48.0222C42.9093 47.7022 42.0293 47.3622 41.1793 47.0222C40.6493 46.8122 40.3893 46.2022 40.5993 45.6622C40.8093 45.1322 41.4093 44.8722 41.9593 45.0822C42.7793 45.4122 43.6393 45.7322 44.5193 46.0522C45.0593 46.2422 45.3493 46.8422 45.1493 47.3822C44.9693 47.9022 44.4193 48.1822 43.8993 48.0422ZM38.7393 45.9622C38.6793 45.9522 38.6293 45.9322 38.5793 45.9022C37.6593 45.4822 36.7993 45.0522 36.0293 44.6322C35.5193 44.3522 35.3393 43.7222 35.6193 43.2122C35.8993 42.7122 36.5293 42.5222 37.0293 42.8022C37.7593 43.2022 38.5693 43.6022 39.4493 44.0122C39.9693 44.2522 40.1993 44.8722 39.9593 45.3922C39.7393 45.8622 39.2193 46.0922 38.7393 45.9622Z" fill="#FBD480"/>
<path d="M51.8494 46.4722C51.8494 46.4722 51.8294 46.4722 51.8194 46.4722C50.8994 46.2022 50.0094 45.9122 49.1394 45.6222C48.5894 45.4422 48.2994 44.8522 48.4794 44.3022C48.6594 43.7522 49.2394 43.4622 49.7994 43.6422C50.6494 43.9222 51.5194 44.2022 52.4194 44.4722C52.9694 44.6322 53.2794 45.2222 53.1194 45.7722C52.9594 46.3122 52.3894 46.6322 51.8494 46.4822V46.4722ZM46.5794 44.7122C46.5794 44.7122 46.5194 44.6922 46.4894 44.6822C45.5794 44.3422 44.6994 43.9922 43.8694 43.6422C43.3394 43.4222 43.0894 42.8022 43.3194 42.2722C43.5394 41.7422 44.1594 41.4922 44.6894 41.7222C45.4894 42.0622 46.3494 42.4022 47.2294 42.7322C47.7694 42.9322 48.0394 43.5322 47.8394 44.0722C47.6494 44.5822 47.1094 44.8522 46.5894 44.7122H46.5794ZM41.4594 42.5322C41.3994 42.5122 41.3294 42.4922 41.2694 42.4622C40.3294 42.0022 39.4794 41.5422 38.7394 41.0922C38.2494 40.7922 38.0894 40.1522 38.3894 39.6622C38.6894 39.1722 39.3294 39.0122 39.8194 39.3122C40.5094 39.7322 41.2994 40.1622 42.1794 40.5922C42.6994 40.8422 42.9094 41.4722 42.6594 41.9922C42.4394 42.4522 41.9194 42.6722 41.4494 42.5422L41.4594 42.5322Z" fill="#FBD480"/>
<path d="M53.0393 42.9922C53.0393 42.9922 52.9893 42.9822 52.9693 42.9722C52.0493 42.6522 51.1693 42.3522 50.3393 42.0522C49.7993 41.8622 49.5093 41.2622 49.7093 40.7222C49.8993 40.1822 50.5093 39.9022 51.0393 40.0922C51.8693 40.3922 52.7393 40.6922 53.6593 41.0122C54.1993 41.2022 54.4893 41.7922 54.2993 42.3422C54.1193 42.8622 53.5693 43.1522 53.0393 43.0022V42.9922ZM47.8093 41.1022C47.8093 41.1022 47.7393 41.0822 47.6993 41.0622C46.6793 40.6622 45.8293 40.2922 45.0693 39.9322C44.5493 39.6822 44.3393 39.0622 44.5893 38.5422C44.8393 38.0222 45.4693 37.8122 45.9793 38.0622C46.6793 38.4022 47.4893 38.7522 48.4593 39.1322C48.9993 39.3422 49.2593 39.9522 49.0493 40.4822C48.8493 40.9822 48.3093 41.2422 47.8093 41.1122V41.1022Z" fill="#FBD480"/>
<path d="M46.3094 55.9921C37.0594 53.4821 29.6994 49.9821 28.1594 47.5421C27.1794 49.4121 26.6594 50.9321 26.4994 51.5321C25.8594 53.9021 34.0994 58.2021 44.9194 61.1321C55.7394 64.0621 65.0194 64.5221 65.6694 62.1521C65.8294 61.5521 66.1494 59.9721 66.2494 57.8721C63.6794 59.2021 55.5594 58.5121 46.3094 56.0021V55.9921Z" fill="#005BAB"/>
<path d="M33.7294 58.5022C32.7094 58.0522 31.7494 57.6022 30.8694 57.1422C26.6794 54.9622 24.8894 53.0222 25.3794 51.2222C25.6094 50.3922 26.1994 48.7822 27.1294 47.0022C27.3194 46.6322 27.6894 46.4022 28.1094 46.3822C28.5194 46.3622 28.9094 46.5722 29.1294 46.9222C30.3194 48.8022 36.8494 52.2322 46.6094 54.8822C56.3694 57.5322 63.7394 57.8622 65.7094 56.8422C66.0794 56.6522 66.5194 56.6722 66.8694 56.8922C67.2194 57.1122 67.4194 57.5122 67.3994 57.9222C67.2994 59.9322 67.0094 61.6222 66.7794 62.4522C66.2894 64.2522 63.7594 65.0122 59.0494 64.7822C55.0494 64.5822 49.9294 63.6822 44.6194 62.2422C40.6194 61.1622 36.8594 59.8622 33.7394 58.5022H33.7294ZM28.4594 49.5622C27.9994 50.6022 27.7194 51.4222 27.6094 51.8322C27.6994 53.0222 33.8194 56.9222 45.2194 60.0122C56.6194 63.1022 63.8694 62.8222 64.5594 61.8122C64.6594 61.4322 64.8294 60.5922 64.9594 59.4622C60.6994 60.2222 52.7794 58.9522 46.0094 57.1122C39.2394 55.2722 31.7494 52.3722 28.4594 49.5622Z" fill="#422B08"/>
<path d="M61.1893 61.0222C64.8193 61.6822 69.4393 64.2822 72.7493 68.7822L66.2693 71.9522C63.9693 69.3522 60.8993 67.4322 59.7393 62.0522L61.1893 61.0222Z" fill="#005BAB"/>
<path d="M65.8093 73.0022C65.6593 72.9322 65.5193 72.8422 65.4093 72.7122C64.9493 72.1922 64.4493 71.6922 63.9193 71.1622C61.8993 69.1422 59.5993 66.8622 58.6193 62.2922C58.5193 61.8422 58.6993 61.3722 59.0793 61.1022L60.5293 60.0722C60.7793 59.8922 61.0993 59.8222 61.4093 59.8822C64.8893 60.5122 69.9493 63.0022 73.6893 68.0922C73.8893 68.3722 73.9593 68.7222 73.8793 69.0522C73.7993 69.3822 73.5693 69.6622 73.2693 69.8122L66.7893 72.9822C66.4793 73.1322 66.1193 73.1322 65.8193 73.0022H65.8093ZM61.0393 62.5422C61.9493 65.9522 63.6993 67.6922 65.5393 69.5322C65.8693 69.8622 66.1993 70.1922 66.5293 70.5322L70.9593 68.3722C67.9193 64.7722 64.2093 62.8822 61.4493 62.2522L61.0393 62.5422Z" fill="#422B08"/>
<path d="M60.4293 61.6622C62.6693 62.6822 64.4493 64.6522 64.4293 65.0322C62.5993 64.9622 60.6593 62.2822 60.4293 61.6622Z" fill="#00478A"/>
<path d="M56.9593 60.8523C53.2893 61.2123 48.4793 63.4323 44.8093 67.6423L51.0193 71.3323C53.5293 68.9323 56.7393 67.2623 58.3293 62.0023L56.9593 60.8523Z" fill="#005BAB"/>
<path d="M50.5493 72.3823C50.5493 72.3823 50.4593 72.3423 50.4193 72.3123L44.2093 68.6223C43.9193 68.4423 43.7093 68.1523 43.6593 67.8123C43.6093 67.4723 43.6993 67.1323 43.9293 66.8723C48.0793 62.1123 53.3193 60.0423 56.8393 59.6923C57.1493 59.6623 57.4593 59.7523 57.6993 59.9623L59.0693 61.1123C59.4193 61.4123 59.5693 61.8923 59.4293 62.3323C58.0693 66.8123 55.5993 68.9023 53.4193 70.7423C52.8493 71.2223 52.3093 71.6823 51.8093 72.1623C51.4693 72.4923 50.9693 72.5723 50.5493 72.3923V72.3823ZM46.6293 67.3823L50.8593 69.9023C51.2093 69.5923 51.5693 69.2823 51.9293 68.9823C53.9193 67.3023 55.7993 65.7123 56.9793 62.3823L56.5993 62.0623C53.7993 62.4623 49.9493 64.0423 46.6293 67.3823Z" fill="#422B08"/>
<path d="M57.6693 61.5522C55.3593 62.3922 53.4193 64.2022 53.4093 64.5922C55.2393 64.6622 57.3893 62.1522 57.6693 61.5522Z" fill="#00478A"/>
<path d="M58.1193 59.5222C56.6293 57.5422 50.3993 55.0022 49.5293 54.7322C48.6593 54.6222 47.9593 54.6422 47.1293 57.5822C46.9093 58.8322 45.2193 60.7722 46.9693 61.3422C49.8593 62.6522 57.6593 62.9322 58.7493 62.7122L58.1193 59.5222Z" fill="#005BAB"/>
<path d="M46.3393 62.3422C45.6793 62.0522 45.3593 61.6122 45.2093 61.2722C44.7693 60.2822 45.2493 59.2022 45.6293 58.3422C45.7793 58.0022 45.9493 57.6222 45.9893 57.3922C45.9893 57.3522 46.0093 57.3122 46.0193 57.2822C46.8493 54.3322 47.7993 53.3622 49.6693 53.5922C49.7393 53.5922 49.7993 53.6122 49.8693 53.6322C50.5393 53.8322 57.2493 56.4422 59.0493 58.8322C59.1593 58.9722 59.2293 59.1322 59.2593 59.3022L59.8893 62.4922C60.0093 63.1122 59.6093 63.7222 58.9893 63.8422C57.6093 64.1222 49.6893 63.7822 46.5793 62.4222H46.5593C46.4893 62.3922 46.4193 62.3622 46.3493 62.3322L46.3393 62.3422ZM48.2593 57.8522C48.1693 58.3322 47.9493 58.8122 47.7493 59.2822C47.6193 59.5622 47.4293 60.0022 47.3693 60.2622C47.3993 60.2722 47.4293 60.2822 47.4593 60.2922C47.4793 60.2922 47.4993 60.3122 47.5093 60.3122C49.6393 61.2422 54.9293 61.6222 57.3693 61.6322L57.0593 60.0322C55.6593 58.5322 50.6393 56.3122 49.2993 55.8722C49.1993 55.8622 49.1293 55.8622 49.0993 55.8722C49.0993 55.8722 48.7593 56.1322 48.2693 57.8622L48.2593 57.8522Z" fill="#422B08"/>
<path d="M58.8093 62.8423C56.9893 63.0523 48.8993 62.9623 46.7593 60.9323C49.3393 61.5723 58.0993 62.6323 58.8093 62.8423Z" fill="#FFE56D"/>
<path d="M47.4692 62.7123C46.8692 62.4523 46.3592 62.1423 45.9692 61.7723C45.5892 61.4123 45.4992 60.8423 45.7492 60.3823C45.9992 59.9223 46.5292 59.6923 47.0392 59.8123C48.5792 60.1923 52.5292 60.7523 55.4092 61.1523C57.8992 61.5023 58.7992 61.6323 59.1292 61.7323C59.6592 61.8823 60.0092 62.3923 59.9592 62.9423C59.9092 63.4923 59.4892 63.9323 58.9392 63.9923C57.9692 64.1023 51.1092 64.3023 47.4692 62.7123Z" fill="#422B08"/>
<path d="M60.6892 59.6221C62.3392 57.7621 68.7492 55.7421 69.6392 55.5521C70.5092 55.5121 71.2192 55.5921 71.7992 58.5921C71.9092 59.8521 73.4392 61.9321 71.6592 62.3521C68.6692 63.4221 60.8692 63.0621 59.8092 62.7621L60.6892 59.6321V59.6221Z" fill="#005BAB"/>
<path d="M59.3393 63.8122C58.8193 63.5822 58.5293 63.0022 58.6893 62.4422L59.5693 59.3122C59.6193 59.1422 59.6993 58.9922 59.8193 58.8622C61.8093 56.6222 68.7093 54.5822 69.3893 54.4322C69.4593 54.4222 69.5193 54.4122 69.5893 54.4022C71.4693 54.3222 72.3493 55.3622 72.9293 58.3722C72.9293 58.4122 72.9393 58.4522 72.9493 58.4922C72.9693 58.7122 73.1093 59.1122 73.2293 59.4622C73.5393 60.3522 73.9293 61.4622 73.4093 62.4222C73.2093 62.7822 72.8093 63.2522 71.9793 63.4622C68.7793 64.5722 60.8393 64.2622 59.4793 63.8722C59.4293 63.8622 59.3793 63.8422 59.3393 63.8222V63.8122ZM61.7193 60.2222L61.2793 61.7922C63.7293 61.9822 69.0993 62.0322 71.2693 61.2622C71.2993 61.2522 71.3293 61.2422 71.3593 61.2322C71.3193 60.9722 71.1593 60.5122 71.0593 60.2222C70.8893 59.7422 70.7193 59.2522 70.6593 58.7622C70.3093 56.9822 69.9793 56.7122 69.9693 56.7022C69.9693 56.7022 69.8993 56.7022 69.7993 56.7022C68.4293 57.0322 63.2393 58.8322 61.7293 60.2222H61.7193Z" fill="#422B08"/>
<path d="M59.7292 62.8823C61.5292 63.2323 69.5992 63.8123 71.8892 61.9623C69.2592 62.3923 60.4492 62.7323 59.7292 62.8823Z" fill="#FFE56D"/>
<path d="M59.2592 63.9423C58.8492 63.7623 58.5692 63.3523 58.5692 62.8823C58.5692 62.3323 58.9492 61.8523 59.4892 61.7423C59.8192 61.6723 60.7292 61.6223 63.2392 61.4723C66.1492 61.3023 70.1392 61.0723 71.6992 60.8123C72.2192 60.7323 72.7292 61.0023 72.9392 61.4823C73.1492 61.9623 73.0192 62.5223 72.6092 62.8523C69.6692 65.2223 60.6092 64.2323 59.4992 64.0123C59.4192 63.9923 59.3392 63.9723 59.2592 63.9423Z" fill="#422B08"/>
<path d="M57.7092 58.9522C56.9892 60.0422 56.8792 62.8322 57.9492 63.3922C58.4592 62.6722 59.0292 63.7522 59.4592 63.3622C60.7292 63.8022 61.0592 62.8222 61.0592 61.9522C61.0592 60.2822 61.2092 58.9422 60.3892 58.6522C59.6892 59.3022 58.7492 58.0122 57.7092 58.9622V58.9522Z" fill="#005BAB"/>
<path d="M57.4893 64.4522C57.4893 64.4522 57.4393 64.4322 57.4193 64.4222C56.9993 64.2022 56.4493 63.7222 56.1693 62.6722C55.8093 61.2822 56.0593 59.3722 56.7493 58.3222C56.7993 58.2422 56.8593 58.1722 56.9293 58.1022C57.9693 57.1422 59.0893 57.4522 59.6193 57.6022C59.6693 57.6222 59.7393 57.6322 59.7893 57.6522C60.0793 57.4722 60.4393 57.4322 60.7693 57.5522C62.2593 58.0722 62.2393 59.7122 62.2193 61.2922C62.2193 61.5022 62.2193 61.7222 62.2193 61.9422C62.2193 62.9722 61.8693 63.7922 61.2293 64.2422C60.8893 64.4822 60.3393 64.7122 59.5493 64.5722C59.2293 64.6422 58.8693 64.5822 58.4793 64.4122C58.1793 64.5722 57.8093 64.5822 57.4893 64.4422V64.4522ZM58.5893 59.7422C58.3093 60.3222 58.2493 61.3722 58.3693 61.9922C58.6293 61.9922 58.9193 62.0622 59.2493 62.2222C59.4393 62.1822 59.6493 62.2022 59.8393 62.2622C59.8493 62.2622 59.8593 62.2622 59.8793 62.2722C59.8993 62.1922 59.9093 62.0822 59.9093 61.9422C59.9093 61.7122 59.9093 61.4822 59.9093 61.2622C59.9093 60.8522 59.9193 60.3522 59.8993 59.9922C59.5393 59.9922 59.2293 59.9022 58.9993 59.8322C58.8793 59.8022 58.6793 59.7422 58.5993 59.7422H58.5893Z" fill="#422B08"/>
<path d="M76.9205 69.0723C75.4505 74.4923 60.0105 75.0223 42.4405 70.2523C24.8605 65.4923 11.8105 57.2323 13.2705 51.8223C14.7405 46.4023 30.1805 45.8723 47.7505 50.6423C65.3205 55.4023 78.3805 63.6623 76.9105 69.0723H76.9205Z" fill="#FDDE8E"/>
<path d="M28.7205 66.1023C18.1005 61.4723 11.5705 55.8923 12.7205 51.6723C13.5005 48.7823 17.6705 47.0723 24.4605 46.8323C31.0305 46.6123 39.3605 47.7623 47.9105 50.0823C56.4605 52.4023 64.2405 55.6123 69.7905 59.1223C75.5305 62.7523 78.2605 66.3423 77.4805 69.2223C76.7005 72.1023 72.5305 73.8223 65.7405 74.0523C59.1705 74.2823 50.8405 73.1223 42.2905 70.8023C37.3105 69.4523 32.7205 67.8423 28.7205 66.0923V66.1023ZM61.0105 55.8523C56.9705 54.0923 52.4205 52.5023 47.6105 51.2023C39.1605 48.9123 30.9505 47.7723 24.5005 47.9923C18.3505 48.2023 14.4705 49.6523 13.8405 51.9723C12.6305 56.4423 23.9005 64.6323 42.6005 69.7023C51.0505 71.9923 59.2505 73.1323 65.7105 72.9123C71.8605 72.7023 75.7405 71.2523 76.3705 68.9323C77.0005 66.6123 74.3805 63.3923 69.1805 60.1123C66.8305 58.6223 64.0705 57.1923 61.0105 55.8623V55.8523Z" fill="#422B08"/>
<path d="M45.3305 69.0823C44.4205 68.8323 43.5205 68.5823 42.6305 68.3123C42.0805 68.1423 41.7705 67.5623 41.9305 67.0123C42.1005 66.4623 42.6705 66.1323 43.2305 66.3123C44.1005 66.5723 44.9805 66.8223 45.8805 67.0623C46.4405 67.2123 46.7605 67.7823 46.6105 68.3423C46.4605 68.9023 45.8905 69.2223 45.3305 69.0723V69.0823ZM40.0005 67.4923C40.0005 67.4923 39.9605 67.4923 39.9505 67.4723C39.0505 67.1723 38.1605 66.8723 37.2905 66.5623C36.7505 66.3723 36.4705 65.7723 36.6605 65.2323C36.8505 64.6923 37.4605 64.4123 37.9905 64.6023C38.8405 64.9123 39.7105 65.2023 40.5905 65.4923C41.1405 65.6723 41.4405 66.2623 41.2605 66.8123C41.0905 67.3423 40.5305 67.6423 40.0005 67.4923ZM34.7705 65.6123C34.7705 65.6123 34.7005 65.5923 34.6605 65.5723C33.7705 65.2223 32.9005 64.8623 32.0605 64.5023C31.5305 64.2723 31.2905 63.6623 31.5205 63.1323C31.7505 62.6023 32.3605 62.3623 32.8905 62.5923C33.7105 62.9423 34.5605 63.2923 35.4305 63.6423C35.9705 63.8523 36.2305 64.4623 36.0205 64.9923C35.8205 65.4923 35.2805 65.7523 34.7805 65.6223L34.7705 65.6123ZM29.6705 63.4123C29.6105 63.3923 29.5505 63.3723 29.4905 63.3423C28.6205 62.9323 27.7705 62.5023 26.9605 62.0823C26.4505 61.8123 26.2505 61.1823 26.5205 60.6723C26.7905 60.1623 27.4205 59.9723 27.9305 60.2323C28.7105 60.6423 29.5405 61.0523 30.3805 61.4523C30.9005 61.7023 31.1205 62.3223 30.8805 62.8423C30.6605 63.3023 30.1405 63.5323 29.6705 63.4023V63.4123ZM24.7505 60.8123C24.6605 60.7923 24.5705 60.7523 24.4905 60.7023C23.6405 60.2023 22.8305 59.6823 22.0905 59.1723C21.6105 58.8523 21.4905 58.2023 21.8205 57.7223C22.1405 57.2423 22.7905 57.1223 23.2705 57.4523C23.9805 57.9423 24.7505 58.4223 25.5605 58.9023C26.0505 59.1923 26.2205 59.8323 25.9305 60.3323C25.6905 60.7423 25.2005 60.9223 24.7605 60.8123H24.7505ZM20.1705 57.6623C20.0305 57.6223 19.9005 57.5623 19.7805 57.4623C18.9605 56.7923 18.2505 56.1123 17.6505 55.4523C17.2605 55.0223 17.2905 54.3623 17.7205 53.9823C18.1505 53.5923 18.8105 53.6323 19.1905 54.0523C19.7205 54.6423 20.3705 55.2423 21.1005 55.8523C21.5405 56.2223 21.6105 56.8723 21.2405 57.3223C20.9705 57.6523 20.5405 57.7723 20.1605 57.6623H20.1705ZM16.5605 53.4923C16.2805 53.4123 16.0305 53.2223 15.8905 52.9423C15.6805 52.5123 15.5205 52.0723 15.4205 51.6523C15.2905 51.0923 15.6305 50.5323 16.1905 50.3923C16.7505 50.2623 17.3105 50.6023 17.4505 51.1623C17.5205 51.4323 17.6205 51.7223 17.7705 52.0223C18.0205 52.5423 17.8105 53.1623 17.2905 53.4123C17.0505 53.5223 16.8005 53.5423 16.5605 53.4823V53.4923Z" fill="#FBD480"/>
<path d="M48.2806 66.6723C47.3706 66.4223 46.4706 66.1723 45.5806 65.9023C45.0306 65.7423 44.7206 65.1523 44.8806 64.6023C45.0406 64.0523 45.6506 63.7323 46.1806 63.9023C47.0506 64.1623 47.9306 64.4123 48.8306 64.6523C49.3906 64.8023 49.7106 65.3723 49.5606 65.9323C49.4106 66.4923 48.8406 66.8123 48.2806 66.6623V66.6723ZM42.9606 65.0823C42.9606 65.0823 42.9206 65.0823 42.9106 65.0623C42.0106 64.7623 41.1206 64.4623 40.2506 64.1523C39.7106 63.9623 39.4306 63.3623 39.6206 62.8223C39.8106 62.2823 40.4106 61.9923 40.9506 62.1923C41.8006 62.5023 42.6706 62.7923 43.5506 63.0823C44.1006 63.2623 44.3906 63.8523 44.2206 64.4023C44.0506 64.9323 43.4906 65.2323 42.9606 65.0823ZM37.7306 63.1923C37.7306 63.1923 37.6606 63.1723 37.6206 63.1523C36.7306 62.8023 35.8606 62.4423 35.0206 62.0823C34.4906 61.8523 34.2506 61.2423 34.4806 60.7123C34.7106 60.1823 35.3206 59.9423 35.8506 60.1723C36.6706 60.5223 37.5206 60.8723 38.3906 61.2223C38.9306 61.4323 39.1906 62.0423 38.9806 62.5723C38.7806 63.0723 38.2406 63.3323 37.7406 63.2023L37.7306 63.1923ZM32.6206 60.9923C32.5606 60.9723 32.5006 60.9523 32.4406 60.9223C31.5706 60.5123 30.7206 60.0823 29.9106 59.6623C29.4006 59.3923 29.2106 58.7623 29.4706 58.2523C29.7406 57.7423 30.3706 57.5423 30.8806 57.8123C31.6606 58.2223 32.4806 58.6323 33.3306 59.0323C33.8506 59.2823 34.0706 59.9023 33.8306 60.4223C33.6106 60.8823 33.0906 61.1123 32.6206 60.9823V60.9923ZM27.7006 58.3923C27.6106 58.3723 27.5206 58.3323 27.4406 58.2823C26.5906 57.7823 25.7806 57.2623 25.0406 56.7523C24.5606 56.4323 24.4406 55.7823 24.7706 55.3023C25.0906 54.8223 25.7406 54.7023 26.2206 55.0323C26.9306 55.5223 27.7006 56.0023 28.5106 56.4823C29.0006 56.7723 29.1706 57.4123 28.8806 57.9123C28.6406 58.3223 28.1506 58.5023 27.7106 58.3923H27.7006ZM23.1306 55.2423C22.9906 55.2023 22.8606 55.1423 22.7406 55.0423C21.9306 54.3723 21.2106 53.6923 20.6106 53.0323C20.2206 52.6023 20.2506 51.9423 20.6806 51.5623C21.1106 51.1723 21.7706 51.2023 22.1506 51.6323C22.6806 52.2223 23.3306 52.8223 24.0606 53.4323C24.5006 53.8023 24.5706 54.4523 24.2006 54.9023C23.9306 55.2323 23.5006 55.3523 23.1206 55.2423H23.1306Z" fill="#FBD480"/>
<path d="M65.6605 62.1424C65.0205 64.5124 55.7305 64.0624 44.9105 61.1224C34.0905 58.1924 25.8505 53.8924 26.4905 51.5224C27.1305 49.1524 33.4505 32.1424 51.4505 37.0224C69.4405 41.9024 66.3105 59.7724 65.6605 62.1424Z" fill="#FDDE8E"/>
<path d="M33.9605 57.9723C32.9505 57.5323 32.0005 57.0823 31.1405 56.6323C27.2905 54.6223 25.5405 52.8523 25.9405 51.3823C25.9605 51.3223 27.5105 45.7423 32.0605 41.1623C37.1605 36.0023 43.9205 34.3823 51.6005 36.4723C59.2805 38.5523 64.2905 43.3623 66.1005 50.3823C67.7105 56.6423 66.2305 62.2423 66.2205 62.2923C65.8205 63.7723 63.4205 64.4123 59.0705 64.2023C55.1105 64.0123 50.0305 63.1123 44.7605 61.6823C40.7905 60.6023 37.0605 59.3223 33.9605 57.9723ZM54.7805 38.7923C53.7005 38.3223 52.5305 37.9123 51.2905 37.5823C32.7905 32.5623 27.1005 51.4823 27.0505 51.6823C26.9205 52.1723 27.7405 53.5623 31.6705 55.6123C35.1105 57.4023 39.8705 59.1723 45.0605 60.5823C50.2505 61.9923 55.2505 62.8723 59.1305 63.0623C63.5605 63.2823 64.9705 62.5023 65.1005 62.0123C65.1105 61.9623 66.5205 56.6523 64.9805 50.6923C63.5505 45.1323 60.1205 41.1523 54.7805 38.8223V38.7923Z" fill="#422B08"/>
<path d="M47.1006 53.0624C46.1806 52.8124 45.2806 52.5524 44.4006 52.2824C43.8506 52.1124 43.5406 51.5324 43.7106 50.9824C43.8806 50.4324 44.4706 50.1324 45.0106 50.2924C45.8706 50.5524 46.7506 50.8124 47.6506 51.0524C48.2106 51.2024 48.5306 51.7724 48.3806 52.3324C48.2306 52.8924 47.6606 53.2124 47.1006 53.0624ZM41.7806 51.4424C41.7806 51.4424 41.7406 51.4324 41.7206 51.4224C40.8106 51.1124 39.9206 50.7924 39.0706 50.4724C38.5306 50.2724 38.2606 49.6624 38.4706 49.1324C38.6706 48.5924 39.2806 48.3224 39.8206 48.5324C40.6506 48.8524 41.5206 49.1624 42.4006 49.4624C42.9506 49.6424 43.2406 50.2424 43.0506 50.7824C42.8706 51.3024 42.3206 51.5924 41.7906 51.4524L41.7806 51.4424ZM36.5906 49.4624C36.5906 49.4624 36.5006 49.4324 36.4506 49.4124C35.5306 49.0124 34.6706 48.6124 33.8706 48.2124C33.3606 47.9524 33.1506 47.3224 33.4106 46.8124C33.6706 46.3024 34.3006 46.0924 34.8106 46.3524C35.5706 46.7324 36.4006 47.1224 37.2806 47.4924C37.8106 47.7224 38.0506 48.3324 37.8206 48.8624C37.6106 49.3424 37.0806 49.5924 36.5906 49.4524V49.4624ZM31.6406 46.9324C31.5406 46.9024 31.4506 46.8624 31.3506 46.8024L31.2306 46.7324C30.7506 46.4224 30.6006 45.7824 30.9106 45.2924C31.2206 44.8124 31.8606 44.6624 32.3506 44.9724L32.4606 45.0424C32.9506 45.3524 33.0906 45.9924 32.7806 46.4824C32.5306 46.8824 32.0606 47.0524 31.6306 46.9324H31.6406Z" fill="#FBD480"/>
<path d="M49.1905 49.7223C49.1905 49.7223 49.1905 49.7223 49.1805 49.7223C48.2605 49.4623 47.3605 49.1923 46.4905 48.9123C45.9405 48.7423 45.6405 48.1523 45.8105 47.6023C45.9805 47.0523 46.5505 46.7423 47.1205 46.9223C47.9705 47.1923 48.8505 47.4623 49.7505 47.7123C50.3005 47.8723 50.6205 48.4423 50.4705 49.0023C50.3105 49.5523 49.7405 49.8723 49.1905 49.7223ZM43.9005 48.0423C43.9005 48.0423 43.8505 48.0223 43.8205 48.0223C42.9105 47.7023 42.0305 47.3623 41.1805 47.0223C40.6505 46.8123 40.3905 46.2023 40.6005 45.6623C40.8105 45.1323 41.4105 44.8723 41.9605 45.0823C42.7805 45.4123 43.6405 45.7323 44.5205 46.0523C45.0605 46.2423 45.3505 46.8423 45.1505 47.3823C44.9705 47.9023 44.4205 48.1823 43.9005 48.0423ZM38.7405 45.9623C38.6805 45.9523 38.6305 45.9323 38.5805 45.9023C37.6605 45.4823 36.8005 45.0523 36.0305 44.6323C35.5205 44.3523 35.3405 43.7223 35.6205 43.2123C35.9005 42.7123 36.5305 42.5223 37.0305 42.8023C37.7605 43.2023 38.5705 43.6023 39.4505 44.0123C39.9705 44.2523 40.2005 44.8723 39.9605 45.3923C39.7405 45.8623 39.2205 46.0923 38.7405 45.9623Z" fill="#FBD480"/>
<path d="M51.8505 46.4724C51.8505 46.4724 51.8305 46.4724 51.8205 46.4724C50.9005 46.2024 50.0105 45.9124 49.1405 45.6224C48.5905 45.4424 48.3005 44.8524 48.4805 44.3024C48.6605 43.7524 49.2405 43.4624 49.8005 43.6424C50.6505 43.9224 51.5205 44.2024 52.4205 44.4724C52.9705 44.6324 53.2805 45.2224 53.1205 45.7724C52.9605 46.3124 52.3905 46.6324 51.8505 46.4824V46.4724ZM46.5805 44.7124C46.5805 44.7124 46.5205 44.6924 46.4905 44.6824C45.5805 44.3424 44.7005 43.9924 43.8705 43.6424C43.3405 43.4224 43.0905 42.8024 43.3205 42.2724C43.5405 41.7424 44.1605 41.4924 44.6905 41.7224C45.4905 42.0624 46.3505 42.4024 47.2305 42.7324C47.7705 42.9324 48.0405 43.5324 47.8405 44.0724C47.6505 44.5824 47.1105 44.8524 46.5905 44.7124H46.5805ZM41.4605 42.5324C41.4005 42.5124 41.3305 42.4924 41.2705 42.4624C40.3305 42.0024 39.4805 41.5424 38.7405 41.0924C38.2505 40.7924 38.0905 40.1524 38.3905 39.6624C38.6905 39.1724 39.3305 39.0124 39.8205 39.3124C40.5105 39.7324 41.3005 40.1624 42.1805 40.5924C42.7005 40.8424 42.9105 41.4724 42.6605 41.9924C42.4405 42.4524 41.9205 42.6724 41.4505 42.5424L41.4605 42.5324Z" fill="#FBD480"/>
<path d="M53.0405 42.9923C53.0405 42.9923 52.9905 42.9823 52.9705 42.9723C52.0505 42.6523 51.1705 42.3523 50.3405 42.0523C49.8005 41.8623 49.5105 41.2623 49.7105 40.7223C49.9005 40.1823 50.5105 39.9023 51.0405 40.0923C51.8705 40.3923 52.7405 40.6923 53.6605 41.0123C54.2005 41.2023 54.4905 41.7923 54.3005 42.3423C54.1205 42.8623 53.5705 43.1523 53.0405 43.0023V42.9923ZM47.8105 41.1023C47.8105 41.1023 47.7405 41.0823 47.7005 41.0623C46.6805 40.6623 45.8305 40.2923 45.0705 39.9323C44.5505 39.6823 44.3405 39.0623 44.5905 38.5423C44.8405 38.0223 45.4705 37.8123 45.9805 38.0623C46.6805 38.4023 47.4905 38.7523 48.4605 39.1323C49.0005 39.3423 49.2605 39.9523 49.0505 40.4823C48.8505 40.9823 48.3105 41.2423 47.8105 41.1123V41.1023Z" fill="#FBD480"/>
<path d="M46.3105 55.9922C37.0605 53.4822 29.7005 49.9822 28.1605 47.5422C27.1805 49.4122 26.6605 50.9322 26.5005 51.5322C25.8605 53.9022 34.1005 58.2022 44.9205 61.1322C55.7405 64.0622 65.0205 64.5222 65.6705 62.1522C65.8305 61.5522 66.1505 59.9722 66.2505 57.8722C63.6805 59.2022 55.5605 58.5122 46.3105 56.0022V55.9922Z" fill="#005BAB"/>
<path d="M33.9605 57.9723C32.9505 57.5323 32.0005 57.0823 31.1405 56.6323C27.2905 54.6223 25.5405 52.8523 25.9405 51.3823C25.9905 51.2023 26.4505 49.5723 27.6505 47.2723C27.7505 47.0923 27.9305 46.9723 28.1405 46.9623C28.3505 46.9623 28.5405 47.0523 28.6505 47.2323C29.9305 49.2523 36.4605 52.7223 46.4705 55.4423C56.4805 58.1523 63.8605 58.4623 65.9905 57.3523C66.1705 57.2523 66.3905 57.2723 66.5705 57.3823C66.7405 57.4923 66.8405 57.6923 66.8405 57.8923C66.7205 60.4723 66.2905 62.1223 66.2405 62.3023C65.8405 63.7823 63.4405 64.4223 59.0905 64.2123C55.1305 64.0223 50.0505 63.1223 44.7805 61.6923C40.8105 60.6123 37.0805 59.3323 33.9805 57.9823L33.9605 57.9723ZM28.2705 48.5923C27.5905 50.0123 27.1905 51.1623 27.0505 51.6823C26.9205 52.1723 27.7405 53.5623 31.6705 55.6123C35.1105 57.4023 39.8705 59.1723 45.0605 60.5823C50.2505 61.9923 55.2505 62.8723 59.1305 63.0623C63.5605 63.2823 64.9705 62.5023 65.1005 62.0123C65.2405 61.5023 65.4805 60.3023 65.6105 58.7323C62.2105 59.6623 54.5405 58.8423 46.1605 56.5723C37.7805 54.3023 30.7405 51.1423 28.2805 48.6123L28.2705 48.5923Z" fill="#422B08"/>
<path d="M61.1905 61.0222C64.8205 61.6822 69.4405 64.2822 72.7505 68.7822L66.2705 71.9522C63.9705 69.3522 60.9005 67.4322 59.7405 62.0522L61.1905 61.0222Z" fill="#005BAB"/>
<path d="M66.0405 72.4722C65.9605 72.4422 65.9005 72.3922 65.8405 72.3222C65.3605 71.7822 64.8605 71.2822 64.3205 70.7522C62.3505 68.7922 60.1205 66.5722 59.1705 62.1722C59.1205 61.9422 59.2105 61.7122 59.4005 61.5822L60.8505 60.5522C60.9805 60.4622 61.1305 60.4222 61.2905 60.4522C64.6605 61.0622 69.5705 63.4822 73.2105 68.4322C73.3105 68.5722 73.3505 68.7422 73.3105 68.9122C73.2705 69.0822 73.1605 69.2222 73.0005 69.2922L66.5205 72.4622C66.3605 72.5422 66.1905 72.5422 66.0305 72.4722H66.0405ZM60.3905 62.3022C61.3105 66.1222 63.2605 68.0622 65.1405 69.9422C65.5605 70.3622 65.9905 70.7922 66.4105 71.2422L71.8705 68.5722C68.5705 64.3822 64.3405 62.2522 61.3305 61.6422L60.3905 62.3122V62.3022Z" fill="#422B08"/>
<path d="M60.4305 61.6622C62.6705 62.6822 64.4505 64.6522 64.4305 65.0322C62.6005 64.9622 60.6605 62.2822 60.4305 61.6622Z" fill="#00478A"/>
<path d="M56.9605 60.8523C53.2905 61.2123 48.4805 63.4323 44.8105 67.6423L51.0205 71.3323C53.5305 68.9323 56.7405 67.2623 58.3305 62.0023L56.9605 60.8523Z" fill="#005BAB"/>
<path d="M50.7805 71.8523C50.7805 71.8523 50.7405 71.8323 50.7205 71.8223L44.5105 68.1323C44.3605 68.0423 44.2605 67.8923 44.2305 67.7223C44.2005 67.5523 44.2505 67.3823 44.3605 67.2523C48.4005 62.6123 53.4805 60.6023 56.8905 60.2623C57.0405 60.2423 57.2005 60.2923 57.3205 60.3923L58.6905 61.5423C58.8705 61.6923 58.9405 61.9323 58.8705 62.1523C57.5605 66.4623 55.1605 68.4923 53.0405 70.2923C52.4605 70.7823 51.9205 71.2423 51.4005 71.7323C51.2305 71.8923 50.9805 71.9323 50.7705 71.8423L50.7805 71.8523ZM45.7105 67.5023L50.9405 70.6123C51.3905 70.2023 51.8605 69.8023 52.3105 69.4223C54.3405 67.7023 56.4405 65.9323 57.6605 62.1923L56.7805 61.4523C53.7205 61.8223 49.3405 63.5923 45.7105 67.5023Z" fill="#422B08"/>
<path d="M57.6705 61.5522C55.3605 62.3922 53.4205 64.2022 53.4105 64.5922C55.2405 64.6622 57.3905 62.1522 57.6705 61.5522Z" fill="#00478A"/>
<path d="M58.1205 59.5223C56.6305 57.5423 50.4005 55.0023 49.5305 54.7323C48.6605 54.6223 47.9605 54.6423 47.1305 57.5823C46.9105 58.8323 45.2205 60.7723 46.9705 61.3423C49.8605 62.6523 57.6605 62.9323 58.7505 62.7123L58.1205 59.5223Z" fill="#005BAB"/>
<path d="M46.5705 61.8123C46.1705 61.6423 45.8905 61.3823 45.7405 61.0323C45.4005 60.2723 45.7905 59.4123 46.1605 58.5723C46.3305 58.1823 46.5105 57.7823 46.5605 57.4923C46.5605 57.4723 46.5605 57.4523 46.5705 57.4323C47.4005 54.4623 48.2405 53.9923 49.5905 54.1623C49.6205 54.1623 49.6605 54.1723 49.6905 54.1823C50.2505 54.3523 56.8805 56.9223 58.5705 59.1723C58.6205 59.2423 58.6605 59.3223 58.6805 59.4123L59.3105 62.6023C59.3705 62.9123 59.1705 63.2123 58.8605 63.2823C57.7605 63.5023 49.8805 63.2523 46.8005 61.9023C46.7905 61.9023 46.7705 61.8923 46.7605 61.8823C46.6905 61.8623 46.6305 61.8323 46.5705 61.8123ZM47.6905 57.7223C47.6105 58.1523 47.4105 58.6023 47.2105 59.0423C46.9805 59.5623 46.6605 60.2723 46.7905 60.5623C46.8305 60.6523 46.9505 60.7323 47.1405 60.7923C47.1605 60.7923 47.1805 60.8123 47.2005 60.8123C47.2205 60.8123 47.2405 60.8323 47.2605 60.8423C49.7105 61.9123 55.9705 62.2623 58.0505 62.1923L57.5705 59.7623C56.1205 58.0323 50.5505 55.6623 49.4005 55.2923C48.8405 55.2223 48.3805 55.2423 47.6905 57.7123V57.7223Z" fill="#422B08"/>
<path d="M58.8105 62.8423C56.9905 63.0523 48.9005 62.9623 46.7605 60.9323C49.3405 61.5723 58.1005 62.6323 58.8105 62.8423Z" fill="#FFE56D"/>
<path d="M47.7105 62.1923C47.1705 61.9523 46.7105 61.6823 46.3705 61.3623C46.1805 61.1823 46.1405 60.8923 46.2605 60.6623C46.3905 60.4323 46.6505 60.3123 46.9105 60.3823C48.4705 60.7723 52.4405 61.3323 55.3405 61.7323C57.5205 62.0423 58.6805 62.2023 58.9805 62.2923C59.2405 62.3723 59.4205 62.6223 59.3905 62.8923C59.3705 63.1623 59.1505 63.3823 58.8805 63.4223C57.4805 63.5823 51.0305 63.6423 47.7105 62.1923Z" fill="#422B08"/>
<path d="M60.6905 59.6223C62.3405 57.7623 68.7505 55.7423 69.6405 55.5523C70.5105 55.5123 71.2205 55.5923 71.8005 58.5923C71.9105 59.8523 73.4405 61.9323 71.6605 62.3523C68.6705 63.4223 60.8705 63.0623 59.8105 62.7623L60.6905 59.6323V59.6223Z" fill="#005BAB"/>
<path d="M59.5705 63.2923C59.3105 63.1823 59.1705 62.8823 59.2505 62.6023L60.1305 59.4723C60.1505 59.3923 60.2005 59.3123 60.2505 59.2423C62.1205 57.1423 68.9305 55.1123 69.5105 54.9923C69.5405 54.9923 69.5805 54.9823 69.6105 54.9823C70.9705 54.9323 71.7705 55.4523 72.3605 58.4823C72.3605 58.5023 72.3605 58.5223 72.3605 58.5423C72.3905 58.8423 72.5305 59.2523 72.6705 59.6523C72.9705 60.5223 73.2905 61.4123 72.8905 62.1423C72.6805 62.5223 72.3205 62.7823 71.8005 62.9123C68.6505 64.0223 60.7105 63.6323 59.6305 63.3223C59.6105 63.3223 59.5805 63.3023 59.5605 63.2923H59.5705ZM61.2005 59.9223L60.5305 62.3023C62.6105 62.5423 68.9705 62.7023 71.4505 61.8123C71.4705 61.8123 71.4905 61.8023 71.5105 61.7923C71.7105 61.7423 71.8305 61.6723 71.8805 61.5923C72.0305 61.3123 71.7705 60.5823 71.5805 60.0423C71.4205 59.5823 71.2505 59.1123 71.2105 58.6823C70.7205 56.1723 70.2605 56.1123 69.7005 56.1323C68.5205 56.4123 62.7805 58.3123 61.1905 59.9223H61.2005Z" fill="#422B08"/>
<path d="M59.7305 62.8823C61.5305 63.2323 69.6005 63.8123 71.8905 61.9623C69.2605 62.3923 60.4505 62.7323 59.7305 62.8823Z" fill="#FFE56D"/>
<path d="M59.4905 63.4123C59.2805 63.3223 59.1405 63.1223 59.1405 62.8823C59.1405 62.6023 59.3305 62.3723 59.6005 62.3123C59.9005 62.2523 61.0705 62.1823 63.2705 62.0523C66.1905 61.8823 70.2005 61.6423 71.7905 61.3923C72.0505 61.3523 72.3005 61.4823 72.4105 61.7223C72.5205 61.9623 72.4505 62.2423 72.2505 62.4123C69.6505 64.5123 61.2205 63.7723 59.6105 63.4523C59.5705 63.4523 59.5305 63.4323 59.4905 63.4123Z" fill="#422B08"/>
<path d="M57.7106 58.9523C56.9906 60.0423 56.8806 62.8323 57.9506 63.3923C58.4606 62.6723 59.0306 63.7523 59.4606 63.3623C60.7306 63.8023 61.0606 62.8223 61.0606 61.9523C61.0606 60.2823 61.2106 58.9423 60.3906 58.6523C59.6906 59.3023 58.7506 58.0123 57.7106 58.9623V58.9523Z" fill="#005BAB"/>
<path d="M57.7205 63.9223C57.7205 63.9223 57.7005 63.9123 57.6805 63.9023C57.2305 63.6723 56.9005 63.1923 56.7205 62.5223C56.4005 61.2923 56.6205 59.5423 57.2205 58.6323C57.2505 58.5923 57.2805 58.5523 57.3105 58.5223C58.1105 57.7823 58.9205 58.0123 59.4505 58.1623C59.8205 58.2623 59.9205 58.2723 59.9805 58.2223C60.1405 58.0723 60.3605 58.0323 60.5605 58.1023C61.6605 58.4923 61.6405 59.7923 61.6205 61.2923C61.6205 61.5023 61.6205 61.7223 61.6205 61.9523C61.6205 62.5523 61.4905 63.3523 60.8805 63.7823C60.6205 63.9723 60.1805 64.1423 59.5205 63.9823C59.1205 64.1223 58.7305 63.9123 58.5405 63.8123C58.5005 63.7923 58.4405 63.7623 58.4005 63.7423C58.2405 63.9523 57.9505 64.0323 57.7105 63.9223H57.7205ZM58.1605 59.3323C57.8005 59.9423 57.6005 61.2723 57.8505 62.2323C57.8905 62.3923 57.9405 62.5223 58.0005 62.6323C58.4605 62.4523 58.9105 62.6923 59.0905 62.7923C59.1205 62.8123 59.1605 62.8323 59.2005 62.8423C59.3405 62.7723 59.5005 62.7623 59.6505 62.8123C59.8005 62.8623 60.0805 62.9423 60.2205 62.8323C60.3805 62.7223 60.4805 62.3723 60.4805 61.9423C60.4805 61.7123 60.4805 61.4823 60.4805 61.2723C60.4905 60.5223 60.5005 59.6823 60.3305 59.3423C59.9005 59.4923 59.4605 59.3723 59.1405 59.2823C58.6805 59.1523 58.4405 59.1023 58.1505 59.3423L58.1605 59.3323Z" fill="#422B08"/>
</svg>
