<svg width="79" height="75" viewBox="0 0 79 75" fill="none" xmlns="http://www.w3.org/2000/svg">
<path d="M77.2891 25.7281L41.3876 14.8615L26.8301 62.9566L62.7316 73.8233L77.2891 25.7281Z" fill="#54B782"/>
<path d="M46.3899 16.3643L41.4033 14.855L26.8459 62.9501L31.8325 64.4595L46.3899 16.3643Z" fill="#47A072"/>
<mask id="mask0_143_6682" style="mask-type:luminance" maskUnits="userSpaceOnUse" x="36" y="37" width="33" height="33">
<path d="M68.0734 45.1281L43.4946 37.6886L36.0551 62.2674L60.6339 69.7069L68.0734 45.1281Z" fill="white"/>
</mask>
<g mask="url(#mask0_143_6682)">
<path d="M68.8604 44.5752L43.2001 36.8083L35.4332 62.4687L61.0935 70.2355L68.8604 44.5752Z" fill="#BAE2F8"/>
<path d="M39.6908 59.1143L62.2008 65.9243L63.1008 62.9543C62.4408 61.0343 61.2408 53.5443 58.5208 55.3643C52.3208 57.8843 52.1908 57.3643 49.4108 52.0343C46.5208 45.8143 43.9708 50.7743 38.4908 54.3643L39.6908 59.1243V59.1143Z" fill="#D6D791"/>
<path d="M46.0308 56.9144L47.3708 51.2244C47.4508 50.8844 47.9108 50.8144 48.0908 51.1144L51.8708 57.5644C52.0408 57.8444 51.8008 58.1944 51.4708 58.1544L46.3508 57.3944C46.1208 57.3644 45.9708 57.1444 46.0308 56.9144Z" fill="#C8CA89"/>
<path d="M58.0509 60.2743L59.9209 55.9843C60.0309 55.7243 60.4009 55.7343 60.5009 56.0043L62.5509 61.6243C62.6409 61.8743 62.4009 62.1143 62.1609 62.0243L58.2409 60.6943C58.0709 60.6343 57.9809 60.4443 58.0509 60.2743Z" fill="#C8CA89"/>
<path d="M39.7909 55.6443C47.8609 56.8443 57.1209 57.6743 64.4209 61.7943L62.5409 68.0043L38.7909 60.8143L39.7909 55.6443Z" fill="#FDDC78"/>
<path d="M39.4908 57.3344C47.5608 58.5344 56.9508 58.2543 64.2408 62.3743L62.3608 68.5844L38.6108 61.3943L39.4908 57.3344Z" fill="#F8C284"/>
<path d="M39.4708 59.9343C47.5408 61.1343 54.0608 58.1143 63.5008 64.4343L61.8608 69.8543L38.1108 62.6643L39.4708 59.9243V59.9343Z" fill="#F4AF86"/>
<path d="M40.0808 63.9443L61.7208 70.4943C62.8808 62.8843 52.0308 60.1143 40.0808 63.9443Z" fill="#F5BAA6"/>
<path d="M49.1609 44.6643C48.4409 44.2143 47.0609 43.4143 46.5409 42.5543C46.1209 41.8543 44.2109 40.7843 42.3609 40.0643L40.7509 45.3643C41.1309 45.7043 42.3609 45.5843 42.9309 45.4843C44.2909 45.2543 46.5709 46.8643 52.5809 48.4643C56.6709 49.5443 51.3409 47.2943 51.8909 46.7543C52.1209 46.5343 49.8709 45.1043 49.1509 44.6543L49.1609 44.6643Z" fill="#EAF5FC"/>
<path d="M62.6809 45.3944C63.2709 45.4144 64.3909 45.4744 65.0209 45.1844C65.5409 44.9444 67.0609 45.0544 68.4209 45.3544L67.3009 49.0644C66.9409 49.1144 66.2809 48.5644 65.9809 48.2844C65.2809 47.6244 63.3209 47.6744 59.2009 46.2744C56.4009 45.3244 60.3809 46.0744 60.2709 45.5544C60.2209 45.3344 62.0909 45.3744 62.6809 45.3944Z" fill="#EAF5FC"/>
<path d="M55.0808 64.3743C55.5608 64.2143 56.0708 64.7443 55.8408 65.2443L55.6908 65.2243L55.6708 65.3743C55.1308 65.4643 54.7408 64.8343 55.0308 64.4143C55.0308 64.4143 55.0908 64.3643 55.0908 64.3743H55.0808Z" fill="#F4B098"/>
<path d="M52.5109 64.3043C52.1809 64.5643 51.6309 64.2943 51.6709 63.8343L51.8009 63.8043L51.7709 63.6743C52.1709 63.4543 52.6509 63.8443 52.5509 64.2443L52.5209 64.2943L52.5109 64.3043Z" fill="#F4B098"/>
<path d="M47.7909 57.7144C47.5309 57.9244 47.0809 57.7044 47.1209 57.3344L47.2209 57.3144L47.2009 57.2144C47.5209 57.0344 47.9009 57.3444 47.8209 57.6744L47.7909 57.7144Z" fill="#FCD369"/>
<path d="M56.1908 67.6143C55.7908 67.7443 55.3608 67.3043 55.5608 66.8843L55.6908 66.9043L55.7108 66.7743C56.1608 66.7043 56.4808 67.2243 56.2508 67.5743L56.2008 67.6143H56.1908Z" fill="#F4B098"/>
<path d="M50.8208 66.1143C50.4208 66.2443 49.9908 65.8043 50.1908 65.3843L50.3208 65.4043L50.3408 65.2743C50.7908 65.2043 51.1108 65.7243 50.8808 66.0743L50.8308 66.1143H50.8208Z" fill="#F4B098"/>
<path d="M59.2409 67.2243C59.6409 66.9143 60.3009 67.2443 60.2509 67.7943L60.1009 67.8243L60.1309 67.9743C59.6509 68.2443 59.0809 67.7743 59.2009 67.2843L59.2409 67.2243Z" fill="#F4B098"/>
<path d="M57.8109 60.2044C58.2909 60.0444 58.8009 60.5744 58.5709 61.0744L58.4209 61.0544L58.4009 61.2044C57.8609 61.2944 57.4709 60.6644 57.7609 60.2444C57.7609 60.2444 57.8209 60.1944 57.8209 60.2044H57.8109Z" fill="#F6B878"/>
<path d="M58.8709 63.3544C58.5509 63.4644 58.2109 63.1044 58.3609 62.7744H58.4609L58.4709 62.6844C58.8309 62.6244 59.0909 63.0444 58.9009 63.3244L58.8609 63.3544H58.8709Z" fill="#F3A479"/>
<path d="M62.0709 62.6944C62.4709 62.3844 63.1309 62.7144 63.0809 63.2644L62.9309 63.2944L62.9609 63.4444C62.4809 63.7144 61.9109 63.2444 62.0309 62.7544L62.0709 62.6944Z" fill="#F6B878"/>
<path d="M46.3708 64.4243C45.8708 64.4543 45.5108 63.8043 45.8608 63.3843L46.0008 63.4443L46.0608 63.3043C46.6108 63.3543 46.8108 64.0643 46.4308 64.4043L46.3608 64.4343L46.3708 64.4243Z" fill="#F4B098"/>
<path d="M51.7309 59.8644C51.4009 60.1244 50.8509 59.8544 50.8909 59.3944L51.0209 59.3644L50.9909 59.2344C51.3909 59.0144 51.8709 59.4044 51.7709 59.8044L51.7409 59.8544L51.7309 59.8644Z" fill="#F6B878"/>
<path d="M50.0309 61.6743C49.6309 61.8043 49.2009 61.3643 49.4009 60.9443L49.5309 60.9643L49.5509 60.8343C50.0009 60.7643 50.3209 61.2843 50.0909 61.6343L50.0409 61.6743H50.0309Z" fill="#F3A479"/>
<path d="M45.5409 59.8744C45.1409 59.9044 44.8509 59.3844 45.1309 59.0444L45.2509 59.0944L45.3009 58.9744C45.7409 59.0144 45.9009 59.5844 45.6009 59.8544L45.5509 59.8744H45.5409Z" fill="#F6B878"/>
<path d="M38.4708 51.8943L35.2408 62.5643L44.9508 65.5043C41.9508 63.7343 42.3408 52.6843 38.4708 51.8943Z" fill="#D6D791"/>
</g>
<path d="M51.3408 27.0543L51.6108 26.1543L53.6808 26.7843L53.1208 28.6243C52.6408 28.7743 52.2408 28.8543 51.9008 28.8543C51.5708 28.8543 51.1908 28.8043 50.7708 28.6743C50.2608 28.5143 49.8608 28.3043 49.5908 28.0343C49.3208 27.7643 49.1508 27.4243 49.0708 27.0243C49.0008 26.6243 49.0308 26.2043 49.1608 25.7543C49.3008 25.2843 49.5208 24.9043 49.8308 24.6143C50.1308 24.3243 50.5008 24.1443 50.9308 24.0743C51.2708 24.0243 51.6808 24.0743 52.1808 24.2243C52.6608 24.3643 53.0008 24.5243 53.2108 24.6743C53.4208 24.8343 53.5808 25.0243 53.6808 25.2543C53.7808 25.4843 53.8308 25.7543 53.8208 26.0543L52.4608 25.8943C52.4608 25.7143 52.4008 25.5643 52.3008 25.4343C52.2008 25.3143 52.0508 25.2143 51.8508 25.1543C51.5608 25.0643 51.2908 25.0943 51.0608 25.2443C50.8208 25.3943 50.6408 25.6943 50.5108 26.1343C50.3708 26.6043 50.3608 26.9643 50.4708 27.2143C50.5908 27.4643 50.8008 27.6443 51.1208 27.7343C51.2708 27.7843 51.4208 27.8043 51.5708 27.7943C51.7208 27.7943 51.9008 27.7643 52.1008 27.7143L52.2208 27.3043L51.3308 27.0343L51.3408 27.0543Z" fill="white"/>
<path d="M57.8509 26.0143L59.1809 26.4143L58.4009 28.9943C58.3209 29.2543 58.2109 29.4743 58.0609 29.6843C57.9109 29.8843 57.7309 30.0443 57.5009 30.1643C57.2809 30.2843 57.0609 30.3443 56.8609 30.3643C56.5709 30.3843 56.2409 30.3343 55.8809 30.2243C55.6709 30.1643 55.4409 30.0743 55.2009 29.9743C54.9609 29.8643 54.7709 29.7443 54.6309 29.6143C54.4909 29.4743 54.3709 29.3043 54.2809 29.1043C54.1909 28.9043 54.1509 28.7043 54.1509 28.5243C54.1509 28.2243 54.1809 27.9643 54.2509 27.7543L55.0309 25.1743L56.3609 25.5743L55.5609 28.2143C55.4909 28.4543 55.5009 28.6543 55.5909 28.8243C55.6809 28.9943 55.8409 29.1143 56.0709 29.1843C56.3009 29.2543 56.5009 29.2443 56.6709 29.1543C56.8409 29.0643 56.9609 28.8943 57.0309 28.6543L57.8309 26.0143H57.8509Z" fill="white"/>
<path d="M60.1208 26.7043L61.4608 27.1143L60.1508 31.4443L58.8108 31.0343L60.1208 26.7043Z" fill="white"/>
<path d="M62.4409 27.4043L64.4309 28.0043C64.8209 28.1243 65.1209 28.2743 65.3309 28.4543C65.5409 28.6343 65.6909 28.8443 65.7909 29.0943C65.8909 29.3443 65.9309 29.6043 65.9209 29.8943C65.9209 30.1843 65.8609 30.4743 65.7709 30.7643C65.6309 31.2243 65.4709 31.5743 65.2909 31.7943C65.1109 32.0143 64.9009 32.1843 64.6609 32.3043C64.4209 32.4243 64.1909 32.4743 63.9509 32.4643C63.6309 32.4543 63.3609 32.4143 63.1209 32.3443L61.1309 31.7443L62.4409 27.4143V27.4043ZM63.4809 28.7843L62.7609 31.1443L63.0909 31.2443C63.3709 31.3243 63.5809 31.3543 63.7109 31.3343C63.8509 31.3043 63.9709 31.2243 64.0909 31.0943C64.2109 30.9643 64.3109 30.7243 64.4209 30.3743C64.5609 29.9143 64.5809 29.5743 64.4809 29.3643C64.3809 29.1543 64.1609 28.9943 63.8109 28.8843L63.4809 28.7843Z" fill="white"/>
<path d="M67.1208 28.8243L70.7008 29.9043L70.4208 30.8243L68.1808 30.1443L67.9708 30.8343L70.0508 31.4643L69.7808 32.3443L67.7008 31.7143L67.4408 32.5643L69.7508 33.2643L69.4508 34.2443L65.8008 33.1443L67.1108 28.8143L67.1208 28.8243Z" fill="white"/>
<path d="M49.1608 29.4343L51.6608 30.1943C52.0808 30.3243 52.3708 30.5243 52.5308 30.7943C52.6908 31.0643 52.7308 31.3543 52.6308 31.6643C52.5508 31.9243 52.4108 32.1143 52.1908 32.2543C52.0508 32.3443 51.8608 32.3943 51.6408 32.4043C51.9308 32.5743 52.1208 32.7743 52.2108 32.9943C52.3008 33.2243 52.3108 33.4743 52.2208 33.7443C52.1508 33.9643 52.0408 34.1543 51.8808 34.3043C51.7208 34.4543 51.5408 34.5543 51.3208 34.6043C51.1908 34.6343 51.0008 34.6343 50.7708 34.5943C50.4608 34.5443 50.2508 34.5043 50.1508 34.4743L47.8408 33.7743L49.1508 29.4443L49.1608 29.4343ZM50.0008 31.5443L50.5808 31.7243C50.7908 31.7843 50.9408 31.7943 51.0508 31.7443C51.1508 31.6943 51.2308 31.6043 51.2708 31.4743C51.3108 31.3443 51.3008 31.2343 51.2408 31.1443C51.1808 31.0443 51.0508 30.9743 50.8508 30.9043L50.2608 30.7243L50.0108 31.5443H50.0008ZM49.4908 33.2443L50.1708 33.4543C50.4008 33.5243 50.5708 33.5343 50.6908 33.4743C50.8108 33.4243 50.8908 33.3243 50.9308 33.1843C50.9708 33.0543 50.9508 32.9443 50.8808 32.8343C50.8108 32.7243 50.6608 32.6443 50.4208 32.5643L49.7408 32.3543L49.4708 33.2343L49.4908 33.2443Z" fill="white"/>
<path d="M53.0409 32.9743C53.2509 32.2643 53.6209 31.7743 54.1309 31.5043C54.6409 31.2343 55.2509 31.1943 55.9509 31.4143C56.6709 31.6343 57.1709 31.9943 57.4409 32.4943C57.7109 32.9943 57.7409 33.5943 57.5309 34.2943C57.3809 34.8043 57.1709 35.1843 56.9009 35.4643C56.6309 35.7343 56.3109 35.9143 55.9309 35.9943C55.5509 36.0743 55.1309 36.0443 54.6509 35.9043C54.1609 35.7543 53.7809 35.5543 53.5109 35.3043C53.2409 35.0543 53.0509 34.7243 52.9609 34.3343C52.8609 33.9343 52.8909 33.4843 53.0409 32.9843V32.9743ZM54.3809 33.3843C54.2509 33.8243 54.2309 34.1643 54.3409 34.3943C54.4409 34.6343 54.6409 34.7943 54.9209 34.8843C55.2109 34.9743 55.4609 34.9443 55.6709 34.8043C55.8809 34.6643 56.0609 34.3543 56.2109 33.8743C56.3309 33.4643 56.3409 33.1443 56.2309 32.9043C56.1209 32.6643 55.9309 32.5043 55.6509 32.4243C55.3809 32.3443 55.1409 32.3743 54.9109 32.5143C54.6909 32.6543 54.5109 32.9443 54.3809 33.3843Z" fill="white"/>
<path d="M58.0808 34.4943C58.2908 33.7843 58.6608 33.2943 59.1708 33.0243C59.6808 32.7543 60.2908 32.7143 60.9908 32.9343C61.7108 33.1543 62.2108 33.5143 62.4808 34.0143C62.7508 34.5143 62.7808 35.1143 62.5708 35.8143C62.4208 36.3243 62.2108 36.7043 61.9408 36.9843C61.6708 37.2543 61.3508 37.4343 60.9708 37.5143C60.5908 37.5943 60.1708 37.5643 59.6908 37.4243C59.2008 37.2743 58.8208 37.0743 58.5508 36.8243C58.2808 36.5743 58.0908 36.2443 58.0008 35.8543C57.9008 35.4543 57.9308 35.0043 58.0808 34.5043V34.4943ZM59.4108 34.9043C59.2808 35.3443 59.2608 35.6843 59.3708 35.9243C59.4708 36.1643 59.6708 36.3243 59.9508 36.4143C60.2408 36.5043 60.4908 36.4743 60.7008 36.3343C60.9108 36.1943 61.0908 35.8843 61.2408 35.3943C61.3608 34.9843 61.3708 34.6643 61.2608 34.4243C61.1508 34.1843 60.9608 34.0243 60.6808 33.9443C60.4108 33.8643 60.1708 33.8943 59.9408 34.0343C59.7208 34.1743 59.5408 34.4643 59.4108 34.9043Z" fill="white"/>
<path d="M63.9409 33.9043L65.2809 34.3043L64.7909 35.9443L66.6909 34.7343L68.4709 35.2743L66.4009 36.4343L67.2309 39.6243L65.5809 39.1243L65.2109 37.0643L64.3009 37.5743L63.9809 38.6343L62.6409 38.2343L63.9509 33.9043H63.9409Z" fill="white"/>
<path d="M26.4608 63.7143C26.3108 63.6343 26.1808 63.5143 26.1008 63.3543C25.9908 63.1543 25.9708 62.9243 26.0408 62.7043L40.5808 14.6043C40.7208 14.1543 41.1908 13.9043 41.6408 14.0343L77.5408 24.8943C77.7608 24.9543 77.9408 25.1043 78.0408 25.3043C78.1508 25.5043 78.1708 25.7343 78.1008 25.9543L63.5508 74.0543C63.4108 74.5043 62.9408 74.7543 62.4908 74.6243L26.5908 63.7643C26.5908 63.7643 26.5008 63.7343 26.4508 63.7043L26.4608 63.7143ZM41.9608 15.9143L27.9008 62.3843L62.1708 72.7543L76.2308 26.2843L41.9608 15.9143Z" fill="#422B08"/>
<path d="M77.2889 25.7283L41.3875 14.8617L26.83 62.9568L62.7315 73.8235L77.2889 25.7283Z" fill="#54B782"/>
<path d="M46.3898 16.3646L41.4032 14.8552L26.8458 62.9504L31.8324 64.4597L46.3898 16.3646Z" fill="#47A072"/>
<mask id="mask1_143_6682" style="mask-type:luminance" maskUnits="userSpaceOnUse" x="36" y="37" width="33" height="33">
<path d="M68.0733 45.1283L43.4945 37.6888L36.055 62.2676L60.6338 69.7071L68.0733 45.1283Z" fill="white"/>
</mask>
<g mask="url(#mask1_143_6682)">
<path d="M68.8603 44.5755L43.2 36.8086L35.4331 62.4689L61.0934 70.2358L68.8603 44.5755Z" fill="#BAE2F8"/>
<path d="M39.6907 59.1146L62.2007 65.9246L63.1007 62.9546C62.4407 61.0346 61.2407 53.5446 58.5207 55.3646C52.3207 57.8846 52.1907 57.3646 49.4107 52.0346C46.5207 45.8146 43.9707 50.7746 38.4907 54.3646L39.6907 59.1246V59.1146Z" fill="#D6D791"/>
<path d="M46.0307 56.9146L47.3707 51.2246C47.4507 50.8846 47.9107 50.8146 48.0907 51.1146L51.8707 57.5646C52.0407 57.8446 51.8007 58.1946 51.4707 58.1546L46.3507 57.3946C46.1207 57.3646 45.9707 57.1446 46.0307 56.9146Z" fill="#C8CA89"/>
<path d="M58.0507 60.2746L59.9207 55.9846C60.0307 55.7246 60.4007 55.7346 60.5007 56.0046L62.5507 61.6246C62.6407 61.8746 62.4007 62.1146 62.1607 62.0246L58.2407 60.6946C58.0707 60.6346 57.9807 60.4446 58.0507 60.2746Z" fill="#C8CA89"/>
<path d="M39.7908 55.6445C47.8608 56.8445 57.1208 57.6745 64.4208 61.7945L62.5408 68.0045L38.7908 60.8145L39.7908 55.6445Z" fill="#FDDC78"/>
<path d="M39.4907 57.3346C47.5607 58.5346 56.9507 58.2546 64.2407 62.3746L62.3607 68.5846L38.6107 61.3946L39.4907 57.3346Z" fill="#F8C284"/>
<path d="M39.4707 59.9346C47.5407 61.1346 54.0607 58.1146 63.5007 64.4346L61.8607 69.8546L38.1107 62.6646L39.4707 59.9246V59.9346Z" fill="#F4AF86"/>
<path d="M40.0807 63.9446L61.7207 70.4946C62.8807 62.8846 52.0307 60.1146 40.0807 63.9446Z" fill="#F5BAA6"/>
<path d="M49.1607 44.6646C48.4407 44.2146 47.0607 43.4146 46.5407 42.5546C46.1207 41.8546 44.2107 40.7846 42.3607 40.0646L40.7507 45.3646C41.1307 45.7046 42.3607 45.5846 42.9307 45.4846C44.2907 45.2546 46.5707 46.8646 52.5807 48.4646C56.6707 49.5446 51.3407 47.2946 51.8907 46.7546C52.1207 46.5346 49.8707 45.1046 49.1507 44.6546L49.1607 44.6646Z" fill="#EAF5FC"/>
<path d="M62.6808 45.3946C63.2708 45.4146 64.3908 45.4746 65.0208 45.1846C65.5408 44.9446 67.0608 45.0546 68.4208 45.3546L67.3008 49.0646C66.9408 49.1146 66.2808 48.5646 65.9808 48.2846C65.2808 47.6246 63.3208 47.6746 59.2008 46.2746C56.4008 45.3246 60.3808 46.0746 60.2708 45.5546C60.2208 45.3346 62.0908 45.3746 62.6808 45.3946Z" fill="#EAF5FC"/>
<path d="M55.0807 64.3745C55.5607 64.2145 56.0707 64.7445 55.8407 65.2445L55.6907 65.2245L55.6707 65.3745C55.1307 65.4645 54.7407 64.8345 55.0307 64.4145C55.0307 64.4145 55.0907 64.3645 55.0907 64.3745H55.0807Z" fill="#F4B098"/>
<path d="M52.5108 64.3046C52.1808 64.5646 51.6308 64.2946 51.6708 63.8346L51.8008 63.8046L51.7708 63.6746C52.1708 63.4546 52.6508 63.8446 52.5508 64.2446L52.5208 64.2946L52.5108 64.3046Z" fill="#F4B098"/>
<path d="M47.7907 57.7146C47.5307 57.9246 47.0807 57.7046 47.1207 57.3346L47.2207 57.3146L47.2007 57.2146C47.5207 57.0346 47.9007 57.3446 47.8207 57.6746L47.7907 57.7146Z" fill="#FCD369"/>
<path d="M56.1907 67.6146C55.7907 67.7446 55.3607 67.3046 55.5607 66.8846L55.6907 66.9046L55.7107 66.7746C56.1607 66.7046 56.4807 67.2246 56.2507 67.5746L56.2007 67.6146H56.1907Z" fill="#F4B098"/>
<path d="M50.8207 66.1146C50.4207 66.2446 49.9907 65.8046 50.1907 65.3846L50.3207 65.4046L50.3407 65.2746C50.7907 65.2046 51.1107 65.7246 50.8807 66.0746L50.8307 66.1146H50.8207Z" fill="#F4B098"/>
<path d="M59.2408 67.2245C59.6408 66.9145 60.3008 67.2445 60.2508 67.7945L60.1008 67.8245L60.1308 67.9745C59.6508 68.2445 59.0808 67.7745 59.2008 67.2845L59.2408 67.2245Z" fill="#F4B098"/>
<path d="M57.8108 60.2046C58.2908 60.0446 58.8008 60.5746 58.5708 61.0746L58.4208 61.0546L58.4008 61.2046C57.8608 61.2946 57.4708 60.6646 57.7608 60.2446C57.7608 60.2446 57.8208 60.1946 57.8208 60.2046H57.8108Z" fill="#F6B878"/>
<path d="M58.8707 63.3546C58.5507 63.4646 58.2107 63.1046 58.3607 62.7746H58.4607L58.4707 62.6846C58.8307 62.6246 59.0907 63.0446 58.9007 63.3246L58.8607 63.3546H58.8707Z" fill="#F3A479"/>
<path d="M62.0707 62.6946C62.4707 62.3846 63.1307 62.7146 63.0807 63.2646L62.9307 63.2946L62.9607 63.4446C62.4807 63.7146 61.9107 63.2446 62.0307 62.7546L62.0707 62.6946Z" fill="#F6B878"/>
<path d="M46.3707 64.4246C45.8707 64.4546 45.5107 63.8046 45.8607 63.3846L46.0007 63.4446L46.0607 63.3046C46.6107 63.3546 46.8107 64.0646 46.4307 64.4046L46.3607 64.4346L46.3707 64.4246Z" fill="#F4B098"/>
<path d="M51.7307 59.8646C51.4007 60.1246 50.8507 59.8546 50.8907 59.3946L51.0207 59.3646L50.9907 59.2346C51.3907 59.0146 51.8707 59.4046 51.7707 59.8046L51.7407 59.8546L51.7307 59.8646Z" fill="#F6B878"/>
<path d="M50.0308 61.6745C49.6308 61.8045 49.2008 61.3645 49.4008 60.9445L49.5308 60.9645L49.5508 60.8345C50.0008 60.7645 50.3208 61.2845 50.0908 61.6345L50.0408 61.6745H50.0308Z" fill="#F3A479"/>
<path d="M45.5408 59.8746C45.1408 59.9046 44.8508 59.3846 45.1308 59.0446L45.2508 59.0946L45.3008 58.9746C45.7408 59.0146 45.9008 59.5846 45.6008 59.8546L45.5508 59.8746H45.5408Z" fill="#F6B878"/>
<path d="M38.4707 51.8945L35.2407 62.5645L44.9507 65.5045C41.9507 63.7345 42.3407 52.6845 38.4707 51.8945Z" fill="#D6D791"/>
</g>
<path d="M51.3407 27.0545L51.6107 26.1545L53.6807 26.7845L53.1207 28.6245C52.6407 28.7745 52.2407 28.8545 51.9007 28.8545C51.5707 28.8545 51.1907 28.8045 50.7707 28.6745C50.2607 28.5145 49.8607 28.3045 49.5907 28.0345C49.3207 27.7645 49.1507 27.4245 49.0707 27.0245C49.0007 26.6245 49.0307 26.2045 49.1607 25.7545C49.3007 25.2845 49.5207 24.9045 49.8307 24.6145C50.1307 24.3245 50.5007 24.1445 50.9307 24.0745C51.2707 24.0245 51.6807 24.0745 52.1807 24.2245C52.6607 24.3645 53.0007 24.5245 53.2107 24.6745C53.4207 24.8345 53.5807 25.0245 53.6807 25.2545C53.7807 25.4845 53.8307 25.7545 53.8207 26.0545L52.4607 25.8945C52.4607 25.7145 52.4007 25.5645 52.3007 25.4345C52.2007 25.3145 52.0507 25.2145 51.8507 25.1545C51.5607 25.0645 51.2907 25.0945 51.0607 25.2445C50.8207 25.3945 50.6407 25.6945 50.5107 26.1345C50.3707 26.6045 50.3607 26.9645 50.4707 27.2145C50.5907 27.4645 50.8007 27.6445 51.1207 27.7345C51.2707 27.7845 51.4207 27.8045 51.5707 27.7945C51.7207 27.7945 51.9007 27.7645 52.1007 27.7145L52.2207 27.3045L51.3307 27.0345L51.3407 27.0545Z" fill="white"/>
<path d="M57.8508 26.0146L59.1808 26.4146L58.4008 28.9946C58.3208 29.2546 58.2108 29.4746 58.0608 29.6846C57.9108 29.8846 57.7308 30.0446 57.5008 30.1646C57.2808 30.2846 57.0608 30.3446 56.8608 30.3646C56.5708 30.3846 56.2408 30.3346 55.8808 30.2246C55.6708 30.1646 55.4408 30.0746 55.2008 29.9746C54.9608 29.8646 54.7708 29.7446 54.6308 29.6146C54.4908 29.4746 54.3708 29.3046 54.2808 29.1046C54.1908 28.9046 54.1508 28.7046 54.1508 28.5246C54.1508 28.2246 54.1808 27.9646 54.2508 27.7546L55.0308 25.1746L56.3608 25.5746L55.5608 28.2146C55.4908 28.4546 55.5008 28.6546 55.5908 28.8246C55.6808 28.9946 55.8408 29.1146 56.0708 29.1846C56.3008 29.2546 56.5008 29.2446 56.6708 29.1546C56.8408 29.0646 56.9608 28.8946 57.0308 28.6546L57.8308 26.0146H57.8508Z" fill="white"/>
<path d="M60.1207 26.7046L61.4607 27.1146L60.1507 31.4446L58.8107 31.0346L60.1207 26.7046Z" fill="white"/>
<path d="M62.4407 27.4045L64.4307 28.0045C64.8207 28.1245 65.1207 28.2745 65.3307 28.4545C65.5407 28.6345 65.6907 28.8445 65.7907 29.0945C65.8907 29.3445 65.9307 29.6045 65.9207 29.8945C65.9207 30.1845 65.8607 30.4745 65.7707 30.7645C65.6307 31.2245 65.4707 31.5745 65.2907 31.7945C65.1107 32.0145 64.9007 32.1845 64.6607 32.3045C64.4207 32.4245 64.1907 32.4745 63.9507 32.4645C63.6307 32.4545 63.3607 32.4145 63.1207 32.3445L61.1307 31.7445L62.4407 27.4145V27.4045ZM63.4807 28.7845L62.7607 31.1445L63.0907 31.2445C63.3707 31.3245 63.5807 31.3545 63.7107 31.3345C63.8507 31.3045 63.9707 31.2245 64.0907 31.0945C64.2107 30.9645 64.3107 30.7245 64.4207 30.3745C64.5607 29.9145 64.5807 29.5745 64.4807 29.3645C64.3807 29.1545 64.1607 28.9945 63.8107 28.8845L63.4807 28.7845Z" fill="white"/>
<path d="M67.1207 28.8246L70.7007 29.9046L70.4207 30.8246L68.1807 30.1446L67.9707 30.8346L70.0507 31.4646L69.7807 32.3446L67.7007 31.7146L67.4407 32.5646L69.7507 33.2646L69.4507 34.2446L65.8007 33.1446L67.1107 28.8146L67.1207 28.8246Z" fill="white"/>
<path d="M49.1607 29.4346L51.6607 30.1946C52.0807 30.3246 52.3707 30.5246 52.5307 30.7946C52.6907 31.0646 52.7307 31.3546 52.6307 31.6646C52.5507 31.9246 52.4107 32.1146 52.1907 32.2546C52.0507 32.3446 51.8607 32.3946 51.6407 32.4046C51.9307 32.5746 52.1207 32.7746 52.2107 32.9946C52.3007 33.2246 52.3107 33.4746 52.2207 33.7446C52.1507 33.9646 52.0407 34.1546 51.8807 34.3046C51.7207 34.4546 51.5407 34.5546 51.3207 34.6046C51.1907 34.6346 51.0007 34.6346 50.7707 34.5946C50.4607 34.5446 50.2507 34.5046 50.1507 34.4746L47.8407 33.7746L49.1507 29.4446L49.1607 29.4346ZM50.0007 31.5446L50.5807 31.7246C50.7907 31.7846 50.9407 31.7946 51.0507 31.7446C51.1507 31.6946 51.2307 31.6046 51.2707 31.4746C51.3107 31.3446 51.3007 31.2346 51.2407 31.1446C51.1807 31.0446 51.0507 30.9746 50.8507 30.9046L50.2607 30.7246L50.0107 31.5446H50.0007ZM49.4907 33.2446L50.1707 33.4546C50.4007 33.5246 50.5707 33.5346 50.6907 33.4746C50.8107 33.4246 50.8907 33.3246 50.9307 33.1846C50.9707 33.0546 50.9507 32.9446 50.8807 32.8346C50.8107 32.7246 50.6607 32.6446 50.4207 32.5646L49.7407 32.3546L49.4707 33.2346L49.4907 33.2446Z" fill="white"/>
<path d="M53.0407 32.9746C53.2507 32.2646 53.6207 31.7746 54.1307 31.5046C54.6407 31.2346 55.2507 31.1946 55.9507 31.4146C56.6707 31.6346 57.1707 31.9946 57.4407 32.4946C57.7107 32.9946 57.7407 33.5946 57.5307 34.2946C57.3807 34.8046 57.1707 35.1846 56.9007 35.4646C56.6307 35.7346 56.3107 35.9146 55.9307 35.9946C55.5507 36.0746 55.1307 36.0446 54.6507 35.9046C54.1607 35.7546 53.7807 35.5546 53.5107 35.3046C53.2407 35.0546 53.0507 34.7246 52.9607 34.3346C52.8607 33.9346 52.8907 33.4846 53.0407 32.9846V32.9746ZM54.3807 33.3846C54.2507 33.8246 54.2307 34.1646 54.3407 34.3946C54.4407 34.6346 54.6407 34.7946 54.9207 34.8846C55.2107 34.9746 55.4607 34.9446 55.6707 34.8046C55.8807 34.6646 56.0607 34.3546 56.2107 33.8746C56.3307 33.4646 56.3407 33.1446 56.2307 32.9046C56.1207 32.6646 55.9307 32.5046 55.6507 32.4246C55.3807 32.3446 55.1407 32.3746 54.9107 32.5146C54.6907 32.6546 54.5107 32.9446 54.3807 33.3846Z" fill="white"/>
<path d="M58.0807 34.4946C58.2907 33.7846 58.6607 33.2946 59.1707 33.0246C59.6807 32.7546 60.2907 32.7146 60.9907 32.9346C61.7107 33.1546 62.2107 33.5146 62.4807 34.0146C62.7507 34.5146 62.7807 35.1146 62.5707 35.8146C62.4207 36.3246 62.2107 36.7046 61.9407 36.9846C61.6707 37.2546 61.3507 37.4346 60.9707 37.5146C60.5907 37.5946 60.1707 37.5646 59.6907 37.4246C59.2007 37.2746 58.8207 37.0746 58.5507 36.8246C58.2807 36.5746 58.0907 36.2446 58.0007 35.8546C57.9007 35.4546 57.9307 35.0046 58.0807 34.5046V34.4946ZM59.4107 34.9046C59.2807 35.3446 59.2607 35.6846 59.3707 35.9246C59.4707 36.1646 59.6707 36.3246 59.9507 36.4146C60.2407 36.5046 60.4907 36.4746 60.7007 36.3346C60.9107 36.1946 61.0907 35.8846 61.2407 35.3946C61.3607 34.9846 61.3707 34.6646 61.2607 34.4246C61.1507 34.1846 60.9607 34.0246 60.6807 33.9446C60.4107 33.8646 60.1707 33.8946 59.9407 34.0346C59.7207 34.1746 59.5407 34.4646 59.4107 34.9046Z" fill="white"/>
<path d="M63.9407 33.9045L65.2807 34.3045L64.7907 35.9445L66.6907 34.7345L68.4707 35.2745L66.4007 36.4345L67.2307 39.6245L65.5807 39.1245L65.2107 37.0645L64.3007 37.5745L63.9807 38.6345L62.6407 38.2345L63.9507 33.9045H63.9407Z" fill="white"/>
<path d="M26.6507 63.3346C26.5707 63.2946 26.5107 63.2346 26.4707 63.1546C26.4207 63.0546 26.4107 62.9346 26.4407 62.8346L40.9907 14.7346C41.0607 14.5146 41.3007 14.3846 41.5207 14.4546L77.4207 25.3146C77.5307 25.3446 77.6207 25.4246 77.6707 25.5246C77.7207 25.6246 77.7307 25.7446 77.7007 25.8446L63.1507 73.9446C63.0807 74.1646 62.8407 74.2946 62.6207 74.2246L26.7207 63.3646C26.7207 63.3646 26.6707 63.3446 26.6507 63.3346ZM41.6807 15.3846L27.3707 62.6646L62.4607 73.2846L76.7707 26.0046L41.6807 15.3846Z" fill="#422B08"/>
</svg>
