<svg width="78" height="75" viewBox="0 0 78 75" fill="none" xmlns="http://www.w3.org/2000/svg">
<path d="M55.6248 3.40985L53.5721 2.87976L50.6567 14.1694L52.7093 14.6995L55.6248 3.40985Z" fill="#DBDCDC"/>
<path d="M52.5115 15.473L50.4615 14.943C50.0415 14.833 49.7815 14.403 49.8915 13.973L52.8115 2.68303C52.9215 2.26303 53.3515 2.00303 53.7815 2.11303L55.8315 2.64303C56.2515 2.75303 56.5115 3.18303 56.4015 3.61303L53.4815 14.903C53.3715 15.323 52.9415 15.583 52.5115 15.473ZM51.6315 13.603L52.1515 13.733L54.6715 3.98303L54.1515 3.85303L51.6315 13.603Z" fill="#422B08"/>
<path d="M69.579 7.02325L67.5264 6.49316L64.6109 17.7828L66.6635 18.3129L69.579 7.02325Z" fill="#DBDCDC"/>
<path d="M66.4614 19.073L64.4114 18.543C63.9914 18.433 63.7314 18.003 63.8414 17.573L66.7614 6.28301C66.8714 5.86301 67.3014 5.60301 67.7314 5.71301L69.7814 6.24301C70.2014 6.35301 70.4614 6.78301 70.3514 7.21301L67.4314 18.503C67.3214 18.923 66.8914 19.183 66.4614 19.073ZM65.5714 17.203L66.0914 17.333L68.6114 7.58301L68.0914 7.45301L65.5714 17.203Z" fill="#422B08"/>
<path d="M69.4394 4.69963L54.819 0.923991C54.1185 0.743087 53.404 1.16431 53.2231 1.86482L53.0256 2.62973C52.8447 3.33024 53.2659 4.04477 53.9664 4.22567L68.5868 8.00131C69.2873 8.18221 70.0018 7.76099 70.1827 7.06047L70.3802 6.29557C70.5611 5.59506 70.1399 4.88053 69.4394 4.69963Z" fill="#422B08"/>
<path d="M68.8115 8.88302L53.3515 4.89302C52.4615 4.66302 51.9215 3.75302 52.1515 2.86302L52.5615 1.25302C52.7915 0.363018 53.7015 -0.176982 54.5915 0.0530183L70.0515 4.04302C70.9415 4.27302 71.4815 5.18302 71.2515 6.07302L70.8415 7.68302C70.6115 8.57302 69.7015 9.11302 68.8115 8.88302ZM54.2015 1.58302C54.2015 1.58302 54.1115 1.60302 54.1015 1.64302L53.6915 3.25302C53.6915 3.25302 53.7115 3.34302 53.7515 3.35302L69.2115 7.34302C69.2115 7.34302 69.3015 7.32302 69.3115 7.28302L69.7215 5.67302C69.7215 5.67302 69.7015 5.58302 69.6615 5.57302L54.2015 1.58302Z" fill="#422B08"/>
<path d="M65.0016 17.9631C64.7116 17.8931 64.5416 17.5931 64.6116 17.3031C64.9016 16.1831 62.8316 14.3131 59.3916 13.4231C55.9516 12.5331 53.2316 13.1731 52.9416 14.2931C52.8716 14.5831 52.5716 14.7531 52.2816 14.6831C51.9916 14.6131 51.8216 14.3131 51.8916 14.0231C52.3916 12.0731 55.7316 11.3631 59.6616 12.3731C63.5816 13.3831 66.1616 15.6231 65.6616 17.5731C65.5916 17.8631 65.2916 18.0331 65.0016 17.9631Z" fill="#422B08"/>
<path d="M64.8015 18.733C64.0915 18.553 63.6615 17.823 63.8415 17.103C63.9515 16.693 62.5115 15.043 59.1915 14.183C55.8715 13.323 53.8215 14.073 53.7115 14.483C53.5315 15.193 52.8015 15.623 52.0815 15.443C51.3615 15.263 50.9415 14.533 51.1215 13.813C51.7515 11.383 55.4215 10.453 59.8515 11.593C64.2815 12.733 67.0515 15.333 66.4215 17.763C66.2415 18.473 65.5115 18.903 64.7915 18.723L64.8015 18.733Z" fill="#422B08"/>
<path d="M34.0806 63.8785C34.3609 62.793 33.7081 61.6857 32.6226 61.4054C31.5371 61.1251 30.4299 61.7778 30.1495 62.8633L29.7595 64.3738C29.4791 65.4593 30.1319 66.5666 31.2174 66.8469C32.3029 67.1272 33.4102 66.4745 33.6905 65.389L34.0806 63.8785Z" fill="#422B08"/>
<path d="M31.0815 67.633L30.9515 67.603C29.4815 67.223 28.5915 65.723 28.9715 64.253L29.4015 62.603C29.7815 61.133 31.2815 60.243 32.7515 60.623L32.8815 60.653C34.3515 61.033 35.2415 62.533 34.8615 64.003L34.4315 65.653C34.0515 67.123 32.5515 68.013 31.0815 67.633ZM32.3615 62.153C31.7415 61.993 31.1015 62.363 30.9415 62.993L30.5115 64.643C30.3515 65.263 30.7215 65.903 31.3515 66.063L31.4815 66.093C32.1015 66.253 32.7415 65.883 32.9015 65.253L33.3315 63.603C33.4915 62.983 33.1215 62.343 32.4915 62.183L32.3615 62.153Z" fill="#422B08"/>
<path d="M61.0342 70.836C61.3145 69.7505 60.6618 68.6433 59.5762 68.3629C58.4907 68.0826 57.3835 68.7353 57.1031 69.8209L56.7131 71.3313C56.4327 72.4168 57.0855 73.5241 58.171 73.8044C59.2565 74.0847 60.3638 73.432 60.6441 72.3465L61.0342 70.836Z" fill="#422B08"/>
<path d="M58.0415 74.593L57.9115 74.563C56.4415 74.183 55.5515 72.683 55.9315 71.213L56.3615 69.563C56.7415 68.093 58.2415 67.203 59.7115 67.583L59.8415 67.613C61.3115 67.993 62.2015 69.493 61.8215 70.963L61.3915 72.613C61.0115 74.083 59.5115 74.973 58.0415 74.593ZM59.3115 69.113C58.6915 68.953 58.0515 69.323 57.8915 69.953L57.4615 71.603C57.3015 72.223 57.6715 72.863 58.3015 73.023L58.4315 73.053C59.0515 73.213 59.6915 72.843 59.8515 72.213L60.2815 70.563C60.4415 69.943 60.0715 69.303 59.4415 69.143L59.3115 69.113Z" fill="#422B08"/>
<path d="M72.4225 18.8384L45.3603 11.8497C42.4834 11.1068 39.549 12.8367 38.806 15.7136L28.3593 56.1665C27.6163 59.0434 29.3462 61.9779 32.2231 62.7208L59.2853 69.7095C62.1622 70.4524 65.0967 68.7225 65.8396 65.8456L76.2864 25.3927C77.0293 22.5158 75.2994 19.5814 72.4225 18.8384Z" fill="#E5307D"/>
<path d="M60.8215 70.933L30.3015 63.053C27.9615 62.443 26.5415 60.053 27.1515 57.703L38.4815 13.793C39.0915 11.453 41.4815 10.033 43.8315 10.643L74.3515 18.523C76.6915 19.133 78.1115 21.523 77.5015 23.873L66.1615 67.783C65.5515 70.123 63.1615 71.543 60.8115 70.933H60.8215ZM43.4315 12.183C41.9315 11.793 40.4015 12.703 40.0215 14.193L28.6815 58.103C28.2915 59.603 29.2015 61.133 30.6915 61.513L61.2115 69.393C62.7115 69.783 64.2415 68.873 64.6215 67.383L75.9615 23.473C76.3515 21.973 75.4415 20.443 73.9515 20.063L43.4315 12.183Z" fill="#422B08"/>
<path d="M33.2515 58.783C32.7715 58.663 32.4815 58.163 32.6015 57.683L43.0415 17.253C43.1615 16.773 43.6615 16.483 44.1415 16.603C44.6215 16.723 44.9115 17.223 44.7915 17.703L34.3515 58.133C34.2315 58.613 33.7315 58.903 33.2515 58.783Z" fill="#ED5374"/>
<path d="M37.7615 59.943C37.2815 59.823 36.9915 59.323 37.1115 58.843L47.5515 18.413C47.6715 17.933 48.1715 17.643 48.6515 17.763C49.1315 17.883 49.4215 18.383 49.3015 18.863L38.8615 59.293C38.7415 59.773 38.2415 60.063 37.7615 59.943Z" fill="#ED5374"/>
<path d="M42.2615 61.113C41.7815 60.993 41.4915 60.493 41.6115 60.013L52.0515 19.583C52.1715 19.103 52.6715 18.813 53.1515 18.933C53.6315 19.053 53.9215 19.553 53.8015 20.033L43.3615 60.463C43.2415 60.943 42.7415 61.233 42.2615 61.113Z" fill="#ED5374"/>
<path d="M46.7716 62.273C46.2916 62.153 46.0016 61.653 46.1216 61.173L56.5616 20.743C56.6816 20.263 57.1816 19.973 57.6616 20.093C58.1416 20.213 58.4316 20.713 58.3116 21.193L47.8716 61.623C47.7516 62.103 47.2516 62.393 46.7716 62.273Z" fill="#ED5374"/>
<path d="M51.2816 63.443C50.8016 63.323 50.5116 62.823 50.6316 62.343L61.0716 21.913C61.1916 21.433 61.6916 21.143 62.1716 21.263C62.6516 21.383 62.9416 21.883 62.8216 22.363L52.3816 62.793C52.2616 63.273 51.7616 63.563 51.2816 63.443Z" fill="#ED5374"/>
<path d="M55.7816 64.603C55.3016 64.483 55.0116 63.9829 55.1316 63.5029L65.5716 23.0729C65.6916 22.5929 66.1916 22.3029 66.6716 22.4229C67.1516 22.5429 67.4416 23.0429 67.3216 23.5229L56.8816 63.9529C56.7616 64.4329 56.2616 64.7229 55.7816 64.603Z" fill="#ED5374"/>
<path d="M60.2916 65.763C59.8116 65.643 59.5216 65.143 59.6416 64.663L70.0816 24.233C70.2016 23.753 70.7016 23.463 71.1816 23.583C71.6616 23.703 71.9516 24.203 71.8316 24.683L61.3916 65.113C61.2716 65.593 60.7716 65.883 60.2916 65.763Z" fill="#ED5374"/>
<path d="M29.9615 56.0029C29.4515 55.8729 28.9315 55.8429 28.4315 55.9029L27.9115 57.9029C27.4115 59.8229 28.5715 61.7829 30.4915 62.2829L32.5715 62.8229C32.7915 62.4429 32.9715 62.0329 33.0815 61.5929C33.7215 59.1229 32.3215 56.6329 29.9615 56.0229V56.0029Z" fill="#FBE1C3"/>
<path d="M32.3715 63.583L30.2915 63.043C27.9515 62.433 26.5315 60.043 27.1415 57.693L27.6615 55.693C27.7415 55.373 28.0115 55.143 28.3415 55.103C28.9615 55.033 29.5715 55.073 30.1615 55.223C32.9415 55.943 34.6015 58.873 33.8515 61.763C33.7215 62.263 33.5215 62.753 33.2515 63.203C33.0715 63.513 32.7115 63.663 32.3715 63.573V63.583ZM29.0515 56.673L28.6815 58.103C28.2915 59.603 29.2015 61.133 30.6915 61.513L32.1415 61.893C32.2115 61.733 32.2615 61.563 32.3115 61.393C32.8415 59.353 31.6915 57.283 29.7615 56.783C29.5315 56.723 29.2915 56.693 29.0515 56.683V56.673Z" fill="#422B08"/>
<path d="M64.5214 64.933C65.0314 65.063 65.5014 65.293 65.9114 65.583L65.3914 67.583C64.8914 69.503 62.9314 70.663 61.0114 70.163L58.9314 69.623C58.9214 69.183 58.9714 68.743 59.0814 68.293C59.7214 65.823 62.1514 64.313 64.5114 64.923L64.5214 64.933Z" fill="#FBE1C3"/>
<path d="M60.8215 70.933L58.7415 70.393C58.4015 70.303 58.1515 70.003 58.1415 69.643C58.1315 69.123 58.1915 68.603 58.3215 68.093C59.0715 65.203 61.9415 63.443 64.7215 64.153C65.3115 64.303 65.8615 64.563 66.3715 64.923C66.6415 65.113 66.7615 65.453 66.6815 65.773L66.1615 67.773C65.5515 70.113 63.1615 71.533 60.8115 70.923L60.8215 70.933ZM59.7615 69.013L61.2115 69.393C62.7115 69.783 64.2415 68.873 64.6215 67.383L64.9915 65.953C64.7715 65.843 64.5515 65.753 64.3215 65.693C62.3915 65.193 60.3915 66.453 59.8615 68.493C59.8215 68.663 59.7815 68.843 59.7615 69.013Z" fill="#422B08"/>
<path d="M55.6244 3.40985L53.5718 2.87976L50.6563 14.1694L52.7089 14.6995L55.6244 3.40985Z" fill="#DBDCDC"/>
<path d="M52.6111 15.093L50.5611 14.563C50.3511 14.513 50.2211 14.293 50.2711 14.083L53.1911 2.79301C53.2411 2.58301 53.4611 2.45301 53.6711 2.50301L55.7211 3.03301C55.9311 3.08301 56.0611 3.30301 56.0111 3.51301L53.0911 14.803C53.0411 15.013 52.8211 15.143 52.6111 15.093ZM51.1411 13.893L52.4211 14.223L55.1411 3.70301L53.8611 3.37301L51.1411 13.893Z" fill="#422B08"/>
<path d="M69.5787 7.02325L67.526 6.49316L64.6105 17.7828L66.6632 18.3129L69.5787 7.02325Z" fill="#DBDCDC"/>
<path d="M66.561 18.693L64.511 18.163C64.301 18.113 64.171 17.893 64.221 17.683L67.141 6.39299C67.191 6.18299 67.411 6.05299 67.621 6.10299L69.671 6.63299C69.881 6.68299 70.011 6.90299 69.961 7.11299L67.041 18.403C66.991 18.613 66.771 18.743 66.561 18.693ZM65.091 17.493L66.371 17.823L69.091 7.30299L67.811 6.97299L65.091 17.493Z" fill="#422B08"/>
<path d="M69.4389 4.69963L54.8186 0.923991C54.118 0.743087 53.4035 1.16431 53.2226 1.86482L53.0251 2.62973C52.8442 3.33024 53.2654 4.04477 53.9659 4.22567L68.5863 8.00131C69.2868 8.18221 70.0013 7.76099 70.1822 7.06047L70.3797 6.29557C70.5606 5.59506 70.1394 4.88053 69.4389 4.69963Z" fill="#855610"/>
<path d="M68.901 8.49302L53.441 4.50302C52.761 4.32302 52.351 3.63302 52.531 2.95302L52.941 1.34302C53.121 0.663024 53.811 0.253024 54.491 0.433024L69.951 4.42302C70.631 4.60302 71.041 5.29302 70.861 5.97302L70.451 7.58302C70.271 8.26302 69.581 8.67302 68.901 8.49302ZM54.301 1.20302C54.041 1.13302 53.781 1.29302 53.721 1.54302L53.311 3.15302C53.241 3.41302 53.401 3.67302 53.651 3.73302L69.111 7.72302C69.371 7.79302 69.631 7.63302 69.691 7.38302L70.101 5.77302C70.171 5.51302 70.011 5.25302 69.761 5.19302L54.301 1.20302Z" fill="#422B08"/>
<path d="M65.0012 17.9629C64.7112 17.8929 64.5412 17.5929 64.6112 17.3029C64.9012 16.1829 62.8312 14.3129 59.3912 13.4229C55.9512 12.5329 53.2312 13.1729 52.9412 14.2929C52.8712 14.5829 52.5712 14.7529 52.2812 14.6829C51.9912 14.6129 51.8212 14.3129 51.8912 14.0229C52.3912 12.0729 55.7312 11.3629 59.6612 12.3729C63.5812 13.3829 66.1612 15.6229 65.6612 17.5729C65.5912 17.8629 65.2912 18.0329 65.0012 17.9629Z" fill="#422B08"/>
<path d="M64.9012 18.343C64.4012 18.213 64.1012 17.703 64.2312 17.203C64.4312 16.413 62.5712 14.653 59.2912 13.803C56.0112 12.953 53.5312 13.593 53.3312 14.383C53.2012 14.883 52.6912 15.183 52.1912 15.053C51.6912 14.923 51.3912 14.413 51.5212 13.913C52.0912 11.703 55.5612 10.893 59.7712 11.983C63.9812 13.073 66.6212 15.463 66.0512 17.673C65.9212 18.173 65.4112 18.473 64.9112 18.343H64.9012ZM59.4912 13.033C62.9212 13.923 65.3912 15.873 65.0012 17.403C64.9812 17.483 65.0312 17.563 65.1012 17.583C65.1712 17.603 65.2612 17.553 65.2812 17.483C65.7212 15.783 63.2112 13.703 59.5712 12.763C55.9312 11.823 52.7312 12.423 52.2912 14.123C52.2712 14.203 52.3212 14.283 52.3912 14.303C52.4612 14.323 52.5512 14.273 52.5712 14.203C52.9612 12.683 56.0712 12.163 59.5012 13.053L59.4912 13.033Z" fill="#422B08"/>
<path d="M34.0802 63.8785C34.3605 62.793 33.7078 61.6857 32.6223 61.4054C31.5367 61.1251 30.4295 61.7778 30.1492 62.8633L29.7591 64.3738C29.4788 65.4593 30.1315 66.5666 31.217 66.8469C32.3025 67.1272 33.4098 66.4745 33.6901 65.389L34.0802 63.8785Z" fill="#422B08"/>
<path d="M31.1812 67.243L31.0512 67.213C29.7912 66.893 29.0312 65.603 29.3612 64.343L29.7912 62.693C30.1112 61.433 31.4012 60.673 32.6612 61.003L32.7912 61.033C34.0512 61.353 34.8112 62.643 34.4812 63.903L34.0512 65.553C33.7312 66.813 32.4412 67.573 31.1812 67.243ZM32.4512 61.763C31.6212 61.543 30.7612 62.053 30.5512 62.883L30.1212 64.533C29.9012 65.363 30.4112 66.223 31.2412 66.433L31.3712 66.463C32.2012 66.683 33.0612 66.173 33.2712 65.343L33.7012 63.693C33.9212 62.863 33.4112 62.003 32.5812 61.793L32.4512 61.763Z" fill="#422B08"/>
<path d="M61.0338 70.836C61.3141 69.7505 60.6614 68.6433 59.5759 68.3629C58.4903 68.0826 57.3831 68.7353 57.1028 69.8209L56.7127 71.3313C56.4324 72.4168 57.0851 73.5241 58.1706 73.8044C59.2562 74.0847 60.3634 73.432 60.6437 72.3465L61.0338 70.836Z" fill="#422B08"/>
<path d="M58.1311 74.203L58.0011 74.173C56.7411 73.853 55.9811 72.563 56.3111 71.303L56.7411 69.653C57.0611 68.393 58.3511 67.633 59.6111 67.963L59.7411 67.993C61.0011 68.313 61.7611 69.603 61.4311 70.863L61.0011 72.513C60.6811 73.773 59.3911 74.533 58.1311 74.203ZM59.4111 68.733C58.5811 68.513 57.7211 69.023 57.5111 69.853L57.0811 71.503C56.8611 72.333 57.3711 73.193 58.2011 73.403L58.3311 73.433C59.1611 73.653 60.0211 73.143 60.2311 72.313L60.6611 70.663C60.8811 69.833 60.3711 68.973 59.5411 68.763L59.4111 68.733Z" fill="#422B08"/>
<path d="M72.4221 18.8384L45.36 11.8497C42.4831 11.1068 39.5486 12.8367 38.8057 15.7136L28.3589 56.1665C27.6159 59.0434 29.3459 61.9779 32.2228 62.7208L59.2849 69.7095C62.1618 70.4524 65.0963 68.7225 65.8393 65.8456L76.286 25.3927C77.029 22.5158 75.2991 19.5814 72.4221 18.8384Z" fill="#F7749C"/>
<path d="M60.9212 70.543L30.4012 62.663C28.2712 62.113 26.9812 59.933 27.5312 57.803L38.8712 13.893C39.4212 11.763 41.6012 10.473 43.7312 11.023L74.2512 18.903C76.3812 19.453 77.6712 21.633 77.1212 23.763L65.7812 67.673C65.2312 69.803 63.0512 71.093 60.9212 70.543ZM43.5312 11.793C41.8212 11.353 40.0812 12.383 39.6312 14.093L28.3012 58.003C27.8612 59.713 28.8912 61.453 30.6012 61.903L61.1212 69.783C62.8312 70.223 64.5712 69.193 65.0212 67.483L76.3612 23.573C76.8012 21.863 75.7712 20.123 74.0612 19.673L43.5412 11.793H43.5312Z" fill="#422B08"/>
<path d="M33.2512 58.783C32.7712 58.663 32.4812 58.163 32.6012 57.683L43.0412 17.253C43.1612 16.773 43.6612 16.483 44.1412 16.603C44.6212 16.723 44.9112 17.223 44.7912 17.703L34.3512 58.133C34.2312 58.613 33.7312 58.903 33.2512 58.783Z" fill="#ED5374"/>
<path d="M37.7612 59.943C37.2812 59.823 36.9912 59.323 37.1112 58.843L47.5512 18.413C47.6712 17.933 48.1712 17.643 48.6512 17.763C49.1312 17.883 49.4212 18.383 49.3012 18.863L38.8612 59.293C38.7412 59.773 38.2412 60.063 37.7612 59.943Z" fill="#ED5374"/>
<path d="M42.2612 61.113C41.7812 60.993 41.4912 60.493 41.6112 60.013L52.0512 19.583C52.1712 19.103 52.6712 18.813 53.1512 18.933C53.6312 19.053 53.9212 19.553 53.8012 20.033L43.3612 60.463C43.2412 60.943 42.7412 61.233 42.2612 61.113Z" fill="#ED5374"/>
<path d="M46.7712 62.273C46.2912 62.153 46.0012 61.653 46.1212 61.173L56.5612 20.743C56.6812 20.263 57.1812 19.973 57.6612 20.093C58.1412 20.213 58.4312 20.713 58.3112 21.193L47.8712 61.623C47.7512 62.103 47.2512 62.393 46.7712 62.273Z" fill="#ED5374"/>
<path d="M51.2812 63.443C50.8012 63.323 50.5112 62.823 50.6312 62.343L61.0712 21.913C61.1912 21.433 61.6912 21.143 62.1712 21.263C62.6512 21.383 62.9412 21.883 62.8212 22.363L52.3812 62.793C52.2612 63.273 51.7612 63.563 51.2812 63.443Z" fill="#ED5374"/>
<path d="M55.7812 64.603C55.3012 64.483 55.0112 63.9829 55.1312 63.5029L65.5712 23.0729C65.6912 22.5929 66.1912 22.3029 66.6712 22.4229C67.1512 22.5429 67.4412 23.0429 67.3212 23.5229L56.8812 63.9529C56.7612 64.4329 56.2612 64.7229 55.7812 64.603Z" fill="#ED5374"/>
<path d="M60.2912 65.763C59.8112 65.643 59.5212 65.143 59.6412 64.663L70.0812 24.233C70.2012 23.753 70.7012 23.463 71.1812 23.583C71.6612 23.703 71.9512 24.203 71.8312 24.683L61.3912 65.113C61.2712 65.593 60.7712 65.883 60.2912 65.763Z" fill="#ED5374"/>
<path d="M29.9612 56.0031C29.4512 55.8731 28.9312 55.8431 28.4312 55.9031L27.9112 57.9031C27.4112 59.8231 28.5712 61.7831 30.4912 62.2831L32.5712 62.8231C32.7912 62.4431 32.9712 62.0331 33.0812 61.5931C33.7212 59.1231 32.3212 56.6331 29.9612 56.0231V56.0031Z" fill="#FBE1C3"/>
<path d="M32.4711 63.2031L30.3911 62.6631C28.2611 62.1131 26.9711 59.9331 27.5211 57.8031L28.0411 55.8031C28.0811 55.6431 28.2211 55.5231 28.3811 55.5031C28.9511 55.4431 29.5211 55.4731 30.0611 55.6131C32.6311 56.2731 34.1611 58.9931 33.4611 61.6731C33.3411 62.1431 33.1511 62.5931 32.9111 63.0131C32.8211 63.1631 32.6411 63.2431 32.4711 63.1931V63.2031ZM28.7411 56.2731L28.3011 57.9931C27.8611 59.7031 28.8911 61.4431 30.6011 61.8931L32.3811 62.3531C32.5211 62.0731 32.6311 61.7831 32.7111 61.4831C33.2911 59.2331 32.0211 56.9431 29.8811 56.3931C29.5211 56.3031 29.1411 56.2631 28.7611 56.2831L28.7411 56.2731Z" fill="#422B08"/>
<path d="M64.5212 64.933C65.0312 65.063 65.5012 65.293 65.9112 65.583L65.3912 67.583C64.8912 69.503 62.9312 70.663 61.0112 70.163L58.9312 69.623C58.9212 69.183 58.9712 68.743 59.0812 68.293C59.7212 65.823 62.1512 64.313 64.5112 64.923L64.5212 64.933Z" fill="#FBE1C3"/>
<path d="M60.9212 70.5431L58.8412 70.0031C58.6712 69.9631 58.5512 69.8031 58.5412 69.6331C58.5312 69.1431 58.5812 68.6631 58.7012 68.1931C59.3912 65.5131 62.0412 63.8731 64.6112 64.5431C65.1512 64.6831 65.6612 64.9231 66.1312 65.2531C66.2612 65.3531 66.3312 65.5131 66.2812 65.6731L65.7612 67.6731C65.2112 69.8031 63.0312 71.0931 60.9012 70.5431H60.9212ZM59.3412 69.3231L61.1212 69.7831C62.8312 70.2231 64.5712 69.1931 65.0212 67.4831L65.4612 65.7631C65.1312 65.5631 64.7912 65.4131 64.4212 65.3231C62.2812 64.7731 60.0612 66.1531 59.4712 68.4031C59.3912 68.7031 59.3512 69.0131 59.3312 69.3231H59.3412Z" fill="#422B08"/>
</svg>
