<svg width="79" height="75" viewBox="0 0 79 75" fill="none" xmlns="http://www.w3.org/2000/svg">
<path d="M74.958 36.0316L66.6711 34.4313L65.9867 37.9758L74.2735 39.5761L74.958 36.0316Z" fill="#422B08"/>
<path d="M74.017 40.947L65.727 39.347C64.967 39.197 64.477 38.467 64.627 37.717L65.307 34.177C65.457 33.417 66.187 32.927 66.937 33.077L75.227 34.677C75.987 34.827 76.477 35.557 76.327 36.307L75.647 39.847C75.497 40.607 74.767 41.097 74.017 40.947ZM67.627 36.867L73.177 37.937L73.337 37.137L67.787 36.067L67.627 36.867Z" fill="#422B08"/>
<path d="M33.2609 27.9808L24.974 26.3805L24.2895 29.925L32.5764 31.5253L33.2609 27.9808Z" fill="#422B08"/>
<path d="M32.317 32.897L24.027 31.297C23.267 31.147 22.777 30.417 22.927 29.667L23.607 26.127C23.757 25.367 24.487 24.877 25.237 25.027L33.527 26.627C34.287 26.777 34.777 27.507 34.627 28.257L33.947 31.797C33.797 32.557 33.067 33.047 32.317 32.897ZM25.927 28.817L31.477 29.887L31.637 29.087L26.087 28.017L25.927 28.817Z" fill="#422B08"/>
<path d="M76.3702 38.8114L23.0847 28.5212L16.3972 63.1514L69.6827 73.4415L76.3702 38.8114Z" fill="#422B08"/>
<path d="M69.407 74.807L16.127 64.527C15.367 64.377 14.877 63.647 15.027 62.897L21.707 28.257C21.857 27.497 22.587 27.007 23.337 27.157L76.617 37.447C77.377 37.597 77.867 38.327 77.717 39.077L71.027 73.707C70.877 74.467 70.147 74.957 69.397 74.807H69.407ZM18.027 62.047L68.577 71.807L74.737 39.917L24.187 30.157L18.027 62.047Z" fill="#422B08"/>
<path d="M70.4695 69.3038L17.184 59.0137L16.3838 63.1571L69.6693 73.4472L70.4695 69.3038Z" fill="white"/>
<path d="M69.407 74.807L16.127 64.527C15.367 64.377 14.877 63.647 15.027 62.897L15.827 58.747C15.977 57.987 16.707 57.497 17.457 57.647L70.737 67.937C71.497 68.087 71.987 68.817 71.837 69.567L71.037 73.717C70.887 74.477 70.157 74.967 69.407 74.817V74.807ZM18.027 62.047L68.577 71.807L68.847 70.397L18.297 60.637L18.027 62.047Z" fill="#422B08"/>
<path d="M46.077 31.437L44.767 32.707L23.077 28.527L22.277 32.667L75.567 42.957L76.147 39.937L76.367 38.807L76.647 37.347L46.077 31.437Z" fill="white"/>
<path d="M75.297 44.327L22.017 34.037C21.257 33.887 20.767 33.157 20.917 32.407L21.717 28.257C21.867 27.497 22.597 27.007 23.347 27.157L44.317 31.207L45.107 30.447C45.437 30.127 45.897 29.997 46.337 30.077L76.907 35.977C77.667 36.127 78.157 36.857 78.007 37.607L76.927 43.217C76.777 43.977 76.047 44.467 75.297 44.317V44.327ZM23.907 31.567L74.457 41.327L75.017 38.447L46.527 32.947L45.737 33.707C45.407 34.027 44.947 34.157 44.507 34.077L24.187 30.157L23.917 31.567H23.907Z" fill="#422B08"/>
<path d="M53.3594 62.2446C59.6016 58.3938 61.5402 50.2119 57.6895 43.9698C53.8388 37.7276 45.6569 35.789 39.4147 39.6397C33.1726 43.4904 31.2339 51.6723 35.0847 57.9145C38.9354 64.1566 47.1173 66.0953 53.3594 62.2446Z" fill="#DBDCDC"/>
<path d="M43.6071 65.347C35.6571 63.817 30.4471 56.097 31.9771 48.157C33.5071 40.207 41.2271 34.997 49.1671 36.527C57.1171 38.057 62.3271 45.777 60.7971 53.717C59.2671 61.667 51.5471 66.877 43.6071 65.347ZM48.6371 39.267C42.1971 38.027 35.9471 42.247 34.7071 48.687C33.4671 55.127 37.6871 61.377 44.1271 62.617C50.5671 63.857 56.8171 59.637 58.0571 53.197C59.2971 46.757 55.0771 40.507 48.6371 39.267Z" fill="#422B08"/>
<path d="M56.894 52.9657C58.0145 47.1634 54.2192 41.5515 48.4169 40.431C42.6147 39.3105 37.0027 43.1058 35.8822 48.908C34.7617 54.7103 38.557 60.3223 44.3593 61.4428C50.1615 62.5633 55.7735 58.7679 56.894 52.9657Z" fill="white"/>
<path d="M44.097 62.807C37.547 61.547 33.257 55.187 34.517 48.647C35.777 42.097 42.137 37.807 48.677 39.067C55.227 40.327 59.517 46.687 58.257 53.227C56.997 59.777 50.637 64.067 44.097 62.807ZM48.147 41.807C43.107 40.837 38.227 44.137 37.247 49.177C36.267 54.217 39.577 59.097 44.617 60.077C49.657 61.047 54.537 57.747 55.517 52.707C56.487 47.667 53.187 42.787 48.147 41.807Z" fill="#422B08"/>
<path d="M54.0171 52.41C54.8308 48.1966 52.0748 44.1214 47.8613 43.3077C43.6479 42.494 39.5727 45.2501 38.759 49.4635C37.9454 53.6769 40.7014 57.7521 44.9148 58.5658C49.1282 59.3795 53.2035 56.6234 54.0171 52.41Z" fill="#422B08"/>
<path d="M44.6469 59.937C39.6869 58.977 36.4269 54.167 37.3869 49.197C38.3469 44.237 43.1569 40.977 48.1269 41.937C53.0869 42.897 56.3469 47.707 55.3869 52.677C54.4269 57.647 49.6169 60.897 44.6469 59.937ZM47.5969 44.677C44.1469 44.007 40.7969 46.277 40.1269 49.727C39.4569 53.177 41.7269 56.527 45.1769 57.197C48.6269 57.867 51.9769 55.597 52.6469 52.147C53.3169 48.697 51.0469 45.347 47.5969 44.677Z" fill="#422B08"/>
<path d="M44.537 48.677C45.6305 48.677 46.517 47.7906 46.517 46.697C46.517 45.6035 45.6305 44.717 44.537 44.717C43.4435 44.717 42.557 45.6035 42.557 46.697C42.557 47.7906 43.4435 48.677 44.537 48.677Z" fill="white"/>
<path d="M74.9574 36.0316L66.6705 34.4313L65.986 37.9758L74.2729 39.5761L74.9574 36.0316Z" fill="#422B08"/>
<path d="M74.1463 40.2571L65.8563 38.6571C65.4763 38.5871 65.2263 38.2171 65.3063 37.8371L65.9863 34.2971C66.0563 33.9171 66.4263 33.6671 66.8063 33.7471L75.0963 35.3471C75.4763 35.4171 75.7263 35.7871 75.6463 36.1671L74.9663 39.7071C74.8963 40.0871 74.5263 40.3371 74.1463 40.2571ZM66.8063 37.4171L73.7263 38.7571L74.1463 36.5871L67.2263 35.2471L66.8063 37.4171Z" fill="#422B08"/>
<path d="M33.2603 27.9808L24.9734 26.3805L24.2889 29.925L32.5758 31.5253L33.2603 27.9808Z" fill="#422B08"/>
<path d="M32.4564 32.2071L24.1664 30.6071C23.7864 30.5371 23.5364 30.1671 23.6164 29.7871L24.2964 26.2471C24.3664 25.8671 24.7364 25.6171 25.1164 25.6971L33.4064 27.2971C33.7864 27.3671 34.0364 27.7371 33.9564 28.1171L33.2764 31.6571C33.2064 32.0371 32.8364 32.2871 32.4564 32.2071ZM25.1064 29.3671L32.0264 30.7071L32.4464 28.5371L25.5264 27.1971L25.1064 29.3671Z" fill="#422B08"/>
<path d="M76.3696 38.8114L23.0841 28.5212L16.3966 63.1514L69.6821 73.4415L76.3696 38.8114Z" fill="#755E3C"/>
<path d="M69.5463 74.1271L16.2563 63.8371C15.8763 63.7671 15.6263 63.3971 15.7063 63.0171L22.3963 28.3871C22.4663 28.0071 22.8363 27.7571 23.2163 27.8371L76.4963 38.1271C76.8763 38.1971 77.1263 38.5671 77.0463 38.9471L70.3563 73.5771C70.2863 73.9571 69.9163 74.2071 69.5363 74.1271H69.5463ZM17.2063 62.5971L69.1263 72.6171L75.5463 39.3571L23.6263 29.3371L17.2063 62.5971Z" fill="#422B08"/>
<path d="M70.4689 69.3038L17.1833 59.0137L16.3832 63.1571L69.6687 73.4472L70.4689 69.3038Z" fill="white"/>
<path d="M69.5463 74.127L16.2563 63.837C15.8763 63.767 15.6263 63.397 15.7063 63.017L16.5063 58.867C16.5763 58.487 16.9463 58.237 17.3263 58.317L70.6063 68.607C70.9863 68.677 71.2363 69.047 71.1563 69.427L70.3563 73.577C70.2863 73.957 69.9163 74.207 69.5363 74.127H69.5463ZM17.2063 62.597L69.1263 72.617L69.6663 69.837L17.7463 59.827L17.2063 62.607V62.597Z" fill="#422B08"/>
<path d="M46.0764 31.4371L44.7664 32.7071L23.0764 28.5271L22.2764 32.6671L75.5664 42.9571L76.1464 39.9371L76.3664 38.8071L76.6464 37.3471L46.0764 31.4371Z" fill="white"/>
<path d="M75.4263 43.6371L22.1463 33.3571C21.7663 33.2871 21.5163 32.9171 21.5963 32.5371L22.3963 28.3871C22.4663 28.0071 22.8363 27.7571 23.2163 27.8371L44.5463 31.9571L45.5963 30.9371C45.7563 30.7771 45.9863 30.7071 46.2163 30.7571L76.7863 36.6571C77.1663 36.7271 77.4163 37.0971 77.3363 37.4771L76.2563 43.0871C76.1863 43.4671 75.8163 43.7171 75.4363 43.6371H75.4263ZM23.0963 32.1171L75.0163 42.1371L75.8363 37.8971L46.3063 32.1971L45.2563 33.2171C45.0963 33.3771 44.8663 33.4471 44.6363 33.3971L23.6263 29.3371L23.0863 32.1171H23.0963Z" fill="#422B08"/>
<path d="M53.3587 62.2447C59.6008 58.394 61.5395 50.2121 57.6888 43.9699C53.838 37.7278 45.6562 35.7891 39.414 39.6398C33.1718 43.4906 31.2332 51.6725 35.0839 57.9146C38.9346 64.1568 47.1165 66.0954 53.3587 62.2447Z" fill="#DBDCDC"/>
<path d="M43.7363 64.6671C36.1663 63.2071 31.1963 55.8571 32.6563 48.2871C34.1163 40.7171 41.4663 35.7471 49.0363 37.2071C56.6063 38.6671 61.5763 46.0171 60.1163 53.5871C58.6563 61.1571 51.3063 66.1271 43.7363 64.6671ZM48.7663 38.5771C41.9563 37.2571 35.3363 41.7371 34.0263 48.5471C32.7063 55.3571 37.1863 61.9771 43.9963 63.2871C50.8063 64.6071 57.4263 60.1271 58.7363 53.3171C60.0563 46.5071 55.5763 39.8871 48.7663 38.5771Z" fill="#422B08"/>
<path d="M56.8933 52.9657C58.0138 47.1634 54.2185 41.5515 48.4162 40.431C42.614 39.3105 37.002 43.1058 35.8815 48.908C34.761 54.7103 38.5563 60.3223 44.3586 61.4428C50.1608 62.5633 55.7728 58.7679 56.8933 52.9657Z" fill="white"/>
<path d="M44.2263 62.1271C38.0563 60.9371 34.0063 54.9471 35.1963 48.7771C36.3863 42.6071 42.3763 38.5571 48.5463 39.7471C54.7163 40.9371 58.7663 46.9271 57.5763 53.0971C56.3863 59.2671 50.3963 63.3171 44.2263 62.1271ZM48.2763 41.1171C42.8663 40.0671 37.6063 43.6271 36.5663 49.0371C35.5163 54.4471 39.0763 59.7071 44.4863 60.7471C49.8963 61.7971 55.1563 58.2371 56.1963 52.8271C57.2363 47.4171 53.6863 42.1571 48.2763 41.1171Z" fill="#422B08"/>
<path d="M54.0165 52.4101C54.8302 48.1967 52.0741 44.1215 47.8607 43.3078C43.6473 42.4942 39.5721 45.2502 38.7584 49.4636C37.9448 53.677 40.7008 57.7523 44.9142 58.5659C49.1276 59.3796 53.2029 56.6235 54.0165 52.4101Z" fill="#422B08"/>
<path d="M44.7764 59.2571C40.1964 58.3671 37.1864 53.9171 38.0664 49.3371C38.9564 44.7571 43.4064 41.7471 47.9864 42.6271C52.5664 43.5171 55.5764 47.9671 54.6964 52.5471C53.8164 57.1271 49.3564 60.1371 44.7764 59.2571ZM47.7264 43.9971C43.8964 43.2571 40.1764 45.7671 39.4364 49.5971C38.6964 53.4271 41.2064 57.1471 45.0364 57.8871C48.8664 58.6271 52.5864 56.1171 53.3264 52.2871C54.0664 48.4571 51.5564 44.7371 47.7264 43.9971Z" fill="#422B08"/>
<path d="M44.5363 48.677C45.6298 48.677 46.5163 47.7906 46.5163 46.697C46.5163 45.6035 45.6298 44.717 44.5363 44.717C43.4428 44.717 42.5563 45.6035 42.5563 46.697C42.5563 47.7906 43.4428 48.677 44.5363 48.677Z" fill="white"/>
</svg>
