<svg width="325" height="55" viewBox="0 0 325 55" fill="none" xmlns="http://www.w3.org/2000/svg">
<g filter="url(#filter0_i_1011_6587)">
<rect width="325" height="55" rx="27.5" fill="url(#paint0_linear_1011_6587)"/>
<path d="M54.2051 41.24C54.2051 41.24 54.2051 29.61 61.7951 29.61C61.7951 29.61 54.2051 29.63 54.2051 18.02C54.2051 18.02 54.2051 29.61 46.5151 29.61C47.4251 29.61 54.1551 29.63 54.2051 41.24Z" fill="white" stroke="white" stroke-width="0.82" stroke-linecap="round" stroke-linejoin="round"/>
<path d="M67.7551 28.3C67.7551 28.3 67.7551 21.02 72.5051 21.02C72.5051 21.02 67.7551 21.03 67.7551 13.76C67.7551 13.76 67.7551 21.02 62.9451 21.02C63.5151 21.02 67.7251 21.03 67.7551 28.3Z" fill="white" stroke="white" stroke-width="0.82" stroke-linecap="round" stroke-linejoin="round"/>
<g filter="url(#filter1_d_1011_6587)">
<path d="M81.5011 42.632L79.0651 40.392C79.4945 39.5707 79.8585 38.656 80.1571 37.648C80.4745 36.6213 80.7358 35.436 80.9411 34.092C81.1465 32.748 81.2958 31.18 81.3891 29.388C81.4825 27.596 81.5291 25.5147 81.5291 23.144H79.4011V20.288H83.3491V16.872H86.6251V20.288H90.6571V23.144H84.7211C84.7211 25.888 84.6558 28.268 84.5251 30.284C84.4131 32.2813 84.2265 34.0173 83.9651 35.492C83.7225 36.9667 83.3958 38.2733 82.9851 39.412C82.5745 40.5507 82.0798 41.624 81.5011 42.632ZM87.1571 42.128C86.9705 42.128 86.6811 42.1093 86.2891 42.072C85.9158 42.0533 85.4958 42.016 85.0291 41.96C84.5811 41.9227 84.1798 41.8853 83.8251 41.848L83.7691 38.824C84.1985 38.9173 84.5811 38.992 84.9171 39.048C85.2531 39.0853 85.5238 39.104 85.7291 39.104C85.8785 39.104 86.0091 39.0573 86.1211 38.964C86.2518 38.852 86.3638 38.6187 86.4571 38.264C86.5505 37.8907 86.6158 37.3307 86.6531 36.584C86.7091 35.8373 86.7465 34.8387 86.7651 33.588C86.8025 32.3187 86.8211 30.7227 86.8211 28.8H82.7611V25.944H89.9571C89.9571 28.4827 89.9385 30.6573 89.9011 32.468C89.8638 34.26 89.7985 35.7533 89.7051 36.948C89.6305 38.1427 89.5278 39.0853 89.3971 39.776C89.2665 40.4667 89.0891 40.98 88.8651 41.316C88.6598 41.652 88.4171 41.8667 88.1371 41.96C87.8571 42.072 87.5305 42.128 87.1571 42.128ZM92.9251 42.464V27.344H96.1731V42.464H92.9251ZM103.621 42.688C102.613 41.624 101.68 40.2987 100.821 38.712C99.9625 37.1067 99.2158 35.2773 98.5811 33.224C97.9651 31.152 97.4798 28.856 97.1251 26.336L99.8691 25.496C100.112 27.5307 100.504 29.4533 101.045 31.264C101.586 33.056 102.268 34.708 103.089 36.22C103.929 37.732 104.872 39.076 105.917 40.252L103.621 42.688ZM91.3291 26.364L88.6411 24.684C89.6865 23.5453 90.6478 22.276 91.5251 20.876C92.4211 19.4573 93.1678 18.0107 93.7651 16.536L96.7331 17.236C96.1358 18.9533 95.3798 20.5867 94.4651 22.136C93.5505 23.6853 92.5051 25.0947 91.3291 26.364ZM91.0491 29.948L90.0691 27.26C92.1225 26.6627 94.1758 25.8973 96.2291 24.964C98.3011 24.012 100.298 22.9107 102.221 21.66L103.733 23.956C101.885 25.2627 99.8691 26.4293 97.6851 27.456C95.5198 28.4827 93.3078 29.3133 91.0491 29.948ZM100.877 33.7L99.2531 31.264C100.074 30.7973 100.877 30.2747 101.661 29.696C102.464 29.0987 103.229 28.464 103.957 27.792L105.637 30.088C104.125 31.488 102.538 32.692 100.877 33.7ZM92.9251 21.968V19.168H105.301V21.968H92.9251ZM111.265 38.488C113.3 38.2827 115.185 37.8533 116.921 37.2C118.676 36.5467 120.253 35.716 121.653 34.708C123.072 33.6813 124.276 32.5053 125.265 31.18C126.254 29.8547 127.01 28.3987 127.533 26.812C128.056 25.2253 128.317 23.5453 128.317 21.772L129.745 23.368H116.109V20.344H131.761V21.772C131.761 23.9 131.453 25.9067 130.837 27.792C130.24 29.6587 129.372 31.376 128.233 32.944C127.094 34.512 125.722 35.8933 124.117 37.088C122.53 38.2827 120.738 39.2533 118.741 40C116.762 40.7653 114.606 41.2693 112.273 41.512L111.265 38.488ZM107.485 28.604C108.866 27.6147 110.154 26.4947 111.349 25.244C112.544 23.9747 113.598 22.6307 114.513 21.212C115.428 19.7933 116.146 18.3747 116.669 16.956L120.029 17.516C119.469 19.252 118.704 20.9227 117.733 22.528C116.762 24.1147 115.596 25.6173 114.233 27.036C112.889 28.436 111.358 29.7333 109.641 30.928L107.485 28.604ZM125.013 35.184C123.352 33.84 121.746 32.608 120.197 31.488C118.648 30.3493 117.126 29.3227 115.633 28.408L117.649 25.804C119.348 26.868 120.981 27.9693 122.549 29.108C124.117 30.2467 125.61 31.4133 127.029 32.608L125.013 35.184ZM136.381 28.884C138.304 28.604 140.292 28.1093 142.345 27.4C144.398 26.6907 146.424 25.832 148.421 24.824C150.418 23.7973 152.276 22.668 153.993 21.436C155.71 20.204 157.176 18.9253 158.389 17.6L160.685 19.84C159.64 20.9787 158.408 22.0893 156.989 23.172C155.589 24.2547 154.068 25.272 152.425 26.224C150.782 27.176 149.084 28.044 147.329 28.828C145.574 29.5933 143.81 30.2467 142.037 30.788C140.264 31.3293 138.546 31.7213 136.885 31.964L136.381 28.884ZM148.085 42.016V25.944H151.641V42.016H148.085ZM165.977 38.04C169.804 37.9093 172.986 37.2093 175.525 35.94C178.082 34.6707 179.996 32.8413 181.265 30.452C182.534 28.044 183.169 25.0667 183.169 21.52L184.821 23.256H164.689V20.092H184.737V21.576H186.557C186.557 25.72 185.792 29.2293 184.261 32.104C182.749 34.96 180.5 37.1533 177.513 38.684C174.545 40.2147 170.886 41.036 166.537 41.148L165.977 38.04ZM186.389 23.984C185.68 23.984 185.017 23.8067 184.401 23.452C183.804 23.0973 183.328 22.6213 182.973 22.024C182.618 21.4267 182.441 20.764 182.441 20.036C182.441 19.2893 182.618 18.6267 182.973 18.048C183.328 17.4507 183.804 16.9747 184.401 16.62C184.998 16.2467 185.661 16.06 186.389 16.06C187.136 16.06 187.798 16.2373 188.377 16.592C188.974 16.9467 189.45 17.4227 189.805 18.02C190.178 18.6173 190.365 19.2893 190.365 20.036C190.365 20.7453 190.188 21.408 189.833 22.024C189.478 22.6213 189.002 23.0973 188.405 23.452C187.808 23.8067 187.136 23.984 186.389 23.984ZM186.417 21.52C186.828 21.52 187.173 21.3707 187.453 21.072C187.752 20.7733 187.901 20.4187 187.901 20.008C187.901 19.5973 187.752 19.252 187.453 18.972C187.173 18.6733 186.828 18.524 186.417 18.524C186.006 18.524 185.652 18.6733 185.353 18.972C185.054 19.252 184.905 19.5973 184.905 20.008C184.905 20.4187 185.054 20.7733 185.353 21.072C185.652 21.3707 186.006 21.52 186.417 21.52ZM202.713 42.94L201.481 40.112C204.468 39.1787 207.109 38.04 209.405 36.696C211.72 35.3333 213.885 33.672 215.901 31.712L218.141 33.812C216.722 35.2307 215.229 36.5 213.661 37.62C212.093 38.74 210.413 39.7293 208.621 40.588C206.829 41.4653 204.86 42.2493 202.713 42.94ZM192.297 42.716V34.232H201.229V41.624H195.321V39.132H198.401V36.724H195.321V42.716H192.297ZM192.521 32.776V30.256H201.005V32.776H192.521ZM192.521 28.8V26.28H201.005V28.8H192.521ZM191.597 24.796V22.08H201.481V24.796H191.597ZM203.105 36.808L201.957 33.98C204.365 33.1213 206.502 32.076 208.369 30.844C210.236 29.5933 211.916 28.1093 213.409 26.392L215.649 28.464C214.566 29.7147 213.39 30.8533 212.121 31.88C210.87 32.9067 209.498 33.8213 208.005 34.624C206.53 35.4267 204.897 36.1547 203.105 36.808ZM192.297 20.708V18.104H201.061V20.708H192.297ZM203.021 30.76L201.901 28.016C203.637 27.288 205.158 26.4573 206.465 25.524C207.79 24.5907 208.976 23.5173 210.021 22.304L212.289 24.376C211.15 25.7573 209.816 26.9707 208.285 28.016C206.773 29.0613 205.018 29.976 203.021 30.76ZM202.321 26.392L200.809 23.732C202.078 22.78 203.245 21.7627 204.309 20.68C205.392 19.5787 206.4 18.3747 207.333 17.068H210.497C211.281 17.9453 212.065 18.7667 212.849 19.532C213.652 20.2787 214.482 20.988 215.341 21.66C216.2 22.332 217.133 23.004 218.141 23.676L217.021 26.532C215.528 25.5427 214.118 24.4693 212.793 23.312C211.486 22.1547 210.245 20.8853 209.069 19.504C208.098 20.8667 207.053 22.108 205.933 23.228C204.813 24.348 203.609 25.4027 202.321 26.392ZM220.353 42.044V17.824H223.405V37.928H231.777V40.476H223.405V42.044H220.353ZM224.497 36.192L223.041 33.392C224.161 32.1227 225.076 30.8533 225.785 29.584C226.513 28.296 227.064 26.9333 227.437 25.496L228.837 26.252C228.669 27.54 228.38 28.7907 227.969 30.004C227.558 31.2173 227.064 32.356 226.485 33.42C225.906 34.4653 225.244 35.3893 224.497 36.192ZM231.777 34.876C231.18 33.7 230.545 32.5053 229.873 31.292C229.22 30.06 228.529 28.7813 227.801 27.456L229.817 26.364C230.526 27.5213 231.226 28.6693 231.917 29.808C232.608 30.928 233.27 32.0387 233.905 33.14L231.777 34.876ZM227.101 37.396V28.044H223.937V25.328H227.101V17.264H230.013V25.328H233.569V28.044H230.013V37.396H227.101ZM225.169 24.88C224.852 23.928 224.497 22.9853 224.105 22.052C223.732 21.1 223.368 20.2227 223.013 19.42L225.281 18.58C225.654 19.4013 226.018 20.2787 226.373 21.212C226.746 22.1267 227.082 23.0787 227.381 24.068L225.169 24.88ZM232.589 42.352L230.209 40.14C230.825 39.3 231.366 38.4413 231.833 37.564C232.3 36.6867 232.682 35.716 232.981 34.652C233.298 33.5693 233.55 32.328 233.737 30.928C233.942 29.5093 234.082 27.848 234.157 25.944C234.25 24.0213 234.297 21.7813 234.297 19.224H237.405C237.405 21.9493 237.34 24.3573 237.209 26.448C237.097 28.5387 236.92 30.3773 236.677 31.964C236.453 33.5507 236.145 34.96 235.753 36.192C235.38 37.424 234.932 38.5347 234.409 39.524C233.905 40.5133 233.298 41.456 232.589 42.352ZM240.009 42.352V28.66H235.277V25.692H245.637V28.66H243.173V42.352H240.009ZM231.917 24.88L229.621 24.04C230.05 23.1813 230.461 22.248 230.853 21.24C231.264 20.232 231.6 19.28 231.861 18.384L234.241 18.944C233.98 19.9147 233.644 20.9133 233.233 21.94C232.822 22.9667 232.384 23.9467 231.917 24.88ZM234.325 22.164L234.297 19.224C236.276 19.0747 238.124 18.832 239.841 18.496C241.577 18.16 243.117 17.7493 244.461 17.264L245.273 20.204C242.324 21.1933 238.674 21.8467 234.325 22.164Z" fill="white"/>
</g>
<path d="M270.795 13.76C270.795 13.76 270.795 25.39 263.205 25.39C263.205 25.39 270.795 25.37 270.795 36.98C270.795 36.98 270.795 25.39 278.485 25.39C277.575 25.39 270.845 25.37 270.795 13.76Z" fill="white" stroke="white" stroke-width="0.82" stroke-linecap="round" stroke-linejoin="round"/>
<path d="M257.255 26.7C257.255 26.7 257.255 33.98 252.505 33.98C252.505 33.98 257.255 33.97 257.255 41.24C257.255 41.24 257.255 33.98 262.065 33.98C261.495 33.98 257.285 33.97 257.255 26.7Z" fill="white" stroke="white" stroke-width="0.82" stroke-linecap="round" stroke-linejoin="round"/>
<path d="M311.41 26.246L302.62 19.116C301.57 18.266 300 19.006 300 20.366V34.636C300 35.986 301.57 36.736 302.62 35.886L311.41 28.756C312.2 28.116 312.2 26.906 311.41 26.256V26.246Z" fill="white"/>
</g>
<defs>
<filter id="filter0_i_1011_6587" x="0" y="0" width="325" height="55" filterUnits="userSpaceOnUse" color-interpolation-filters="sRGB">
<feFlood flood-opacity="0" result="BackgroundImageFix"/>
<feBlend mode="normal" in="SourceGraphic" in2="BackgroundImageFix" result="shape"/>
<feColorMatrix in="SourceAlpha" type="matrix" values="0 0 0 0 0 0 0 0 0 0 0 0 0 0 0 0 0 0 127 0" result="hardAlpha"/>
<feOffset/>
<feGaussianBlur stdDeviation="2.5"/>
<feComposite in2="hardAlpha" operator="arithmetic" k2="-1" k3="1"/>
<feColorMatrix type="matrix" values="0 0 0 0 1 0 0 0 0 1 0 0 0 0 0.662745 0 0 0 1 0"/>
<feBlend mode="screen" in2="shape" result="effect1_innerShadow_1011_6587"/>
</filter>
<filter id="filter1_d_1011_6587" x="79.0652" y="16.0601" width="167.572" height="27.8799" filterUnits="userSpaceOnUse" color-interpolation-filters="sRGB">
<feFlood flood-opacity="0" result="BackgroundImageFix"/>
<feColorMatrix in="SourceAlpha" type="matrix" values="0 0 0 0 0 0 0 0 0 0 0 0 0 0 0 0 0 0 127 0" result="hardAlpha"/>
<feOffset dx="1" dy="1"/>
<feComposite in2="hardAlpha" operator="out"/>
<feColorMatrix type="matrix" values="0 0 0 0 0 0 0 0 0 0 0 0 0 0 0 0 0 0 0.2 0"/>
<feBlend mode="normal" in2="BackgroundImageFix" result="effect1_dropShadow_1011_6587"/>
<feBlend mode="normal" in="SourceGraphic" in2="effect1_dropShadow_1011_6587" result="shape"/>
</filter>
<linearGradient id="paint0_linear_1011_6587" x1="162.5" y1="0" x2="162.5" y2="55" gradientUnits="userSpaceOnUse">
<stop stop-color="#DAF200"/>
<stop offset="1" stop-color="#18A11C"/>
</linearGradient>
</defs>
</svg>
