<svg width="343" height="142" viewBox="0 0 343 142" fill="none" xmlns="http://www.w3.org/2000/svg">
<path d="M303.132 34.3548C302.22 26.8548 300.416 18.5348 294.548 13.3348C280.333 1.83482 254.492 2.56482 240.773 14.5548C231.297 -6.79519 197.516 -3.47519 188.733 16.8148C174.628 0.534815 144.098 -3.81518 131.192 16.0348C123.46 8.82482 112.894 4.26482 102.268 5.74482C92.5337 6.79482 81.977 13.2348 79.2709 23.1148C76.8027 20.1448 73.1351 17.4248 71.2815 16.6748C59.8922 11.6248 44.1415 11.3548 34.6851 19.7848C29.8974 22.2648 26.4479 26.4148 25.9622 33.1348C25.417 39.0748 24.8817 45.4748 26.884 51.1648C19.1326 51.8048 11.9461 58.0248 6.61323 63.2648C1.38941 68.3048 -1.86184 76.2748 1.16143 83.3248C6.48437 94.6848 21.0357 96.5248 32.1574 97.2748C32.1772 97.2748 32.1871 97.2748 32.207 97.2748C30.1254 102.035 29.3225 110.925 30.3534 115.945C30.4624 116.355 30.7598 116.725 31.1464 116.855C33.3172 127.465 43.2295 134.995 58.9506 136.165C71.0833 136.725 83.2358 132.005 94.2683 127.205C99.7598 134.285 108.453 138.875 117.265 139.865C137.248 141.665 146.348 132.065 149.322 123.765C157.232 132.075 168.978 136.355 180.179 137.355C188.02 137.865 195.712 135.985 203.047 133.285C203.84 133.845 204.652 134.305 205.386 134.655C210.61 137.575 215.953 140.855 222.069 141.195C223.298 141.335 224.566 141.405 225.875 141.405C235.51 141.405 246.512 137.525 248.991 127.405C257.951 129.695 266.644 133.435 275.972 133.935C287.312 134.395 300.911 133.055 308.613 123.665C314.105 116.895 316.543 107.155 314.075 98.6748C325.782 95.4148 338.955 88.5148 341.334 75.3548C345.914 52.8348 326.713 28.1848 303.102 34.3548H303.132ZM12.4021 74.1448C12.0948 75.0548 11.8569 75.9948 11.6983 76.9448C11.1729 75.9648 11.7578 74.9048 12.4021 74.1448ZM19.6282 61.3648C19.4597 61.3648 19.2912 61.3648 19.1226 61.3748C19.3605 61.2148 19.5885 61.0548 19.8363 60.8948C19.7669 61.0548 19.6976 61.2048 19.6381 61.3648H19.6282ZM34.4174 98.0848C34.348 97.8148 34.2291 97.5448 34.0705 97.3248C34.3183 97.3248 34.5661 97.3148 34.8238 97.2948C34.6851 97.5548 34.5562 97.8248 34.4174 98.0848Z" fill="white"/>
</svg>
