<svg width="83" height="49" viewBox="0 0 83 49" fill="none" xmlns="http://www.w3.org/2000/svg">
<path d="M11.0298 38.1373L15.9998 42.1773C15.9998 42.1773 17.1998 46.0073 11.0698 46.9773C11.0698 46.9773 6.75979 47.9673 7.40979 43.7373C7.72979 41.7773 9.50978 39.4473 11.0398 38.1373H11.0298Z" fill="#F2E33C"/>
<path d="M13.2499 47.9874C12.6699 48.1774 12.0299 48.3274 11.3399 48.4374C10.8699 48.5374 8.54989 48.9374 7.01989 47.5174C6.33989 46.8874 5.59988 45.6874 5.93988 43.5174C6.31988 41.1474 8.28989 38.5474 10.0599 37.0174C10.5999 36.5474 11.4099 36.5374 11.9599 36.9874L16.9299 41.0274C17.1599 41.2074 17.3199 41.4574 17.4099 41.7374C17.4699 41.9274 17.9599 43.6574 16.8699 45.4174C16.1499 46.5874 14.9299 47.4474 13.2499 47.9874ZM11.1199 40.1174C10.0599 41.2674 9.05988 42.7774 8.86988 43.9774C8.76988 44.6474 8.82988 45.1474 9.03988 45.3474C9.39988 45.6774 10.3799 45.6174 10.7399 45.5374C10.7699 45.5374 10.8099 45.5274 10.8399 45.5174C12.6399 45.2274 13.8599 44.6574 14.3599 43.8574C14.5599 43.5274 14.6099 43.2074 14.6199 42.9674L11.1199 40.1174Z" fill="#422B08"/>
<path d="M73.5597 17.9474L71.8997 24.1274C71.8997 24.1274 73.1697 27.9374 78.7097 25.1374C78.7097 25.1374 82.7797 23.4174 79.7797 20.3674C78.3797 18.9674 75.5697 18.1174 73.5597 17.9474Z" fill="#F2E33C"/>
<path d="M77.5198 27.2274C75.8398 27.7674 74.3498 27.7874 73.0798 27.2574C71.1598 26.4674 70.5498 24.7774 70.4898 24.5874C70.3998 24.3074 70.3898 24.0174 70.4698 23.7374L72.1398 17.5574C72.3298 16.8674 72.9798 16.4074 73.6998 16.4674C76.0398 16.6674 79.1498 17.6274 80.8398 19.3174C82.3898 20.8874 82.4898 22.2974 82.3098 23.2074C81.8998 25.2474 79.7798 26.2874 79.3498 26.4774C78.7198 26.7874 78.1198 27.0374 77.5398 27.2274H77.5198ZM73.4798 23.9574C73.6298 24.1474 73.8698 24.3974 74.2498 24.5474C75.1198 24.8874 76.4298 24.6374 78.0398 23.8274C78.0698 23.8074 78.0998 23.7974 78.1298 23.7874C78.5998 23.5774 79.3098 23.0674 79.3898 22.6374C79.4498 22.3574 79.1998 21.9074 78.7198 21.4174C77.8698 20.5674 76.1798 19.9274 74.6498 19.6174L73.4798 23.9674V23.9574Z" fill="#422B08"/>
<path d="M70.45 1.63742C67.43 1.79742 59.2199 2.36742 55.4399 3.85742C55.0799 3.95742 54.7099 4.06742 54.3499 4.18742C50.7999 5.33742 47.7899 7.15742 45.5799 9.13742C44.0499 9.94742 40.8299 11.2074 37.0299 12.4374C33.4299 13.5974 30.24 14.4374 28.4599 14.7274C25.49 14.3974 21.9299 14.6774 18.3299 15.8374C17.8399 15.9974 17.3599 16.1674 16.8899 16.3574L16.9199 16.3274C12.9799 17.3274 5.98995 21.6674 3.44995 23.3074C1.96995 23.7874 1.15995 25.3674 1.63995 26.8474C2.11995 28.3274 3.69995 29.1374 5.17995 28.6574L5.74995 28.4774C6.15995 29.6774 9.64995 39.6974 13.1899 41.3174C16.33 43.1474 21.2099 43.4874 26.1799 41.8874C31.7199 40.0974 35.7699 36.4074 36.8099 32.6674C38.2699 29.0874 36.8199 22.2374 36.1799 19.6474C36.6299 18.1874 37.3899 17.1774 38.4599 16.8274C39.61 16.4574 40.9299 16.9174 42.2399 18.0074C43.3299 20.6574 46.07 26.6774 49.2299 28.6574C52.2599 31.0774 57.7099 31.7074 63.25 29.9174C68.21 28.3174 71.9699 25.1774 73.45 21.8574C75.38 18.4774 72.3499 8.30742 71.9699 7.08742L72.1899 7.01742C73.67 6.53742 74.4799 4.95742 73.9999 3.47742C73.5199 1.99742 71.9399 1.18742 70.4599 1.66742L70.45 1.63742Z" fill="#FFF23F"/>
<path d="M63.6798 31.2874C57.8698 33.1674 51.8698 32.5874 48.3498 29.8274C45.0898 27.7274 42.3998 22.2374 40.9998 18.8974C40.1798 18.2874 39.4198 18.0274 38.8898 18.1974C38.2998 18.3874 37.9198 19.0974 37.6998 19.6774C38.5598 23.2874 39.6398 29.4274 38.1898 33.1074C36.9498 37.4074 32.4198 41.3874 26.6098 43.2574C21.4098 44.9374 16.1298 44.6874 12.4798 42.5874C9.06984 40.9474 6.09984 33.8074 4.77984 30.2074C2.78984 30.4374 0.849841 29.2374 0.209841 27.2574C-0.500159 25.0774 0.649841 22.7274 2.77984 21.9274C5.67984 20.0674 12.5098 15.8874 16.5398 14.8574C16.5698 14.8574 16.5898 14.8474 16.6198 14.8374C17.0398 14.6774 17.4598 14.5274 17.8698 14.3974C21.3098 13.2874 25.0398 12.8674 28.4098 13.2074C30.2198 12.8974 33.3098 12.0574 36.5698 11.0074C40.0098 9.89739 43.1698 8.68739 44.7298 7.88739C46.5398 6.29739 49.5698 4.15739 53.8898 2.75739C54.2298 2.64739 54.5698 2.54739 54.9098 2.44739C58.8098 0.927386 66.7498 0.337386 70.1798 0.147386C72.3698 -0.442614 74.6698 0.787386 75.3798 2.96739C75.9798 4.81739 75.2498 6.78739 73.7198 7.82739C74.7598 11.4874 76.5598 19.1074 74.7398 22.4574C73.0098 26.2974 68.8698 29.5874 63.6698 31.2674L63.6798 31.2874ZM37.9798 15.3774C39.1098 15.0174 40.9198 14.9674 43.1598 16.8274C43.3498 16.9774 43.4898 17.1774 43.5898 17.4074C45.6498 22.4174 48.0498 26.1374 49.9998 27.3574C50.0498 27.3874 50.0998 27.4174 50.1398 27.4574C52.8498 29.6274 57.9298 30.0274 62.7698 28.4674C67.1498 27.0574 70.7098 24.2774 72.0698 21.2174C72.0898 21.1774 72.1098 21.1274 72.1398 21.0874C73.2398 19.1674 72.1598 12.7874 70.5398 7.48739C70.2998 6.71739 70.7298 5.88739 71.4998 5.64739L71.7198 5.57739C72.4198 5.34739 72.7998 4.60739 72.5798 3.90739C72.3598 3.20739 71.6098 2.82739 70.9098 3.04739C70.7898 3.08739 70.6598 3.10739 70.5298 3.11739C68.0698 3.24739 59.7998 3.79739 56.1098 5.18739C56.0298 5.22739 55.9398 5.25739 55.8498 5.28739C55.5098 5.37739 55.1598 5.47739 54.8198 5.59739C51.7398 6.59739 48.8098 8.23739 46.5798 10.2374C46.4898 10.3174 46.3898 10.3874 46.2798 10.4474C44.6198 11.3274 41.2498 12.6274 37.4898 13.8474C33.9298 14.9974 30.6398 15.8774 28.6998 16.1874C28.5698 16.2074 28.4298 16.2074 28.2998 16.1874C25.2898 15.8474 21.9198 16.2274 18.7898 17.2274C18.3498 17.3674 17.8898 17.5374 17.4298 17.7174C17.2898 17.7674 17.1498 17.8074 17.0098 17.8174C13.1498 18.9274 6.29984 23.2174 4.24984 24.5274C4.13984 24.5974 4.02984 24.6474 3.90984 24.6874C3.20984 24.9074 2.82984 25.6574 3.04984 26.3574C3.26984 27.0574 4.01984 27.4374 4.71984 27.2174L5.28984 27.0374C6.05984 26.7874 6.88984 27.2074 7.14984 27.9674C8.92984 33.2174 11.7898 39.0174 13.7998 39.9374C13.8398 39.9574 13.8898 39.9774 13.9298 40.0074C16.8198 41.6974 21.3398 41.8674 25.7098 40.4474C30.5598 38.8774 34.4398 35.5874 35.3698 32.2374C35.3898 32.1874 35.3998 32.1274 35.4298 32.0774C36.7498 28.8274 35.2298 21.9874 34.7398 19.9674C34.6798 19.7074 34.6798 19.4374 34.7598 19.1774C35.5298 16.6574 36.9498 15.7274 37.9998 15.3874L37.9798 15.3774Z" fill="#422B08"/>
<path d="M32.9298 20.8173C32.0798 18.1773 25.7398 16.5773 19.2498 18.6773C12.7598 20.7773 8.54981 25.7773 9.39981 28.4173C9.39981 28.4173 12.2898 37.1773 15.2298 38.5173C17.6798 39.9473 21.4798 40.2073 25.3498 38.9673C29.6698 37.5773 32.8198 34.6973 33.6298 31.7773C35.0498 28.2973 32.9398 20.8573 32.9298 20.8173Z" fill="#422B08"/>
<path d="M17.5398 39.4074C18.9498 39.7574 20.5698 39.8474 22.2798 39.6374L25.0998 17.7074C23.5698 17.7274 21.9298 17.9374 20.2498 18.3874L17.5498 39.4074H17.5398Z" fill="#5A3E19"/>
<path d="M24.4099 39.2174C24.7199 39.1374 25.0399 39.0574 25.3499 38.9574C25.8799 38.7874 26.3999 38.5874 26.8999 38.3774L29.4799 18.2874C28.7799 18.0774 27.9999 17.9174 27.1599 17.8174L24.4099 39.2174Z" fill="#5A3E19"/>
<path d="M45.4298 16.7773C44.5798 14.1373 48.7798 9.13733 55.2798 7.03733C61.7798 4.93733 68.1098 6.53733 68.9598 9.17733C68.9598 9.17733 71.7298 17.9773 70.1398 20.7773C68.9898 23.3673 66.0598 25.8073 62.1898 27.0573C57.8698 28.4473 53.6298 27.9673 51.2698 26.0773C48.0798 24.0873 45.4398 16.8173 45.4298 16.7773Z" fill="#422B08"/>
<path d="M54.6599 27.5874C56.0899 27.8974 57.7099 27.9274 59.4099 27.6874L62.1799 6.09737C60.6899 6.01737 59.0499 6.13737 57.3699 6.48737L54.6599 27.5874Z" fill="#5A3E19"/>
<path d="M61.5598 27.2373C61.7698 27.1773 61.9798 27.1373 62.1898 27.0673C62.8398 26.8573 63.4598 26.5973 64.0498 26.3273L66.5298 7.02729C65.8598 6.73729 65.0998 6.50729 64.2398 6.34729L61.5498 27.2473L61.5598 27.2373Z" fill="#5A3E19"/>
<path d="M11.0298 38.1377L15.9998 42.1777C15.9998 42.1777 17.1998 46.0077 11.0698 46.9777C11.0698 46.9777 6.75979 47.9677 7.40979 43.7377C7.72979 41.7777 9.50978 39.4477 11.0398 38.1377H11.0298Z" fill="#F2E33C"/>
<path d="M13.0297 47.2777C12.4797 47.4577 11.8697 47.5977 11.2097 47.7077C10.9297 47.7677 8.81967 48.1677 7.52967 46.9677C6.73967 46.2277 6.44967 45.1077 6.66967 43.6177C7.01967 41.4477 8.91967 38.9677 10.5397 37.5677C10.8097 37.3377 11.2097 37.3277 11.4897 37.5577L16.4597 41.5977C16.5697 41.6877 16.6597 41.8077 16.6997 41.9477C16.7197 42.0077 17.1697 43.5077 16.2397 45.0177C15.6097 46.0277 14.5297 46.7877 13.0197 47.2777H13.0297ZM11.0597 39.1177C9.72967 40.4077 8.38967 42.3177 8.13967 43.8577C7.98967 44.8177 8.12967 45.5077 8.53967 45.8877C9.18967 46.4877 10.4997 46.3577 10.9097 46.2577C10.9297 46.2577 10.9397 46.2577 10.9597 46.2577C12.9797 45.9377 14.3797 45.2477 14.9897 44.2477C15.4097 43.5777 15.3797 42.9077 15.3397 42.5977L11.0697 39.1277L11.0597 39.1177Z" fill="#422B08"/>
<path d="M73.5597 17.9478L71.8997 24.1278C71.8997 24.1278 73.1697 27.9378 78.7097 25.1378C78.7097 25.1378 82.7797 23.4178 79.7797 20.3678C78.3797 18.9678 75.5697 18.1178 73.5597 17.9478Z" fill="#F2E33C"/>
<path d="M77.2897 26.5277C75.7797 27.0177 74.4597 27.0377 73.3597 26.5777C71.7197 25.8977 71.2097 24.4277 71.1897 24.3577C71.1397 24.2177 71.1397 24.0677 71.1797 23.9277L72.8497 17.7477C72.9397 17.3977 73.2697 17.1677 73.6297 17.1977C75.7597 17.3877 78.7597 18.2877 80.3097 19.8277C81.3697 20.8977 81.7897 21.9877 81.5797 23.0477C81.2397 24.7677 79.2897 25.6777 79.0297 25.7977C78.4297 26.0977 77.8597 26.3377 77.3097 26.5177L77.2897 26.5277ZM72.6797 24.0677C72.8297 24.3577 73.1997 24.9177 73.9497 25.2177C75.0297 25.6477 76.5497 25.3877 78.3697 24.4777C78.3797 24.4777 78.3997 24.4677 78.4197 24.4577C78.8297 24.2777 79.9497 23.6277 80.1197 22.7677C80.2297 22.2177 79.9397 21.5877 79.2497 20.8877C78.1497 19.7877 75.9497 19.0277 74.1097 18.7577L72.6797 24.0777V24.0677Z" fill="#422B08"/>
<path d="M70.4497 1.63766C67.4297 1.79766 59.2197 2.36766 55.4397 3.85766C55.0797 3.95766 54.7097 4.06766 54.3497 4.18766C50.7997 5.33766 47.7897 7.15766 45.5797 9.13766C44.0497 9.94766 40.8297 11.2077 37.0297 12.4377C33.4297 13.5977 30.2397 14.4377 28.4597 14.7277C25.4897 14.3977 21.9297 14.6777 18.3297 15.8377C17.8397 15.9977 17.3597 16.1677 16.8897 16.3577L16.9197 16.3277C12.9797 17.3277 5.98971 21.6677 3.44971 23.3077C1.96971 23.7877 1.15971 25.3677 1.63971 26.8477C2.11971 28.3277 3.69971 29.1377 5.17971 28.6577L5.74971 28.4777C6.15971 29.6777 9.64971 39.6977 13.1897 41.3177C16.3297 43.1477 21.2097 43.4877 26.1797 41.8877C31.7197 40.0977 35.7697 36.4077 36.8097 32.6677C38.2697 29.0877 36.8197 22.2377 36.1797 19.6477C36.6297 18.1877 37.3897 17.1777 38.4597 16.8277C39.6097 16.4577 40.9297 16.9177 42.2397 18.0077C43.3297 20.6577 46.0697 26.6777 49.2297 28.6577C52.2597 31.0777 57.7097 31.7077 63.2497 29.9177C68.2097 28.3177 71.9697 25.1777 73.4497 21.8577C75.3797 18.4777 72.3497 8.30766 71.9697 7.08766L72.1897 7.01766C73.6697 6.53766 74.4797 4.95766 73.9997 3.47766C73.5197 1.99766 71.9397 1.18766 70.4597 1.66766L70.4497 1.63766Z" fill="#FFF23F"/>
<path d="M63.4597 30.5877C57.8597 32.3977 52.1097 31.8577 48.7897 29.2277C45.6197 27.2177 42.9597 21.6877 41.6097 18.4377C40.8097 17.7977 39.6897 17.1777 38.6697 17.5077C37.7497 17.8077 37.2197 18.7977 36.9297 19.6477C37.6297 22.5577 38.9597 29.2077 37.4897 32.8877C36.3297 36.9677 31.9797 40.7677 26.3897 42.5777C21.4497 44.1777 16.2597 43.9377 12.8297 41.9577C9.42968 40.3577 6.28968 32.2677 5.26968 29.3877C3.43968 29.9077 1.50968 28.8877 0.919681 27.0677C0.329681 25.2377 1.30968 23.2677 3.10968 22.6277C5.93968 20.8177 12.7597 16.6177 16.7197 15.6077C16.7497 15.6077 16.7797 15.5977 16.8097 15.5877C17.2397 15.4277 17.6697 15.2677 18.0897 15.1377C21.4697 14.0477 25.1397 13.6377 28.4197 13.9877C30.2497 13.6777 33.4397 12.8277 36.7897 11.7477C40.3697 10.5877 43.5597 9.36767 45.1397 8.54767C46.8897 6.99767 49.8497 4.88767 54.1097 3.50767C54.4597 3.39767 54.7997 3.29767 55.1397 3.19767C58.9497 1.69767 66.9297 1.11767 70.2897 0.927666C72.1297 0.387666 74.0697 1.41767 74.6597 3.24767C75.2097 4.94767 74.3997 6.77767 72.8297 7.53767C73.6797 10.4477 75.8897 18.8877 74.0597 22.1877C72.4397 25.7977 68.3697 29.0177 63.4297 30.6177L63.4597 30.5877ZM38.2097 16.0777C39.5697 15.6377 41.1197 16.0977 42.6897 17.3977C42.7797 17.4777 42.8597 17.5777 42.8997 17.6877C43.9197 20.1577 46.5997 26.1077 49.5997 27.9877C49.6197 28.0077 49.6497 28.0177 49.6697 28.0377C52.6097 30.3877 57.8397 30.8377 62.9997 29.1777C67.5697 27.6977 71.3097 24.7677 72.7497 21.5177C72.7597 21.4977 72.7697 21.4777 72.7797 21.4477C74.2197 18.9177 72.4897 11.3377 71.2397 7.26767C71.1197 6.87767 71.3397 6.46767 71.7197 6.34767L71.9397 6.27767C73.0297 5.92767 73.6197 4.75767 73.2697 3.67767C72.9197 2.59767 71.7497 1.99767 70.6697 2.34767C70.6097 2.36767 70.5497 2.37767 70.4797 2.37767C67.9797 2.51767 59.5697 3.06767 55.7897 4.51767C55.7397 4.54767 55.6897 4.56767 55.6297 4.57767C55.2797 4.67767 54.9197 4.77767 54.5697 4.88767C51.3897 5.91767 48.3697 7.61767 46.0597 9.67767C46.0197 9.71767 45.9697 9.74767 45.9097 9.77767C44.2797 10.6377 40.9597 11.9177 37.2397 13.1277C33.5197 14.3377 30.4597 15.1277 28.5597 15.4377C28.4897 15.4477 28.4297 15.4477 28.3597 15.4377C25.2497 15.0877 21.7697 15.4777 18.5397 16.5177C18.0797 16.6677 17.6097 16.8377 17.1397 17.0177C17.0497 17.0477 16.9597 17.0677 16.8697 17.0677C12.9397 18.1677 5.90968 22.5577 3.82968 23.8877C3.77968 23.9177 3.71968 23.9477 3.65968 23.9677C2.56968 24.3177 1.97968 25.4877 2.32968 26.5677C2.67968 27.6477 3.84968 28.2477 4.92968 27.8977L5.49968 27.7177C5.88968 27.5977 6.29968 27.7977 6.42968 28.1877C7.79968 32.2277 10.8297 39.3777 13.4797 40.5877C13.4997 40.5977 13.5197 40.6077 13.5397 40.6177C16.6097 42.4077 21.3597 42.5977 25.9297 41.1277C31.0797 39.4677 35.0597 36.0377 36.0697 32.4077C36.0697 32.3777 36.0897 32.3577 36.0997 32.3277C37.5097 28.8777 35.9497 21.8377 35.4397 19.7577C35.4097 19.6277 35.4097 19.4877 35.4497 19.3677C35.9897 17.6177 36.9397 16.4677 38.2097 16.0577V16.0777Z" fill="#422B08"/>
<path d="M32.9296 20.8176C32.0796 18.1776 25.7396 16.5776 19.2496 18.6776C12.7596 20.7776 8.54957 25.7776 9.39957 28.4176C9.39957 28.4176 12.2896 37.1776 15.2296 38.5176C17.6796 39.9476 21.4796 40.2076 25.3496 38.9676C29.6696 37.5776 32.8196 34.6976 33.6296 31.7776C35.0496 28.2976 32.9396 20.8576 32.9296 20.8176Z" fill="#422B08"/>
<path d="M17.5396 39.4076C18.9496 39.7576 20.5696 39.8476 22.2796 39.6376L25.0996 17.7076C23.5696 17.7276 21.9295 17.9376 20.2495 18.3876L17.5496 39.4076H17.5396Z" fill="#5A3E19"/>
<path d="M24.4097 39.2176C24.7197 39.1376 25.0397 39.0576 25.3497 38.9576C25.8797 38.7876 26.3997 38.5876 26.8997 38.3776L29.4797 18.2876C28.7797 18.0776 27.9997 17.9176 27.1597 17.8176L24.4097 39.2176Z" fill="#5A3E19"/>
<path d="M45.4298 16.7777C44.5798 14.1377 48.7798 9.13769 55.2798 7.03769C61.7798 4.9377 68.1098 6.53769 68.9598 9.17769C68.9598 9.17769 71.7298 17.9777 70.1398 20.7777C68.9898 23.3677 66.0598 25.8077 62.1898 27.0577C57.8698 28.4477 53.6298 27.9677 51.2698 26.0777C48.0798 24.0877 45.4398 16.8177 45.4298 16.7777Z" fill="#422B08"/>
<path d="M54.6599 27.5877C56.0899 27.8977 57.7099 27.9277 59.4099 27.6877L62.1799 6.09774C60.6899 6.01774 59.0499 6.13774 57.3699 6.48774L54.6599 27.5877Z" fill="#5A3E19"/>
<path d="M61.5598 27.2377C61.7698 27.1777 61.9798 27.1377 62.1898 27.0677C62.8398 26.8577 63.4598 26.5977 64.0498 26.3277L66.5298 7.02766C65.8598 6.73766 65.0998 6.50766 64.2398 6.34766L61.5498 27.2477L61.5598 27.2377Z" fill="#5A3E19"/>
</svg>
