<svg width="87" height="26" viewBox="0 0 87 26" fill="none" xmlns="http://www.w3.org/2000/svg">
<path d="M12.7 0.98999H1.98C1.43 0.98999 0.98999 1.42999 0.98999 1.97999V23.03C0.98999 23.58 1.43 24.02 1.98 24.02H12.7C13.25 24.02 13.69 23.58 13.69 23.03V1.97999C13.69 1.42999 13.25 0.98999 12.7 0.98999ZM10.06 19.06H3.60999V11.15H4.64V18.03H10.06V19.06ZM6.85999 10.54C6.70999 10.97 7.31999 11.7 8.18999 12.12C9.23999 12.63 10.04 13.1 10.04 14.16H9.00999C9.00999 13.78 8.83 13.57 7.75 13.04C7.14 12.75 6.61999 12.33 6.26999 11.88C5.83999 11.32 5.70999 10.72 5.89999 10.18L6.87 10.53L6.85999 10.54ZM6.09999 9.35999C6.12999 9.27999 6.16999 9.18999 6.21999 9.10999C6.39999 8.79999 6.64 8.54999 6.95 8.35999C7.26 8.17999 7.59999 8.07999 7.95999 8.07999C8.31999 8.07999 8.65999 8.16999 8.96999 8.35999C9.27999 8.53999 9.52999 8.78999 9.71999 9.10999C9.76999 9.18999 9.81 9.26999 9.84 9.34999L8.89999 9.86999C8.87999 9.78999 8.84999 9.71999 8.79999 9.64999C8.70999 9.51999 8.6 9.40999 8.45 9.32999C8.3 9.24999 8.13999 9.20999 7.95999 9.20999C7.77999 9.20999 7.61999 9.24999 7.46999 9.32999C7.31999 9.40999 7.21 9.51999 7.12 9.64999C7.07 9.71999 7.03999 9.79999 7.01999 9.86999L6.09 9.34999L6.09999 9.35999ZM10.01 14.83C10.01 15.23 9.92999 15.58 9.75999 15.87C9.58999 16.17 9.35999 16.39 9.04999 16.55C8.73999 16.71 8.38999 16.79 7.96999 16.79C7.54999 16.79 7.2 16.71 6.89 16.55C6.58 16.39 6.34999 16.16 6.17999 15.87C6.00999 15.57 5.92999 15.23 5.92999 14.83H6.95C6.95 15.02 6.98999 15.19 7.07999 15.33C7.16999 15.48 7.28999 15.6 7.43999 15.68C7.58999 15.77 7.76999 15.81 7.96999 15.82C8.16999 15.82 8.35 15.77 8.5 15.68C8.65 15.59 8.77999 15.48 8.85999 15.33C8.94999 15.18 8.98999 15.01 8.98999 14.82H9.98999L10.01 14.83ZM10.62 8.80999C10.56 8.61999 10.49 8.43999 10.39 8.25999C10.15 7.81999 9.81999 7.47999 9.40999 7.22999C8.98999 6.97999 8.51999 6.83999 7.96999 6.81999C7.42999 6.83999 6.95 6.97999 6.53 7.22999C6.12 7.47999 5.78999 7.81999 5.54999 8.25999C5.44999 8.43999 5.36999 8.62999 5.31999 8.82999L4.23 8.20999C4.3 7.99999 4.37999 7.79999 4.48999 7.60999C4.80999 6.99999 5.27 6.53999 5.87 6.20999C6.47 5.87999 7.16 5.71999 7.98 5.71999C8.8 5.71999 9.49 5.87999 10.09 6.20999C10.69 6.53999 11.15 7.00999 11.47 7.60999C11.57 7.78999 11.65 7.97999 11.71 8.16999L10.63 8.80999H10.62Z" fill="#088547"/>
<path d="M12.7 0H1.98C0.889996 0 0 0.89 0 1.98V23.03C0 24.12 0.889996 25.01 1.98 25.01H12.7C13.79 25.01 14.68 24.12 14.68 23.03V1.98C14.68 0.89 13.79 0 12.7 0ZM14.02 23.02C14.02 23.75 13.43 24.34 12.7 24.34H1.98C1.25 24.34 0.659988 23.75 0.659988 23.02V1.98C0.659988 1.25 1.25 0.66 1.98 0.66H12.7C13.43 0.66 14.02 1.25 14.02 1.98V23.03V23.02Z" fill="#088547"/>
<path d="M26.98 8.63006H22.01C21.74 8.63006 21.5 8.70006 21.27 8.83006C21.04 8.96006 20.86 9.14006 20.73 9.37006C20.6 9.60006 20.53 9.85006 20.53 10.1301C20.53 10.4101 20.6 10.6501 20.73 10.8801C20.86 11.1101 21.04 11.3001 21.27 11.4401C21.5 11.5801 21.75 11.6501 22.01 11.6501H24.44C24.99 11.6501 25.5 11.7801 25.96 12.0501C26.42 12.3201 26.8 12.6801 27.07 13.1401C27.34 13.6001 27.48 14.1001 27.48 14.6501C27.48 15.2001 27.34 15.6901 27.07 16.1601C26.8 16.6301 26.42 17.0001 25.96 17.2701C25.49 17.5401 24.98 17.6801 24.44 17.6801H19.6V16.1401H24.45C24.72 16.1401 24.98 16.0701 25.21 15.9401C25.44 15.8101 25.62 15.6301 25.75 15.4001C25.88 15.1701 25.95 14.9201 25.95 14.6401C25.95 14.3601 25.88 14.1201 25.74 13.8901C25.6 13.6601 25.42 13.4901 25.2 13.3501C24.97 13.2201 24.72 13.1501 24.45 13.1501H22.05C21.49 13.1501 20.98 13.0101 20.51 12.7401C20.04 12.4701 19.67 12.0901 19.4 11.6301C19.13 11.1601 18.99 10.6501 18.99 10.1001C18.99 9.55006 19.13 9.05006 19.4 8.58006C19.67 8.12006 20.05 7.75006 20.51 7.47006C20.98 7.20006 21.49 7.06006 22.05 7.06006H26.98V8.60006V8.63006Z" fill="#088547"/>
<path d="M33.2399 17.7001H31.7V7.09009H33.2399V17.7001Z" fill="#088547"/>
<path d="M29.95 8.63009V7.09009H35V8.63009H29.95Z" fill="#088547"/>
<path d="M29.95 17.7002V16.1602H35V17.7002H29.95Z" fill="#088547"/>
<path d="M56.32 20.5601L55.63 19.8701H85.84V21.4101H55.56C55.34 21.4101 55.15 21.3301 55 21.1801C54.85 21.0301 54.77 20.8401 54.77 20.6201V7.1001H56.31V20.5701L56.32 20.5601Z" fill="#B3D762"/>
<path d="M66.49 8.63008H62.32C62.04 8.63008 61.78 8.69008 61.56 8.82008C61.33 8.95008 61.15 9.12008 61.02 9.35008C60.88 9.58008 60.81 9.83008 60.81 10.1001V14.6901C60.81 14.9601 60.88 15.2101 61.02 15.4401C61.16 15.6701 61.34 15.8401 61.57 15.9701C61.8 16.1001 62.05 16.1601 62.33 16.1601H66.5V17.7001H62.34C61.78 17.7001 61.27 17.5601 60.8 17.2901C60.33 17.0201 59.96 16.6501 59.69 16.1801C59.42 15.7201 59.28 15.2101 59.28 14.6601V10.1201C59.28 9.57008 59.42 9.07008 59.69 8.60008C59.96 8.14008 60.34 7.77008 60.8 7.49008C61.27 7.22008 61.78 7.08008 62.34 7.08008H66.5V8.62008L66.49 8.63008ZM66.05 13.1801H61.51V11.6501H66.05V13.1801Z" fill="#B3D762"/>
<path d="M82.8501 15.4202C83.2643 15.4202 83.6001 15.0844 83.6001 14.6702C83.6001 14.256 83.2643 13.9202 82.8501 13.9202C82.4359 13.9202 82.1001 14.256 82.1001 14.6702C82.1001 15.0844 82.4359 15.4202 82.8501 15.4202Z" fill="#B3D762"/>
<path d="M79.77 12.7701C80.24 13.0401 80.75 13.1801 81.31 13.1801H82.87L83.73 11.6801C83.59 11.6601 83.45 11.6501 83.3 11.6501H81.26C80.99 11.6501 80.75 11.5801 80.52 11.4401C80.29 11.3001 80.11 11.1101 79.98 10.8801C79.85 10.6501 79.78 10.4001 79.78 10.1301C79.78 9.86009 79.85 9.60009 79.98 9.37009C80.11 9.14009 80.29 8.96009 80.52 8.83009C80.75 8.70009 81 8.63009 81.26 8.63009H85.84V7.09009H81.3C80.74 7.09009 80.23 7.23009 79.76 7.50009C79.29 7.77009 78.92 8.14009 78.65 8.61009C78.38 9.07009 78.24 9.58009 78.24 10.1301C78.24 10.6801 78.38 11.1901 78.65 11.6501C78.92 12.1201 79.3 12.4901 79.76 12.7601L79.77 12.7701Z" fill="#B3D762"/>
<path d="M82.8701 16.1602H78.8501V17.7002H83.3001C83.4501 17.7002 83.6001 17.6902 83.7401 17.6702L82.8701 16.1602Z" fill="#B3D762"/>
<path d="M85.9399 16.1801C86.2099 15.7101 86.3499 15.2101 86.3499 14.6701C86.3499 14.1301 86.2099 13.6201 85.9399 13.1601C85.6699 12.7001 85.2899 12.3401 84.8299 12.0701C84.7099 12.0001 84.5899 11.9401 84.4599 11.8901L83.6799 13.2401C83.8099 13.2701 83.9399 13.3201 84.0599 13.3901C84.2899 13.5201 84.4699 13.7001 84.5999 13.9301C84.7399 14.1601 84.8099 14.4101 84.8099 14.6801C84.8099 14.9501 84.7399 15.2101 84.6099 15.4401C84.4799 15.6701 84.2999 15.8501 84.0699 15.9801C83.9499 16.0501 83.8199 16.1001 83.6899 16.1301L84.4699 17.4801C84.5899 17.4301 84.7099 17.3701 84.8299 17.3001C85.2999 17.0301 85.6699 16.6501 85.9399 16.1901V16.1801Z" fill="#B3D762"/>
<path d="M75.91 8.63007H71.33C71.06 8.63007 70.8201 8.70007 70.5901 8.83007C70.3601 8.96007 70.18 9.14007 70.05 9.37007C69.92 9.60007 69.8501 9.85007 69.8501 10.1301C69.8501 10.4101 69.92 10.6501 70.05 10.8801C70.18 11.1101 70.3601 11.3001 70.5901 11.4401C70.8201 11.5801 71.07 11.6501 71.33 11.6501H73.3701C73.9201 11.6501 74.4301 11.7801 74.8901 12.0501C75.3501 12.3201 75.7301 12.6801 76.0001 13.1401C76.2701 13.6001 76.41 14.1001 76.41 14.6501C76.41 15.2001 76.2701 15.6901 76.0001 16.1601C75.7301 16.6301 75.3501 17.0001 74.8901 17.2701C74.4301 17.5401 73.9101 17.6801 73.3701 17.6801H68.9201V16.1401H73.3801C73.6501 16.1401 73.9101 16.0701 74.1401 15.9401C74.3701 15.8101 74.5501 15.6301 74.6801 15.4001C74.8101 15.1701 74.8801 14.9201 74.8801 14.6401C74.8801 14.3601 74.8101 14.1201 74.6701 13.8901C74.5301 13.6601 74.3501 13.4901 74.1301 13.3501C73.9001 13.2201 73.6501 13.1501 73.3801 13.1501H71.3701C70.8101 13.1501 70.3 13.0101 69.83 12.7401C69.36 12.4701 68.99 12.0901 68.72 11.6301C68.45 11.1601 68.3101 10.6501 68.3101 10.1101C68.3101 9.57007 68.45 9.06007 68.72 8.59007C68.99 8.13007 69.37 7.76007 69.83 7.48007C70.3 7.21007 70.8101 7.07007 71.3701 7.07007H75.91V8.61007V8.63007Z" fill="#B3D762"/>
<path d="M44.13 17.7001C43.6 17.7001 43.11 17.5701 42.69 17.3301C42.26 17.0801 41.93 16.7401 41.68 16.3101C41.44 15.8801 41.32 15.3701 41.32 14.8001V9.79009C41.32 9.55009 41.26 9.33009 41.15 9.13009C41.03 8.93009 40.88 8.78009 40.68 8.66009C40.48 8.54009 40.27 8.49009 40.04 8.49009C39.81 8.49009 39.6 8.55009 39.41 8.66009C39.22 8.78009 39.07 8.93009 38.95 9.13009C38.84 9.33009 38.78 9.55009 38.78 9.79009V17.5301H37.21V9.98009C37.21 9.44009 37.33 8.94009 37.57 8.51009C37.81 8.07009 38.14 7.73009 38.57 7.47009C39 7.22009 39.49 7.09009 40.04 7.09009C40.59 7.09009 41.1 7.22009 41.53 7.47009C41.96 7.72009 42.29 8.07009 42.53 8.51009C42.77 8.94009 42.89 9.44009 42.89 9.98009V14.9901C42.89 15.2401 42.95 15.4601 43.06 15.6501C43.18 15.8401 43.33 16.0001 43.52 16.1101C43.71 16.2201 43.92 16.2801 44.14 16.2801C44.36 16.2801 44.57 16.2201 44.75 16.1101C44.94 15.9901 45.09 15.8401 45.2 15.6501C45.31 15.4601 45.37 15.2401 45.37 14.9901V9.98009C45.37 9.44009 45.49 8.94009 45.73 8.51009C45.97 8.07009 46.31 7.73009 46.74 7.47009C47.17 7.22009 47.67 7.09009 48.23 7.09009C48.79 7.09009 49.28 7.22009 49.7 7.47009C50.13 7.72009 50.46 8.07009 50.7 8.51009C50.94 8.94009 51.06 9.44009 51.06 9.98009V17.5301H49.49V9.79009C49.49 9.55009 49.43 9.33009 49.32 9.13009C49.21 8.93009 49.06 8.78009 48.86 8.66009C48.67 8.55009 48.46 8.49009 48.23 8.49009C48 8.49009 47.77 8.55009 47.58 8.66009C47.39 8.78009 47.23 8.93009 47.12 9.13009C47 9.33009 46.95 9.55009 46.95 9.79009V14.8001C46.95 15.3701 46.83 15.8801 46.59 16.3101C46.35 16.7401 46.01 17.0801 45.59 17.3301C45.17 17.5801 44.69 17.7001 44.15 17.7001H44.13Z" fill="#088547"/>
</svg>
