<svg width="115" height="34" viewBox="0 0 115 34" fill="none" xmlns="http://www.w3.org/2000/svg">
<path d="M16.8001 1.31006H2.62006C1.90006 1.31006 1.31006 1.90006 1.31006 2.62006V30.4501C1.31006 31.1701 1.90006 31.7601 2.62006 31.7601H16.8001C17.5201 31.7601 18.1101 31.1701 18.1101 30.4501V2.62006C18.1101 1.90006 17.5201 1.31006 16.8001 1.31006ZM13.3101 25.2101H4.78006V14.7401H6.14006V23.8401H13.3101V25.2001V25.2101ZM9.07007 13.9401C8.87007 14.5101 9.67006 15.4701 10.8401 16.0301C12.2201 16.7001 13.2801 17.3201 13.2801 18.7301H11.9201C11.9201 18.2301 11.6801 17.9501 10.2501 17.2501C9.45006 16.8601 8.75005 16.3201 8.29005 15.7201C7.72005 14.9801 7.54005 14.1801 7.79005 13.4801L9.07007 13.9401ZM8.06006 12.3901C8.11006 12.2801 8.16006 12.1701 8.22006 12.0601C8.46006 11.6401 8.78006 11.3201 9.19006 11.0701C9.60006 10.8301 10.0401 10.7101 10.5301 10.7101C11.0201 10.7101 11.4501 10.8301 11.8701 11.0701C12.2901 11.3101 12.6101 11.6401 12.8601 12.0601C12.9201 12.1601 12.9701 12.2701 13.0201 12.3801L11.7801 13.0701C11.7501 12.9701 11.7101 12.8701 11.6501 12.7701C11.5401 12.5901 11.3801 12.4501 11.1801 12.3501C10.9801 12.2501 10.7701 12.2001 10.5301 12.2001C10.2901 12.2001 10.0801 12.2501 9.89006 12.3601C9.70006 12.4701 9.54007 12.6101 9.43007 12.7801C9.37007 12.8701 9.33006 12.9701 9.30006 13.0801L8.07007 12.3901H8.06006ZM13.2401 19.6201C13.2401 20.1501 13.1301 20.6101 12.9101 21.0001C12.6901 21.3901 12.3801 21.6901 11.9701 21.9101C11.5701 22.1201 11.1001 22.2301 10.5401 22.2301C9.98005 22.2301 9.52006 22.1201 9.11006 21.9101C8.71006 21.7001 8.39006 21.4001 8.17006 21.0001C7.95006 20.6101 7.84006 20.1501 7.84006 19.6201H9.19006C9.19006 19.8701 9.25006 20.0901 9.37006 20.2901C9.49006 20.4901 9.65007 20.6401 9.85007 20.7601C10.0501 20.8701 10.2901 20.9301 10.5601 20.9401C10.8301 20.9401 11.0601 20.8701 11.2701 20.7601C11.4701 20.6501 11.6301 20.4901 11.7501 20.2901C11.8701 20.0901 11.9301 19.8701 11.9301 19.6201H13.2501H13.2401ZM14.0401 11.6601C13.9601 11.4101 13.8601 11.1601 13.7401 10.9401C13.4201 10.3601 12.9901 9.91006 12.4401 9.58006C11.8901 9.25006 11.2601 9.07006 10.5401 9.04006C9.82005 9.07006 9.19006 9.25006 8.64006 9.58006C8.09006 9.91006 7.66006 10.3601 7.34006 10.9401C7.21006 11.1801 7.11006 11.4301 7.03006 11.6901L5.59006 10.8701C5.68006 10.5901 5.79007 10.3201 5.93007 10.0701C6.36007 9.27006 6.97006 8.65006 7.76006 8.21006C8.55006 7.77006 9.46006 7.56006 10.5501 7.56006C11.6401 7.56006 12.5501 7.78006 13.3401 8.21006C14.1301 8.65006 14.7401 9.27006 15.1701 10.0701C15.3001 10.3101 15.4001 10.5601 15.4901 10.8201L14.0601 11.6601H14.0401Z" fill="white"/>
<path d="M16.8 0H2.62C1.18 0 0 1.18 0 2.62V30.45C0 31.89 1.18 33.07 2.62 33.07H16.8C18.24 33.07 19.42 31.89 19.42 30.45V2.62C19.42 1.18 18.24 0 16.8 0ZM18.55 30.45C18.55 31.41 17.77 32.19 16.81 32.19H2.63C1.67 32.19 0.889999 31.41 0.889999 30.45V2.62C0.889999 1.66 1.67 0.879999 2.63 0.879999H16.81C17.77 0.879999 18.55 1.66 18.55 2.62V30.45Z" fill="white"/>
<path d="M35.6899 11.4199H29.1099C28.7599 11.4199 28.4299 11.5099 28.1299 11.6799C27.8299 11.8599 27.5899 12.0999 27.4099 12.3999C27.2299 12.6999 27.1499 13.0399 27.1499 13.3999C27.1499 13.7599 27.2399 14.0799 27.4099 14.3899C27.5899 14.6999 27.8199 14.9499 28.1299 15.1399C28.4299 15.3299 28.7599 15.4199 29.1099 15.4199H32.3199C33.0399 15.4199 33.7199 15.5999 34.3399 15.9599C34.9599 16.3199 35.4499 16.7999 35.8099 17.4099C36.1699 18.0199 36.3499 18.6799 36.3499 19.4099C36.3499 20.1399 36.1699 20.7899 35.8099 21.4099C35.4499 22.0299 34.9599 22.5199 34.3399 22.8799C33.7199 23.2399 33.0499 23.4199 32.3199 23.4199H25.9199V21.3899H32.3399C32.6999 21.3899 33.0399 21.2999 33.3399 21.1299C33.6399 20.9599 33.8799 20.7099 34.0599 20.4099C34.2399 20.1099 34.3199 19.7699 34.3199 19.4099C34.3199 19.0499 34.2299 18.7199 34.0499 18.4199C33.8699 18.1199 33.6299 17.8899 33.3299 17.7099C33.0299 17.5299 32.6999 17.4499 32.3399 17.4499H29.1699C28.4299 17.4499 27.7599 17.2699 27.1399 16.9099C26.5199 16.5499 26.0299 16.0599 25.6699 15.4399C25.3099 14.8199 25.1299 14.1499 25.1299 13.4199C25.1299 12.6899 25.3099 12.0299 25.6699 11.4099C26.0299 10.7999 26.5199 10.3099 27.1399 9.94991C27.7599 9.58991 28.4399 9.40991 29.1699 9.40991H35.6899V11.4399V11.4199Z" fill="white"/>
<path d="M43.9699 23.4199H41.9399V9.38989H43.9699V23.4199Z" fill="white"/>
<path d="M39.6099 11.4199V9.38989H46.2899V11.4199H39.6099Z" fill="white"/>
<path d="M39.6099 23.4199V21.3899H46.2899V23.4199H39.6099Z" fill="white"/>
<path d="M74.49 27.1999L73.58 26.2899H113.54V28.3199H73.49C73.2 28.3199 72.95 28.2199 72.75 28.0099C72.55 27.8099 72.45 27.5599 72.45 27.2599V9.37988H74.4799V27.1899L74.49 27.1999Z" fill="white"/>
<path d="M87.9299 11.4199H82.4099C82.0399 11.4199 81.6999 11.5099 81.3999 11.6699C81.0999 11.8399 80.8599 12.0699 80.6799 12.3699C80.4999 12.6699 80.4099 12.9999 80.4099 13.3599V19.4299C80.4099 19.7899 80.4999 20.1199 80.6799 20.4199C80.8599 20.7199 81.0999 20.9499 81.4099 21.1199C81.7099 21.2899 82.0499 21.3699 82.4099 21.3699H87.9299V23.3999H82.4299C81.6899 23.3999 81.0199 23.2199 80.3999 22.8599C79.7799 22.4999 79.2899 22.0099 78.9299 21.3999C78.5699 20.7899 78.3899 20.1199 78.3899 19.3899V13.3899C78.3899 12.6699 78.5699 11.9999 78.9299 11.3799C79.2899 10.7699 79.7799 10.2799 80.3999 9.91988C81.0199 9.55988 81.6999 9.37988 82.4299 9.37988H87.9299V11.4099V11.4199ZM87.3599 17.4399H81.3499V15.4199H87.3599V17.4399Z" fill="white"/>
<path d="M109.57 20.3899C110.117 20.3899 110.56 19.9467 110.56 19.3999C110.56 18.8531 110.117 18.4099 109.57 18.4099C109.023 18.4099 108.58 18.8531 108.58 19.3999C108.58 19.9467 109.023 20.3899 109.57 20.3899Z" fill="white"/>
<path d="M105.5 16.8899C106.12 17.2499 106.8 17.4299 107.53 17.4299H109.59L110.73 15.4499C110.55 15.4299 110.36 15.4099 110.17 15.4099H107.48C107.13 15.4099 106.8 15.3199 106.5 15.1299C106.2 14.9399 105.96 14.6899 105.78 14.3799C105.6 14.0699 105.52 13.7399 105.52 13.3899C105.52 13.0399 105.61 12.6899 105.78 12.3899C105.95 12.0899 106.2 11.8499 106.5 11.6699C106.8 11.4899 107.13 11.4099 107.48 11.4099H113.54V9.37988H107.53C106.79 9.37988 106.12 9.55988 105.5 9.91988C104.88 10.2799 104.39 10.7699 104.03 11.3799C103.67 11.9899 103.49 12.6599 103.49 13.3899C103.49 14.1199 103.67 14.7899 104.03 15.4099C104.39 16.0299 104.88 16.5199 105.5 16.8799V16.8899Z" fill="white"/>
<path d="M109.61 21.3799H104.29V23.4099H110.17C110.37 23.4099 110.56 23.3999 110.75 23.3699L109.6 21.3799H109.61Z" fill="white"/>
<path d="M113.66 21.4C114.02 20.78 114.2 20.11 114.2 19.4C114.2 18.69 114.02 18.01 113.66 17.4C113.3 16.79 112.81 16.31 112.19 15.95C112.03 15.86 111.87 15.78 111.7 15.71L110.67 17.49C110.85 17.53 111.02 17.6 111.18 17.69C111.48 17.87 111.72 18.1 111.9 18.4C112.08 18.7 112.17 19.03 112.17 19.39C112.17 19.75 112.08 20.09 111.91 20.39C111.73 20.69 111.49 20.93 111.19 21.11C111.03 21.2 110.86 21.27 110.68 21.31L111.71 23.1C111.87 23.03 112.03 22.95 112.18 22.86C112.8 22.5 113.29 22.01 113.65 21.39L113.66 21.4Z" fill="white"/>
<path d="M100.4 11.4199H94.3398C93.9898 11.4199 93.6598 11.5099 93.3598 11.6799C93.0598 11.8599 92.8198 12.0999 92.6398 12.3999C92.4598 12.6999 92.3799 13.0399 92.3799 13.3999C92.3799 13.7599 92.4698 14.0799 92.6398 14.3899C92.8198 14.6999 93.0498 14.9499 93.3598 15.1399C93.6598 15.3299 93.9898 15.4199 94.3398 15.4199H97.0298C97.7498 15.4199 98.4299 15.5999 99.0499 15.9599C99.6699 16.3199 100.16 16.7999 100.52 17.4099C100.88 18.0199 101.06 18.6799 101.06 19.4099C101.06 20.1399 100.88 20.7899 100.52 21.4099C100.16 22.0299 99.6699 22.5199 99.0499 22.8799C98.4299 23.2399 97.7598 23.4199 97.0298 23.4199H91.1498V21.3899H97.0499C97.4099 21.3899 97.7499 21.2999 98.0499 21.1299C98.3499 20.9599 98.5899 20.7099 98.7699 20.4099C98.9499 20.1099 99.0298 19.7699 99.0298 19.4099C99.0298 19.0499 98.9398 18.7199 98.7598 18.4199C98.5798 18.1199 98.3398 17.8899 98.0398 17.7099C97.7398 17.5299 97.4099 17.4499 97.0499 17.4499H94.3898C93.6498 17.4499 92.9798 17.2699 92.3598 16.9099C91.7398 16.5499 91.2498 16.0599 90.8898 15.4399C90.5298 14.8199 90.3499 14.1499 90.3499 13.4199C90.3499 12.6899 90.5298 12.0299 90.8898 11.4099C91.2498 10.7999 91.7398 10.3099 92.3598 9.94991C92.9798 9.58991 93.6598 9.40991 94.3898 9.40991H100.4V11.4399V11.4199Z" fill="white"/>
<path d="M58.36 23.4199C57.66 23.4199 57.01 23.2499 56.45 22.9299C55.89 22.5999 55.4399 22.1499 55.1199 21.5799C54.7999 21.0099 54.64 20.3399 54.64 19.5899V12.9699C54.64 12.6499 54.56 12.3599 54.41 12.0999C54.26 11.8399 54.0499 11.6299 53.7899 11.4799C53.5299 11.3299 53.25 11.2499 52.94 11.2499C52.63 11.2499 52.35 11.3299 52.1 11.4799C51.85 11.6299 51.64 11.8399 51.5 12.0999C51.35 12.3599 51.28 12.6499 51.28 12.9699V23.1999H49.2V13.2199C49.2 12.4999 49.36 11.8499 49.67 11.2799C49.98 10.6999 50.43 10.2399 50.99 9.9099C51.55 9.5799 52.21 9.4099 52.94 9.4099C53.67 9.4099 54.34 9.5799 54.91 9.9099C55.47 10.2399 55.9199 10.7099 56.2299 11.2799C56.5399 11.8499 56.7 12.5099 56.7 13.2199V19.8399C56.7 20.1699 56.78 20.4699 56.93 20.7199C57.08 20.9699 57.2899 21.1799 57.5399 21.3299C57.7899 21.4799 58.07 21.5599 58.36 21.5599C58.65 21.5599 58.92 21.4799 59.17 21.3299C59.42 21.1799 59.6199 20.9699 59.7599 20.7199C59.9099 20.4699 59.9799 20.1699 59.9799 19.8399V13.2199C59.9799 12.4999 60.14 11.8499 60.46 11.2699C60.78 10.6899 61.2299 10.2299 61.7899 9.8999C62.3499 9.5699 63.0099 9.3999 63.7599 9.3999C64.5099 9.3999 65.15 9.5699 65.71 9.8999C66.27 10.2299 66.72 10.6999 67.03 11.2699C67.34 11.8399 67.5 12.4999 67.5 13.2099V23.1899H65.42V12.9599C65.42 12.6399 65.35 12.3499 65.2 12.0899C65.05 11.8299 64.85 11.6199 64.6 11.4699C64.35 11.3199 64.0699 11.2399 63.7599 11.2399C63.4499 11.2399 63.1499 11.3199 62.8999 11.4699C62.6499 11.6199 62.4399 11.8299 62.2899 12.0899C62.1399 12.3499 62.06 12.6399 62.06 12.9599V19.5799C62.06 20.3299 61.9 20.9999 61.58 21.5699C61.26 22.1399 60.8099 22.5899 60.2599 22.9199C59.6999 23.2499 59.06 23.4099 58.36 23.4099V23.4199Z" fill="white"/>
</svg>
