<svg width="52" height="49" viewBox="0 0 52 49" fill="none" xmlns="http://www.w3.org/2000/svg">
<g opacity="0.5">
<path d="M26.3301 7.1L33.5301 4.21L31.8001 0L26.3301 7.1Z" fill="#B3D762"/>
<path d="M23.1395 11.2299L16.4395 19.9199L36.6695 11.8299L34.5395 6.66992L23.1395 11.2299Z" fill="#B3D762"/>
<path d="M13.2608 24.0498L6.55078 32.7498L39.8008 19.4398L37.6708 14.2798L13.2608 24.0498Z" fill="#B3D762"/>
<path d="M3.37 36.88L0 41.25L5.59 42L42.93 27.05L40.81 21.89L3.37 36.88Z" fill="#B3D762"/>
<path d="M10.9297 42.72L22.1797 44.22L46.0597 34.66L43.9397 29.5L10.9297 42.72Z" fill="#B3D762"/>
<path d="M27.5195 44.9399L38.7695 46.4499L49.1895 42.2699L47.0695 37.1099L27.5195 44.9399Z" fill="#B3D762"/>
<path d="M51.6194 48.1702L50.1994 44.7202L44.1094 47.1602L51.6194 48.1702Z" fill="#B3D762"/>
</g>
</svg>
