<svg width="43" height="50" viewBox="0 0 43 50" fill="none" xmlns="http://www.w3.org/2000/svg">
<g filter="url(#filter0_d_143_1305)">
<path d="M28.2109 7.8999C28.8273 7.90016 29.3809 8.27747 29.6064 8.85107C31.0297 12.4707 32.2693 14.8323 33.833 16.6987C35.3868 18.5534 37.3376 20.011 40.334 21.6919C40.8067 21.9571 41.1001 22.4565 41.1006 22.9985C41.1009 23.5407 40.8084 24.0413 40.3359 24.3071C37.3391 25.9931 35.3872 27.4529 33.833 29.3091C32.269 31.177 31.0296 33.5392 29.6064 37.1587C29.3808 37.7325 28.8265 38.1099 28.21 38.1099C27.5935 38.1097 27.04 37.7324 26.8145 37.1587C25.3913 33.5392 24.1519 31.177 22.5879 29.3091C21.0337 27.4528 19.0818 25.9931 16.085 24.3071C15.6124 24.0413 15.32 23.5407 15.3203 22.9985C15.3208 22.4565 15.6142 21.9571 16.0869 21.6919C19.0824 20.0115 21.0339 18.5518 22.5879 16.6958C24.152 14.8277 25.3912 12.465 26.8145 8.8501L26.8604 8.74561C27.1094 8.23128 27.6328 7.89977 28.2109 7.8999Z" fill="#FFFB00" stroke="black" stroke-width="3" stroke-linejoin="round"/>
<path d="M11.2295 1.5C11.8463 1.49979 12.4003 1.87716 12.626 2.45117C13.3941 4.40547 14.0413 5.62083 14.8281 6.56152C15.6051 7.49031 16.5946 8.24217 18.1953 9.14258C18.6679 9.40842 18.9603 9.90892 18.96 10.4512C18.9595 10.9933 18.6662 11.4926 18.1934 11.7578C16.5884 12.6579 15.6003 13.4101 14.8252 14.3379C14.0397 15.2781 13.3946 16.4927 12.626 18.4482C12.4005 19.022 11.8469 19.4002 11.2305 19.4004C10.6138 19.4004 10.0596 19.0222 9.83398 18.4482C9.06596 16.4942 8.41864 15.2795 7.63184 14.3389C6.85488 13.41 5.86537 12.6582 4.26465 11.7578C3.79209 11.492 3.49972 10.9914 3.5 10.4492C3.50034 9.90697 3.79365 9.40685 4.2666 9.1416C5.87282 8.24076 6.8611 7.49168 7.63574 6.56543C8.42055 5.627 9.06443 4.41252 9.83301 2.45215L9.87988 2.34668C10.1286 1.83224 10.6514 1.50024 11.2295 1.5Z" fill="#FFFB00" stroke="black" stroke-width="3" stroke-linejoin="round"/>
<path d="M15.9502 32C16.5672 32 17.1213 32.3778 17.3467 32.9521C17.8896 34.3359 18.3311 35.1527 18.8496 35.7715C19.3589 36.3792 20.0188 36.8865 21.1475 37.5234C21.6194 37.7898 21.9109 38.2901 21.9102 38.832C21.9093 39.374 21.6163 39.8738 21.1436 40.1387C20.0179 40.7692 19.3592 41.2759 18.8506 41.8838C18.3319 42.5038 17.89 43.3232 17.3467 44.708C17.1213 45.2823 16.5671 45.6602 15.9502 45.6602C15.3333 45.6601 14.7791 45.2823 14.5537 44.708C14.0108 43.3243 13.5692 42.5074 13.0508 41.8887C12.5415 41.2809 11.8815 40.7736 10.7529 40.1367C10.281 39.8704 9.98956 39.37 9.99023 38.8281C9.99109 38.2862 10.2841 37.7864 10.7568 37.5215C11.8824 36.891 12.5412 36.3842 13.0498 35.7764C13.5685 35.1564 14.0104 34.337 14.5537 32.9521C14.7791 32.3778 15.3332 32 15.9502 32Z" fill="#FFFB00" stroke="black" stroke-width="3" stroke-linejoin="round"/>
</g>
<defs>
<filter id="filter0_d_143_1305" x="0" y="0" width="42.6003" height="49.16" filterUnits="userSpaceOnUse" color-interpolation-filters="sRGB">
<feFlood flood-opacity="0" result="BackgroundImageFix"/>
<feColorMatrix in="SourceAlpha" type="matrix" values="0 0 0 0 0 0 0 0 0 0 0 0 0 0 0 0 0 0 127 0" result="hardAlpha"/>
<feOffset dx="-2" dy="2"/>
<feColorMatrix type="matrix" values="0 0 0 0 0 0 0 0 0 0 0 0 0 0 0 0 0 0 0.2 0"/>
<feBlend mode="normal" in2="BackgroundImageFix" result="effect1_dropShadow_143_1305"/>
<feBlend mode="normal" in="SourceGraphic" in2="effect1_dropShadow_143_1305" result="shape"/>
</filter>
</defs>
</svg>
