<svg width="47" height="51" viewBox="0 0 47 51" fill="none" xmlns="http://www.w3.org/2000/svg">
<g filter="url(#filter0_d_143_1048)">
<path d="M30.7695 9.52979C31.4076 9.53009 31.9758 9.93408 32.1855 10.5366C33.774 15.1039 35.1697 18.1196 36.9414 20.5103C38.6986 22.8812 40.8932 24.728 44.2236 26.8442C44.6566 27.1195 44.9189 27.5967 44.9189 28.1099C44.9189 28.623 44.6567 29.1002 44.2236 29.3755C40.8943 31.4911 38.7026 33.34 36.9463 35.7124C35.1751 38.105 33.7793 41.1207 32.1855 45.6841C31.9752 46.2864 31.4065 46.6902 30.7686 46.6899C30.1304 46.6895 29.5622 46.2849 29.3525 45.6821C27.7642 41.115 26.3684 38.1001 24.5967 35.7095C22.8395 33.3385 20.6449 31.4917 17.3145 29.3755C16.8815 29.1002 16.6192 28.6229 16.6191 28.1099C16.6191 27.5968 16.8815 27.1195 17.3145 26.8442C20.6443 24.7283 22.8367 22.8821 24.5928 20.5112C26.3637 18.1201 27.7588 15.104 29.3525 10.5356L29.3965 10.4253C29.6344 9.88443 30.1713 9.52963 30.7695 9.52979Z" fill="#FFFB00" stroke="black" stroke-width="3" stroke-linejoin="round"/>
<path d="M11.9189 1.5C12.5575 1.49955 13.1268 1.90386 13.3369 2.50684C14.2008 4.98548 14.9364 6.56089 15.8438 7.78809C16.7358 8.99465 17.8593 9.95295 19.6426 11.083C20.0762 11.3578 20.3394 11.8353 20.3398 12.3486C20.3403 12.8619 20.0784 13.3396 19.6455 13.6152C17.8603 14.7513 16.7352 15.7101 15.8428 16.916C14.9356 18.142 14.2006 19.7152 13.3369 22.1934C13.1269 22.796 12.5581 23.2002 11.9199 23.2002C11.2818 23.2002 10.7139 22.7959 10.5039 22.1934C9.63998 19.7145 8.90346 18.1394 7.99609 16.9121C7.104 15.7055 5.98054 14.7472 4.19727 13.6172C3.76321 13.3421 3.5 12.8635 3.5 12.3496C3.50013 11.8359 3.76332 11.358 4.19727 11.083C5.98141 9.9524 7.10782 8.99367 8.00098 7.78711C8.90878 6.56062 9.64455 4.98583 10.5029 2.50879L10.5459 2.39844C10.7829 1.85655 11.3201 1.50053 11.9189 1.5Z" fill="#FFFB00" stroke="black" stroke-width="3" stroke-linejoin="round"/>
</g>
<defs>
<filter id="filter0_d_143_1048" x="0" y="0" width="46.4191" height="50.1898" filterUnits="userSpaceOnUse" color-interpolation-filters="sRGB">
<feFlood flood-opacity="0" result="BackgroundImageFix"/>
<feColorMatrix in="SourceAlpha" type="matrix" values="0 0 0 0 0 0 0 0 0 0 0 0 0 0 0 0 0 0 127 0" result="hardAlpha"/>
<feOffset dx="-2" dy="2"/>
<feColorMatrix type="matrix" values="0 0 0 0 0 0 0 0 0 0 0 0 0 0 0 0 0 0 0.2 0"/>
<feBlend mode="normal" in2="BackgroundImageFix" result="effect1_dropShadow_143_1048"/>
<feBlend mode="normal" in="SourceGraphic" in2="effect1_dropShadow_143_1048" result="shape"/>
</filter>
</defs>
</svg>
