<svg width="79" height="83" viewBox="0 0 79 83" fill="none" xmlns="http://www.w3.org/2000/svg">
<path d="M49.9277 8.78491C53.3774 7.77615 56.983 9.76226 57.9892 13.2029C58.999 16.6558 57.0079 20.2611 53.5576 21.2654H53.5566L18.8965 31.3357C17.6773 31.6925 16.6912 32.4842 16.0947 33.5798C15.5238 34.6286 15.3661 35.801 15.6386 36.9373L15.6992 37.1638L15.7002 37.1667L20.5488 53.8533L20.6347 54.1775C21.4315 57.5245 19.4652 60.9319 16.1308 61.9099L16.1318 61.9109C15.5136 62.0947 14.8924 62.1745 14.2998 62.1746C14.1682 62.1746 14.0391 62.1609 13.9131 62.1414C11.2516 61.9812 8.85219 60.1786 8.06052 57.4783L8.05856 57.4724L3.20895 40.782L3.20798 40.78C1.89461 36.2468 2.41808 31.4513 4.70114 27.3162C6.9803 23.1783 10.736 20.168 15.2734 18.8533L49.9277 8.78589V8.78491Z" fill="#ED1E79" stroke="white" stroke-width="5" stroke-linejoin="round"/>
<path d="M33.7011 6.50269C35.0407 3.28813 38.6506 1.73066 41.8799 2.87378L42.1914 2.99292L42.1982 2.99585L55.6787 8.59546L55.6865 8.59937C57.4907 9.35649 58.8755 10.8801 59.4297 12.7869C59.9816 14.6862 59.6413 16.7246 58.5009 18.3376L58.5 18.3367L50.1259 30.28L50.125 30.282C48.9166 32.0016 47.0286 32.9471 45.0947 33.0349C44.9977 33.0463 44.8989 33.0544 44.7988 33.0544C43.5002 33.0544 42.1987 32.6592 41.0752 31.8728L41.0732 31.8708C38.1364 29.8101 37.4175 25.7624 39.4824 22.8191L43.2138 17.4978L37.2099 15.0037L37.208 15.0027C33.8998 13.6243 32.3175 9.82354 33.7011 6.50269Z" fill="#ED1E79" stroke="white" stroke-width="5" stroke-linejoin="round"/>
<path d="M62.1699 20.5242C65.5108 19.5488 68.9966 21.3812 70.1259 24.6238L70.2285 24.9421L70.2295 24.946L75.0791 41.6365L75.08 41.6384C76.3937 46.1725 75.8698 50.9671 73.5888 55.1101C71.3099 59.2492 67.5528 62.2589 63.0146 63.574L63.0156 63.575L28.3701 73.6394C27.8489 73.7943 27.3258 73.8746 26.8193 73.8962C26.7271 73.9066 26.6331 73.9138 26.5381 73.9138C23.7253 73.9136 21.1294 72.0676 20.2998 69.2371L20.2988 69.2361C19.289 65.7833 21.2793 62.178 24.7295 61.1736H24.7314L59.3906 51.1033C60.6031 50.7486 61.587 49.9591 62.1982 48.8484C62.8064 47.7431 62.9434 46.489 62.5888 45.2742L62.5879 45.2712L57.7392 28.5857L57.6533 28.2615C56.8553 24.9099 58.8274 21.4961 62.1699 20.5232V20.5242Z" fill="#ED1E79" stroke="white" stroke-width="5" stroke-linejoin="round"/>
<path d="M28.1621 52.1384C30.2229 49.2014 34.2714 48.4833 37.2148 50.5486C40.0601 52.545 40.8241 56.4066 38.9912 59.322L38.8056 59.6003L35.0732 64.9207L41.0781 67.4158L41.081 67.4167C44.389 68.7952 45.9705 72.596 44.5869 75.9167C43.5457 78.4193 41.124 79.9245 38.5791 79.9246C37.7444 79.9246 36.8982 79.7608 36.0898 79.4226L22.6103 73.823L22.6015 73.8201C20.7974 73.0629 19.4125 71.5393 18.8584 69.6326C18.3073 67.7361 18.6469 65.7015 19.7832 64.0896H19.7822L28.1621 52.1394V52.1384Z" fill="#ED1E79" stroke="white" stroke-width="5" stroke-linejoin="round"/>
</svg>
